<svg width="367" height="104" viewBox="0 0 367 104" fill="none" xmlns="http://www.w3.org/2000/svg">
<path d="M320.448 65.8811L241.678 87.2355C240.159 87.6109 237.748 87.7879 233.968 86.3763C226.407 83.5532 217.827 82.3853 224.797 80.6627C226.62 80.2121 274.228 67.2509 296.391 61.2075C296.678 60.8433 296.622 60.082 292.658 58.7367C288.128 57.1989 283.636 56.2161 280.297 55.1311C278.211 54.4529 276.648 54.9398 274.113 55.717" stroke="#421DD6" stroke-linecap="round"/>
<path d="M311.841 63.6101L239.017 83.6834C235.22 84.622 233.429 82.4074 235.463 81.9047C237.286 81.4542 306.278 62.4085 306.278 62.4085C306.565 62.0443 305.931 60.7976 301.968 59.4523C297.437 57.9146 278.747 52.7747 275.408 51.6897C273.321 51.0115 269.899 52.0835 267.365 52.8607" stroke="#421DD6" stroke-linecap="round"/>
<path d="M276.302 55.0647L197.532 76.419C196.014 76.7945 193.602 76.9715 189.822 75.5599C182.261 72.7368 173.681 71.5689 180.651 69.8463C182.474 69.3957 230.082 56.4345 252.245 50.3911C252.532 50.0269 252.476 49.2656 248.513 47.9203C243.982 46.3825 239.49 45.3997 236.151 44.3147C234.065 43.6365 232.502 44.1234 229.967 44.9006" stroke="#421DD6" stroke-linecap="round"/>
<path d="M267.695 52.7936L194.871 72.867C191.074 73.8056 189.283 71.591 191.317 71.0883C193.14 70.6378 262.132 51.5921 262.132 51.5921C262.419 51.2279 261.785 49.9812 257.822 48.6359C253.291 47.0981 234.601 41.9583 231.262 40.8733C229.175 40.1951 225.753 41.267 223.219 42.0443" stroke="#421DD6" stroke-linecap="round"/>
<path d="M233.015 44.0073L154.246 65.3617C152.727 65.7371 150.316 65.9141 146.536 64.5025C138.975 61.6794 130.395 60.5115 137.365 58.7889C139.188 58.3384 186.796 45.3771 208.958 39.3337C209.245 38.9695 209.19 38.2082 205.226 36.8629C200.696 35.3252 196.204 34.3423 192.865 33.2573C190.779 32.5791 189.215 33.066 186.681 33.8433" stroke="#421DD6" stroke-linecap="round"/>
<path d="M224.408 41.736L151.585 61.8094C147.788 62.748 145.997 60.5334 148.031 60.0307C149.854 59.5801 218.846 40.5344 218.846 40.5344C219.133 40.1703 218.499 38.9236 214.535 37.5783C210.005 36.0405 191.315 30.9007 187.976 29.8157C185.889 29.1375 182.467 30.2094 179.933 30.9867" stroke="#421DD6" stroke-linecap="round"/>
<path d="M188.869 33.1909L110.1 54.5453C108.581 54.9207 106.17 55.0977 102.39 53.6861C94.8291 50.863 86.2493 49.6951 93.2188 47.9725C95.0415 47.522 142.65 34.5607 164.812 28.5173C165.099 28.1531 165.044 27.3918 161.08 26.0465C156.55 24.5087 152.058 23.5259 148.719 22.4409C146.633 21.7627 145.069 22.2496 142.535 23.0269" stroke="#421DD6" stroke-linecap="round"/>
<path d="M180.262 30.9196L107.439 50.993C103.642 51.9315 101.851 49.717 103.885 49.2143C105.708 48.7637 174.7 29.718 174.7 29.718C174.987 29.3539 174.353 28.1072 170.389 26.7619C165.859 25.2241 147.169 20.0843 143.83 18.9993C141.743 18.3211 138.321 19.393 135.787 20.1703" stroke="#421DD6" stroke-linecap="round"/>
<path d="M145.573 22.2758L66.8039 43.6302C65.285 44.0056 62.8739 44.1827 59.0935 42.7711C51.5327 39.9479 42.9529 38.7801 49.9224 37.0574C51.7451 36.6069 99.3537 23.6456 121.516 17.6022C121.803 17.2381 121.748 16.4768 117.784 15.1314" stroke="#421DD6" stroke-linecap="round"/>
<path d="M136.966 20.0049L64.1425 40.0782C60.345 41.0168 58.5547 38.8022 60.5885 38.2995C62.4113 37.849 131.404 18.8033 131.404 18.8033C131.691 18.4391 131.057 17.1924 127.093 15.8471" stroke="#421DD6" stroke-linecap="round"/>
</svg>
