<svg width="367" height="104" viewBox="0 0 367 104" fill="none" xmlns="http://www.w3.org/2000/svg">
<path d="M18.2085 40.0215L126.484 9.64551" stroke="#838383" stroke-linecap="round"/>
<path d="M224.716 93.9144L349.65 60.8438" stroke="#838383" stroke-linecap="round"/>
<path d="M217.612 91.9547L342.546 58.884" stroke="#838383" stroke-linecap="round"/>
<path d="M211.733 89.995L336.667 56.9243" stroke="#838383" stroke-linecap="round"/>
<path d="M202.18 89.0153L327.113 55.9446" stroke="#838383" stroke-linecap="round"/>
<path d="M195.075 87.0555L320.009 53.9849" stroke="#838383" stroke-linecap="round"/>
<path d="M189.196 85.0956L314.13 52.0249" stroke="#838383" stroke-linecap="round"/>
<path d="M181.602 83.6259L306.536 50.5552" stroke="#838383" stroke-linecap="round"/>
<path d="M174.498 81.6661L299.432 48.5955" stroke="#838383" stroke-linecap="round"/>
<path d="M168.619 79.7064L293.552 46.6357" stroke="#838383" stroke-linecap="round"/>
<path d="M161.515 77.9915L283.999 45.6558" stroke="#838383" stroke-linecap="round"/>
<path d="M151.961 76.7667L276.895 43.696" stroke="#838383" stroke-linecap="round"/>
<path d="M146.082 74.807L271.016 41.7363" stroke="#838383" stroke-linecap="round"/>
<path d="M139.468 73.3373L264.401 40.2666" stroke="#838383" stroke-linecap="round"/>
<path d="M132.364 71.3776L257.297 38.3069" stroke="#838383" stroke-linecap="round"/>
<path d="M126.484 69.4178L251.418 36.3472" stroke="#838383" stroke-linecap="round"/>
<path d="M121.585 66.9681L241.864 35.3672" stroke="#838383" stroke-linecap="round"/>
<path d="M114.481 65.2533L234.76 33.4075" stroke="#838383" stroke-linecap="round"/>
<path d="M107.377 63.5386L228.881 31.4478" stroke="#838383" stroke-linecap="round"/>
<path d="M99.5381 61.5786L220.797 29.9778" stroke="#838383" stroke-linecap="round"/>
<path d="M93.4136 59.6189L214.183 28.0181" stroke="#838383" stroke-linecap="round"/>
<path d="M86.7998 57.9042L208.304 26.0583" stroke="#838383" stroke-linecap="round"/>
<path d="M78.9604 56.6795L198.75 25.0786" stroke="#838383" stroke-linecap="round"/>
<path d="M72.1016 54.7195L191.646 23.1187" stroke="#838383" stroke-linecap="round"/>
<path d="M66.4673 53.2497L185.767 21.1589" stroke="#838383" stroke-linecap="round"/>
<path d="M52.5039 49.0853L167.884 17.9744M61.3228 51.7799L177.683 20.424L61.3228 51.7799ZM56.9133 50.3101L172.048 19.4442L56.9133 50.3101Z" stroke="#838383" stroke-linecap="round"/>
<path d="M37.8057 44.9209L148.531 14.5449M46.6245 47.6156L161.025 16.9946L46.6245 47.6156ZM42.2151 46.1458L153.431 16.0147L42.2151 46.1458Z" stroke="#838383" stroke-linecap="round"/>
<path d="M23.5977 40.7565L133.098 10.8704M32.4165 43.4511L142.897 13.0751L32.4165 43.4511ZM28.0071 41.9813L137.018 12.0952L28.0071 41.9813Z" stroke="#838383" stroke-linecap="round"/>
<path d="M22.6182 38.5518L234.76 92.4447" stroke="#838383" stroke-width="0.8" stroke-linecap="round"/>
<path d="M32.9067 35.8572L245.049 89.7501" stroke="#838383" stroke-width="0.8" stroke-linecap="round"/>
<path d="M42.2158 33.4075L254.358 87.3004" stroke="#838383" stroke-width="0.8" stroke-linecap="round"/>
<path d="M49.0747 30.9578L261.217 84.8507" stroke="#838383" stroke-width="0.8" stroke-linecap="round"/>
<path d="M55.9336 28.998L268.076 82.891" stroke="#838383" stroke-width="0.8" stroke-linecap="round"/>
<path d="M62.793 27.0383L274.935 80.9313" stroke="#838383" stroke-width="0.8" stroke-linecap="round"/>
<path d="M69.6519 25.0784L281.794 78.9713" stroke="#838383" stroke-width="0.8" stroke-linecap="round"/>
<path d="M76.5107 23.1187L288.653 77.0116" stroke="#838383" stroke-width="0.8" stroke-linecap="round"/>
<path d="M83.3701 21.1589L295.512 75.0519" stroke="#838383" stroke-width="0.8" stroke-linecap="round"/>
<path d="M90.2295 19.1992L302.372 73.0922" stroke="#838383" stroke-width="0.8" stroke-linecap="round"/>
<path d="M98.0684 17.2395L310.211 71.1325" stroke="#838383" stroke-width="0.8" stroke-linecap="round"/>
<path d="M105.417 15.7698L318.049 69.1728" stroke="#838383" stroke-width="0.8" stroke-linecap="round"/>
<path d="M111.787 13.8101L325.644 66.7231" stroke="#838383" stroke-width="0.8" stroke-linecap="round"/>
<path d="M118.156 11.8501L335.932 64.2732" stroke="#838383" stroke-width="0.8" stroke-linecap="round"/>
<path d="M119.871 9.89038L344.506 62.3135" stroke="#838383" stroke-width="0.8" stroke-linecap="round"/>
</svg>
