<svg width="367" height="104" viewBox="0 0 367 104" fill="none" xmlns="http://www.w3.org/2000/svg">
<path d="M223.768 97.8331L10.3291 40.8199V37.546L120.567 4.70927L356.919 58.6553V61.9292L223.768 97.8331Z" fill="white" stroke="#838383" stroke-linecap="round" stroke-linejoin="round"/>
<path d="M223.768 94.6116L10.3291 37.5984L120.567 4.76172L356.919 58.7077L223.768 94.6116Z" fill="white" stroke="#838383" stroke-linecap="round" stroke-linejoin="round"/>
<path d="M223.941 94.4207L223.696 97.85" stroke="#838383" stroke-linecap="round"/>
<path d="M221.246 95.8906C221.111 95.8906 221.001 95.7809 221.001 95.6456C221.001 95.5103 221.111 95.4006 221.246 95.4006C221.381 95.4006 221.491 95.5103 221.491 95.6456C221.491 95.7809 221.381 95.8906 221.246 95.8906Z" fill="#838383"/>
<path d="M217.817 94.4206C217.682 94.4206 217.572 94.3109 217.572 94.1756C217.572 94.0403 217.682 93.9306 217.817 93.9306C217.952 93.9306 218.062 94.0403 218.062 94.1756C218.062 94.3109 217.952 94.4206 217.817 94.4206Z" fill="#838383"/>
<path d="M218.797 95.8906C218.662 95.8906 218.552 95.7809 218.552 95.6456C218.552 95.5103 218.662 95.4006 218.797 95.4006C218.932 95.4006 219.042 95.5103 219.042 95.6456C219.042 95.7809 218.932 95.8906 218.797 95.8906Z" fill="#838383"/>
<path d="M214.877 94.4206C214.742 94.4206 214.632 94.3109 214.632 94.1756C214.632 94.0403 214.742 93.9306 214.877 93.9306C215.012 93.9306 215.122 94.0403 215.122 94.1756C215.122 94.3109 215.012 94.4206 214.877 94.4206Z" fill="#838383"/>
<path d="M211.938 92.4609C211.803 92.4609 211.693 92.3512 211.693 92.2159C211.693 92.0806 211.803 91.9709 211.938 91.9709C212.073 91.9709 212.183 92.0806 212.183 92.2159C212.183 92.3512 212.073 92.4609 211.938 92.4609Z" fill="#838383"/>
<path d="M212.917 94.4206C212.782 94.4206 212.672 94.3109 212.672 94.1756C212.672 94.0403 212.782 93.9306 212.917 93.9306C213.052 93.9306 213.162 94.0403 213.162 94.1756C213.162 94.3109 213.052 94.4206 212.917 94.4206Z" fill="#838383"/>
<path d="M214.387 93.4409C214.252 93.4409 214.142 93.3312 214.142 93.1959C214.142 93.0606 214.252 92.9509 214.387 92.9509C214.522 92.9509 214.632 93.0606 214.632 93.1959C214.632 93.3312 214.522 93.4409 214.387 93.4409Z" fill="#838383"/>
<path d="M200.669 89.5213C200.804 89.5213 200.914 89.631 200.914 89.7663C200.914 89.9016 200.804 90.0113 200.669 90.0113C200.534 90.0113 200.424 89.9016 200.424 89.7663C200.424 89.631 200.534 89.5213 200.669 89.5213Z" fill="#838383"/>
<path d="M204.098 90.991C204.233 90.991 204.343 91.1007 204.343 91.236C204.343 91.3713 204.233 91.481 204.098 91.481C203.963 91.481 203.853 91.3713 203.853 91.236C203.853 91.1007 203.963 90.991 204.098 90.991Z" fill="#838383"/>
<path d="M203.119 89.5213C203.254 89.5213 203.364 89.631 203.364 89.7663C203.364 89.9016 203.254 90.0113 203.119 90.0113C202.984 90.0113 202.874 89.9016 202.874 89.7663C202.874 89.631 202.984 89.5213 203.119 89.5213Z" fill="#838383"/>
<path d="M207.038 90.991C207.173 90.991 207.283 91.1007 207.283 91.236C207.283 91.3713 207.173 91.481 207.038 91.481C206.903 91.481 206.793 91.3713 206.793 91.236C206.793 91.1007 206.903 90.991 207.038 90.991Z" fill="#838383"/>
<path d="M209.977 92.9507C210.112 92.9507 210.222 93.0604 210.222 93.1957C210.222 93.331 210.112 93.4407 209.977 93.4407C209.842 93.4407 209.732 93.331 209.732 93.1957C209.732 93.0604 209.842 92.9507 209.977 92.9507Z" fill="#838383"/>
<path d="M208.998 90.991C209.133 90.991 209.243 91.1007 209.243 91.236C209.243 91.3713 209.133 91.481 208.998 91.481C208.863 91.481 208.753 91.3713 208.753 91.236C208.753 91.1007 208.863 90.991 208.998 90.991Z" fill="#838383"/>
<path d="M207.528 91.971C207.663 91.971 207.773 92.0807 207.773 92.216C207.773 92.3513 207.663 92.461 207.528 92.461C207.393 92.461 207.283 92.3513 207.283 92.216C207.283 92.0807 207.393 91.971 207.528 91.971Z" fill="#838383"/>
<path d="M189.89 86.5816C190.025 86.5816 190.135 86.6913 190.135 86.8266C190.135 86.9619 190.025 87.0716 189.89 87.0716C189.755 87.0716 189.645 86.9619 189.645 86.8266C189.645 86.6913 189.755 86.5816 189.89 86.5816Z" fill="#838383"/>
<path d="M193.32 88.0515C193.455 88.0515 193.565 88.1612 193.565 88.2965C193.565 88.4318 193.455 88.5415 193.32 88.5415C193.185 88.5415 193.075 88.4318 193.075 88.2965C193.075 88.1612 193.185 88.0515 193.32 88.0515Z" fill="#838383"/>
<path d="M192.34 86.5816C192.475 86.5816 192.585 86.6913 192.585 86.8266C192.585 86.9619 192.475 87.0716 192.34 87.0716C192.205 87.0716 192.095 86.9619 192.095 86.8266C192.095 86.6913 192.205 86.5816 192.34 86.5816Z" fill="#838383"/>
<path d="M188.421 86.5816C188.556 86.5816 188.666 86.6913 188.666 86.8266C188.666 86.9619 188.556 87.0716 188.421 87.0716C188.286 87.0716 188.176 86.9619 188.176 86.8266C188.176 86.6913 188.286 86.5816 188.421 86.5816Z" fill="#838383"/>
<path d="M196.26 88.0515C196.395 88.0515 196.505 88.1612 196.505 88.2965C196.505 88.4318 196.395 88.5415 196.26 88.5415C196.125 88.5415 196.015 88.4318 196.015 88.2965C196.015 88.1612 196.125 88.0515 196.26 88.0515Z" fill="#838383"/>
<path d="M199.199 90.0113C199.334 90.0113 199.444 90.121 199.444 90.2563C199.444 90.3916 199.334 90.5013 199.199 90.5013C199.064 90.5013 198.954 90.3916 198.954 90.2563C198.954 90.121 199.064 90.0113 199.199 90.0113Z" fill="#838383"/>
<path d="M198.709 89.0313C198.844 89.0313 198.954 89.141 198.954 89.2763C198.954 89.4116 198.844 89.5213 198.709 89.5213C198.574 89.5213 198.464 89.4116 198.464 89.2763C198.464 89.141 198.574 89.0313 198.709 89.0313Z" fill="#838383"/>
<path d="M196.749 89.0313C196.884 89.0313 196.994 89.141 196.994 89.2763C196.994 89.4116 196.884 89.5213 196.749 89.5213C196.614 89.5213 196.504 89.4116 196.504 89.2763C196.504 89.141 196.614 89.0313 196.749 89.0313Z" fill="#838383"/>
<path d="M153.635 76.783C153.77 76.783 153.88 76.8927 153.88 77.028C153.88 77.1633 153.77 77.273 153.635 77.273C153.5 77.273 153.39 77.1633 153.39 77.028C153.39 76.8927 153.5 76.783 153.635 76.783Z" fill="#838383"/>
<path d="M157.065 78.2527C157.2 78.2527 157.31 78.3624 157.31 78.4977C157.31 78.633 157.2 78.7427 157.065 78.7427C156.93 78.7427 156.82 78.633 156.82 78.4977C156.82 78.3624 156.93 78.2527 157.065 78.2527Z" fill="#838383"/>
<path d="M156.085 76.783C156.22 76.783 156.33 76.8927 156.33 77.028C156.33 77.1633 156.22 77.273 156.085 77.273C155.95 77.273 155.84 77.1633 155.84 77.028C155.84 76.8927 155.95 76.783 156.085 76.783Z" fill="#838383"/>
<path d="M160.004 78.2527C160.139 78.2527 160.249 78.3624 160.249 78.4977C160.249 78.633 160.139 78.7427 160.004 78.7427C159.869 78.7427 159.759 78.633 159.759 78.4977C159.759 78.3624 159.869 78.2527 160.004 78.2527Z" fill="#838383"/>
<path d="M162.944 80.2124C163.079 80.2124 163.189 80.3221 163.189 80.4574C163.189 80.5927 163.079 80.7024 162.944 80.7024C162.809 80.7024 162.699 80.5927 162.699 80.4574C162.699 80.3221 162.809 80.2124 162.944 80.2124Z" fill="#838383"/>
<path d="M161.964 78.2527C162.099 78.2527 162.209 78.3624 162.209 78.4977C162.209 78.633 162.099 78.7427 161.964 78.7427C161.829 78.7427 161.719 78.633 161.719 78.4977C161.719 78.3624 161.829 78.2527 161.964 78.2527Z" fill="#838383"/>
<path d="M160.494 79.2327C160.629 79.2327 160.739 79.3424 160.739 79.4777C160.739 79.613 160.629 79.7227 160.494 79.7227C160.359 79.7227 160.249 79.613 160.249 79.4777C160.249 79.3424 160.359 79.2327 160.494 79.2327Z" fill="#838383"/>
<path d="M174.213 83.1521C174.078 83.1521 173.968 83.0424 173.968 82.9071C173.968 82.7718 174.078 82.6621 174.213 82.6621C174.348 82.6621 174.458 82.7718 174.458 82.9071C174.458 83.0424 174.348 83.1521 174.213 83.1521Z" fill="#838383"/>
<path d="M170.783 81.6824C170.648 81.6824 170.538 81.5727 170.538 81.4374C170.538 81.3021 170.648 81.1924 170.783 81.1924C170.918 81.1924 171.028 81.3021 171.028 81.4374C171.028 81.5727 170.918 81.6824 170.783 81.6824Z" fill="#838383"/>
<path d="M171.763 83.1521C171.628 83.1521 171.518 83.0424 171.518 82.9071C171.518 82.7718 171.628 82.6621 171.763 82.6621C171.898 82.6621 172.008 82.7718 172.008 82.9071C172.008 83.0424 171.898 83.1521 171.763 83.1521Z" fill="#838383"/>
<path d="M167.843 81.6824C167.708 81.6824 167.598 81.5727 167.598 81.4374C167.598 81.3021 167.708 81.1924 167.843 81.1924C167.978 81.1924 168.088 81.3021 168.088 81.4374C168.088 81.5727 167.978 81.6824 167.843 81.6824Z" fill="#838383"/>
<path d="M164.904 79.7226C164.769 79.7226 164.659 79.6129 164.659 79.4776C164.659 79.3423 164.769 79.2326 164.904 79.2326C165.039 79.2326 165.149 79.3423 165.149 79.4776C165.149 79.6129 165.039 79.7226 164.904 79.7226Z" fill="#838383"/>
<path d="M165.883 81.6824C165.748 81.6824 165.638 81.5727 165.638 81.4374C165.638 81.3021 165.748 81.1924 165.883 81.1924C166.018 81.1924 166.128 81.3021 166.128 81.4374C166.128 81.5727 166.018 81.6824 165.883 81.6824Z" fill="#838383"/>
<path d="M167.354 80.7024C167.219 80.7024 167.109 80.5927 167.109 80.4574C167.109 80.3221 167.219 80.2124 167.354 80.2124C167.489 80.2124 167.599 80.3221 167.599 80.4574C167.599 80.5927 167.489 80.7024 167.354 80.7024Z" fill="#838383"/>
<path d="M184.991 86.0918C184.856 86.0918 184.746 85.9821 184.746 85.8468C184.746 85.7115 184.856 85.6018 184.991 85.6018C185.126 85.6018 185.236 85.7115 185.236 85.8468C185.236 85.9821 185.126 86.0918 184.991 86.0918Z" fill="#838383"/>
<path d="M181.561 84.6221C181.426 84.6221 181.316 84.5124 181.316 84.3771C181.316 84.2418 181.426 84.1321 181.561 84.1321C181.696 84.1321 181.806 84.2418 181.806 84.3771C181.806 84.5124 181.696 84.6221 181.561 84.6221Z" fill="#838383"/>
<path d="M182.541 86.0918C182.406 86.0918 182.296 85.9821 182.296 85.8468C182.296 85.7115 182.406 85.6018 182.541 85.6018C182.676 85.6018 182.786 85.7115 182.786 85.8468C182.786 85.9821 182.676 86.0918 182.541 86.0918Z" fill="#838383"/>
<path d="M186.461 86.0918C186.326 86.0918 186.216 85.9821 186.216 85.8468C186.216 85.7115 186.326 85.6018 186.461 85.6018C186.596 85.6018 186.706 85.7115 186.706 85.8468C186.706 85.9821 186.596 86.0918 186.461 86.0918Z" fill="#838383"/>
<path d="M178.622 84.6221C178.487 84.6221 178.377 84.5124 178.377 84.3771C178.377 84.2418 178.487 84.1321 178.622 84.1321C178.757 84.1321 178.867 84.2418 178.867 84.3771C178.867 84.5124 178.757 84.6221 178.622 84.6221Z" fill="#838383"/>
<path d="M175.682 82.6623C175.547 82.6623 175.437 82.5526 175.437 82.4173C175.437 82.282 175.547 82.1723 175.682 82.1723C175.817 82.1723 175.927 82.282 175.927 82.4173C175.927 82.5526 175.817 82.6623 175.682 82.6623Z" fill="#838383"/>
<path d="M176.172 83.6421C176.037 83.6421 175.927 83.5324 175.927 83.3971C175.927 83.2618 176.037 83.1521 176.172 83.1521C176.307 83.1521 176.417 83.2618 176.417 83.3971C176.417 83.5324 176.307 83.6421 176.172 83.6421Z" fill="#838383"/>
<path d="M178.132 83.6421C177.997 83.6421 177.887 83.5324 177.887 83.3971C177.887 83.2618 177.997 83.1521 178.132 83.1521C178.267 83.1521 178.377 83.2618 178.377 83.3971C178.377 83.5324 178.267 83.6421 178.132 83.6421Z" fill="#838383"/>
<path d="M44.3795 48.8567C44.2442 48.8567 44.1345 48.747 44.1345 48.6117C44.1345 48.4764 44.2442 48.3667 44.3795 48.3667C44.5148 48.3667 44.6245 48.4764 44.6245 48.6117C44.6245 48.747 44.5148 48.8567 44.3795 48.8567Z" fill="#838383"/>
<path d="M40.9499 47.3869C40.8146 47.3869 40.7049 47.2772 40.7049 47.1419C40.7049 47.0066 40.8146 46.8969 40.9499 46.8969C41.0852 46.8969 41.1949 47.0066 41.1949 47.1419C41.1949 47.2772 41.0852 47.3869 40.9499 47.3869Z" fill="#838383"/>
<path d="M41.9298 48.8567C41.7945 48.8567 41.6848 48.747 41.6848 48.6117C41.6848 48.4764 41.7945 48.3667 41.9298 48.3667C42.0651 48.3667 42.1747 48.4764 42.1747 48.6117C42.1747 48.747 42.0651 48.8567 41.9298 48.8567Z" fill="#838383"/>
<path d="M38.0104 47.3869C37.8751 47.3869 37.7654 47.2772 37.7654 47.1419C37.7654 47.0066 37.8751 46.8969 38.0104 46.8969C38.1457 46.8969 38.2554 47.0066 38.2554 47.1419C38.2554 47.2772 38.1457 47.3869 38.0104 47.3869Z" fill="#838383"/>
<path d="M35.0705 45.427C34.9352 45.427 34.8256 45.3173 34.8256 45.182C34.8256 45.0467 34.9352 44.937 35.0705 44.937C35.2058 44.937 35.3155 45.0467 35.3155 45.182C35.3155 45.3173 35.2058 45.427 35.0705 45.427Z" fill="#838383"/>
<path d="M36.0509 47.3869C35.9156 47.3869 35.806 47.2772 35.806 47.1419C35.806 47.0066 35.9156 46.8969 36.0509 46.8969C36.1862 46.8969 36.2959 47.0066 36.2959 47.1419C36.2959 47.2772 36.1862 47.3869 36.0509 47.3869Z" fill="#838383"/>
<path d="M37.5207 46.407C37.3854 46.407 37.2758 46.2973 37.2758 46.162C37.2758 46.0267 37.3854 45.917 37.5207 45.917C37.656 45.917 37.7657 46.0267 37.7657 46.162C37.7657 46.2973 37.656 46.407 37.5207 46.407Z" fill="#838383"/>
<path d="M23.8021 42.4873C23.9374 42.4873 24.0471 42.597 24.0471 42.7323C24.0471 42.8676 23.9374 42.9773 23.8021 42.9773C23.6668 42.9773 23.5571 42.8676 23.5571 42.7323C23.5571 42.597 23.6668 42.4873 23.8021 42.4873Z" fill="#838383"/>
<path d="M27.2318 43.9573C27.3671 43.9573 27.4768 44.067 27.4768 44.2023C27.4768 44.3376 27.3671 44.4473 27.2318 44.4473C27.0965 44.4473 26.9868 44.3376 26.9868 44.2023C26.9868 44.067 27.0965 43.9573 27.2318 43.9573Z" fill="#838383"/>
<path d="M26.2518 42.4873C26.3871 42.4873 26.4968 42.597 26.4968 42.7323C26.4968 42.8676 26.3871 42.9773 26.2518 42.9773C26.1165 42.9773 26.0068 42.8676 26.0068 42.7323C26.0068 42.597 26.1165 42.4873 26.2518 42.4873Z" fill="#838383"/>
<path d="M30.1712 43.9573C30.3065 43.9573 30.4162 44.067 30.4162 44.2023C30.4162 44.3376 30.3065 44.4473 30.1712 44.4473C30.0359 44.4473 29.9262 44.3376 29.9262 44.2023C29.9262 44.067 30.0359 43.9573 30.1712 43.9573Z" fill="#838383"/>
<path d="M33.1112 45.917C33.2465 45.917 33.3561 46.0267 33.3561 46.162C33.3561 46.2973 33.2465 46.407 33.1112 46.407C32.9759 46.407 32.8662 46.2973 32.8662 46.162C32.8662 46.0267 32.9759 45.917 33.1112 45.917Z" fill="#838383"/>
<path d="M32.1312 43.9573C32.2665 43.9573 32.3762 44.067 32.3762 44.2023C32.3762 44.3376 32.2665 44.4473 32.1312 44.4473C31.9959 44.4473 31.8862 44.3376 31.8862 44.2023C31.8862 44.067 31.9959 43.9573 32.1312 43.9573Z" fill="#838383"/>
<path d="M30.661 44.937C30.7963 44.937 30.906 45.0467 30.906 45.182C30.906 45.3173 30.7963 45.427 30.661 45.427C30.5257 45.427 30.416 45.3173 30.416 45.182C30.416 45.0467 30.5257 44.937 30.661 44.937Z" fill="#838383"/>
<path d="M13.0238 39.5479C13.1591 39.5479 13.2687 39.6576 13.2687 39.7929C13.2687 39.9282 13.1591 40.0379 13.0238 40.0379C12.8885 40.0379 12.7788 39.9282 12.7788 39.7929C12.7788 39.6576 12.8885 39.5479 13.0238 39.5479Z" fill="#838383"/>
<path d="M16.4535 41.0176C16.5888 41.0176 16.6984 41.1273 16.6984 41.2626C16.6984 41.3979 16.5888 41.5076 16.4535 41.5076C16.3182 41.5076 16.2085 41.3979 16.2085 41.2626C16.2085 41.1273 16.3182 41.0176 16.4535 41.0176Z" fill="#838383"/>
<path d="M15.4735 39.5479C15.6088 39.5479 15.7185 39.6576 15.7185 39.7929C15.7185 39.9282 15.6088 40.0379 15.4735 40.0379C15.3382 40.0379 15.2285 39.9282 15.2285 39.7929C15.2285 39.6576 15.3382 39.5479 15.4735 39.5479Z" fill="#838383"/>
<path d="M11.5541 39.5479C11.6893 39.5479 11.799 39.6576 11.799 39.7929C11.799 39.9282 11.6893 40.0379 11.5541 40.0379C11.4188 40.0379 11.3091 39.9282 11.3091 39.7929C11.3091 39.6576 11.4188 39.5479 11.5541 39.5479Z" fill="#838383"/>
<path d="M19.3929 41.0176C19.5282 41.0176 19.6379 41.1273 19.6379 41.2626C19.6379 41.3979 19.5282 41.5076 19.3929 41.5076C19.2576 41.5076 19.1479 41.3979 19.1479 41.2626C19.1479 41.1273 19.2576 41.0176 19.3929 41.0176Z" fill="#838383"/>
<path d="M22.3329 42.9773C22.4682 42.9773 22.5779 43.087 22.5779 43.2223C22.5779 43.3576 22.4682 43.4673 22.3329 43.4673C22.1976 43.4673 22.0879 43.3576 22.0879 43.2223C22.0879 43.087 22.1976 42.9773 22.3329 42.9773Z" fill="#838383"/>
<path d="M21.8426 41.9976C21.9779 41.9976 22.0876 42.1073 22.0876 42.2426C22.0876 42.3779 21.9779 42.4876 21.8426 42.4876C21.7073 42.4876 21.5976 42.3779 21.5976 42.2426C21.5976 42.1073 21.7073 41.9976 21.8426 41.9976Z" fill="#838383"/>
<path d="M19.8827 41.9976C20.018 41.9976 20.1277 42.1073 20.1277 42.2426C20.1277 42.3779 20.018 42.4876 19.8827 42.4876C19.7474 42.4876 19.6377 42.3779 19.6377 42.2426C19.6377 42.1073 19.7474 41.9976 19.8827 41.9976Z" fill="#838383"/>
<path d="M119.34 67.4742C119.475 67.4742 119.585 67.5839 119.585 67.7192C119.585 67.8545 119.475 67.9642 119.34 67.9642C119.205 67.9642 119.095 67.8545 119.095 67.7192C119.095 67.5839 119.205 67.4742 119.34 67.4742Z" fill="#838383"/>
<path d="M122.769 68.9439C122.904 68.9439 123.014 69.0536 123.014 69.1889C123.014 69.3242 122.904 69.4339 122.769 69.4339C122.634 69.4339 122.524 69.3242 122.524 69.1889C122.524 69.0536 122.634 68.9439 122.769 68.9439Z" fill="#838383"/>
<path d="M121.789 67.4742C121.924 67.4742 122.034 67.5839 122.034 67.7192C122.034 67.8545 121.924 67.9642 121.789 67.9642C121.654 67.9642 121.544 67.8545 121.544 67.7192C121.544 67.5839 121.654 67.4742 121.789 67.4742Z" fill="#838383"/>
<path d="M125.709 68.9439C125.844 68.9439 125.954 69.0536 125.954 69.1889C125.954 69.3242 125.844 69.4339 125.709 69.4339C125.574 69.4339 125.464 69.3242 125.464 69.1889C125.464 69.0536 125.574 68.9439 125.709 68.9439Z" fill="#838383"/>
<path d="M128.648 70.9036C128.783 70.9036 128.893 71.0133 128.893 71.1486C128.893 71.2839 128.783 71.3936 128.648 71.3936C128.513 71.3936 128.403 71.2839 128.403 71.1486C128.403 71.0133 128.513 70.9036 128.648 70.9036Z" fill="#838383"/>
<path d="M127.669 68.9439C127.804 68.9439 127.914 69.0536 127.914 69.1889C127.914 69.3242 127.804 69.4339 127.669 69.4339C127.534 69.4339 127.424 69.3242 127.424 69.1889C127.424 69.0536 127.534 68.9439 127.669 68.9439Z" fill="#838383"/>
<path d="M126.199 69.9239C126.334 69.9239 126.444 70.0336 126.444 70.1689C126.444 70.3042 126.334 70.4139 126.199 70.4139C126.064 70.4139 125.954 70.3042 125.954 70.1689C125.954 70.0336 126.064 69.9239 126.199 69.9239Z" fill="#838383"/>
<path d="M139.917 73.8435C139.782 73.8435 139.672 73.7338 139.672 73.5985C139.672 73.4632 139.782 73.3535 139.917 73.3535C140.052 73.3535 140.162 73.4632 140.162 73.5985C140.162 73.7338 140.052 73.8435 139.917 73.8435Z" fill="#838383"/>
<path d="M136.487 72.3735C136.352 72.3735 136.242 72.2638 136.242 72.1285C136.242 71.9932 136.352 71.8835 136.487 71.8835C136.622 71.8835 136.732 71.9932 136.732 72.1285C136.732 72.2638 136.622 72.3735 136.487 72.3735Z" fill="#838383"/>
<path d="M137.467 73.8435C137.332 73.8435 137.222 73.7338 137.222 73.5985C137.222 73.4632 137.332 73.3535 137.467 73.3535C137.602 73.3535 137.712 73.4632 137.712 73.5985C137.712 73.7338 137.602 73.8435 137.467 73.8435Z" fill="#838383"/>
<path d="M133.548 72.3735C133.413 72.3735 133.303 72.2638 133.303 72.1285C133.303 71.9932 133.413 71.8835 133.548 71.8835C133.683 71.8835 133.793 71.9932 133.793 72.1285C133.793 72.2638 133.683 72.3735 133.548 72.3735Z" fill="#838383"/>
<path d="M130.609 70.4138C130.474 70.4138 130.364 70.3041 130.364 70.1688C130.364 70.0335 130.474 69.9238 130.609 69.9238C130.744 69.9238 130.854 70.0335 130.854 70.1688C130.854 70.3041 130.744 70.4138 130.609 70.4138Z" fill="#838383"/>
<path d="M131.588 72.3735C131.453 72.3735 131.343 72.2638 131.343 72.1285C131.343 71.9932 131.453 71.8835 131.588 71.8835C131.723 71.8835 131.833 71.9932 131.833 72.1285C131.833 72.2638 131.723 72.3735 131.588 72.3735Z" fill="#838383"/>
<path d="M133.058 71.3938C132.923 71.3938 132.813 71.2841 132.813 71.1488C132.813 71.0135 132.923 70.9038 133.058 70.9038C133.193 70.9038 133.303 71.0135 133.303 71.1488C133.303 71.2841 133.193 71.3938 133.058 71.3938Z" fill="#838383"/>
<path d="M150.695 76.783C150.56 76.783 150.45 76.6733 150.45 76.538C150.45 76.4027 150.56 76.293 150.695 76.293C150.83 76.293 150.94 76.4027 150.94 76.538C150.94 76.6733 150.83 76.783 150.695 76.783Z" fill="#838383"/>
<path d="M147.266 75.3132C147.131 75.3132 147.021 75.2035 147.021 75.0682C147.021 74.9329 147.131 74.8232 147.266 74.8232C147.401 74.8232 147.511 74.9329 147.511 75.0682C147.511 75.2035 147.401 75.3132 147.266 75.3132Z" fill="#838383"/>
<path d="M148.245 76.783C148.11 76.783 148 76.6733 148 76.538C148 76.4027 148.11 76.293 148.245 76.293C148.38 76.293 148.49 76.4027 148.49 76.538C148.49 76.6733 148.38 76.783 148.245 76.783Z" fill="#838383"/>
<path d="M152.165 76.783C152.03 76.783 151.92 76.6733 151.92 76.538C151.92 76.4027 152.03 76.293 152.165 76.293C152.3 76.293 152.41 76.4027 152.41 76.538C152.41 76.6733 152.3 76.783 152.165 76.783Z" fill="#838383"/>
<path d="M144.326 75.3132C144.191 75.3132 144.081 75.2035 144.081 75.0682C144.081 74.9329 144.191 74.8232 144.326 74.8232C144.461 74.8232 144.571 74.9329 144.571 75.0682C144.571 75.2035 144.461 75.3132 144.326 75.3132Z" fill="#838383"/>
<path d="M141.387 73.3535C141.252 73.3535 141.142 73.2438 141.142 73.1085C141.142 72.9732 141.252 72.8635 141.387 72.8635C141.522 72.8635 141.632 72.9732 141.632 73.1085C141.632 73.2438 141.522 73.3535 141.387 73.3535Z" fill="#838383"/>
<path d="M141.876 74.3332C141.741 74.3332 141.631 74.2235 141.631 74.0882C141.631 73.9529 141.741 73.8432 141.876 73.8432C142.011 73.8432 142.121 73.9529 142.121 74.0882C142.121 74.2235 142.011 74.3332 141.876 74.3332Z" fill="#838383"/>
<path d="M143.836 74.3332C143.701 74.3332 143.591 74.2235 143.591 74.0882C143.591 73.9529 143.701 73.8432 143.836 73.8432C143.971 73.8432 144.081 73.9529 144.081 74.0882C144.081 74.2235 143.971 74.3332 143.836 74.3332Z" fill="#838383"/>
<path d="M78.675 58.1655C78.5397 58.1655 78.43 58.0558 78.43 57.9205C78.43 57.7852 78.5397 57.6755 78.675 57.6755C78.8103 57.6755 78.92 57.7852 78.92 57.9205C78.92 58.0558 78.8103 58.1655 78.675 58.1655Z" fill="#838383"/>
<path d="M75.2453 56.6955C75.11 56.6955 75.0003 56.5858 75.0003 56.4505C75.0003 56.3152 75.11 56.2055 75.2453 56.2055C75.3806 56.2055 75.4902 56.3152 75.4902 56.4505C75.4902 56.5858 75.3806 56.6955 75.2453 56.6955Z" fill="#838383"/>
<path d="M76.2252 58.1655C76.0899 58.1655 75.9802 58.0558 75.9802 57.9205C75.9802 57.7852 76.0899 57.6755 76.2252 57.6755C76.3605 57.6755 76.4702 57.7852 76.4702 57.9205C76.4702 58.0558 76.3605 58.1655 76.2252 58.1655Z" fill="#838383"/>
<path d="M72.3058 56.6955C72.1705 56.6955 72.0608 56.5858 72.0608 56.4505C72.0608 56.3152 72.1705 56.2055 72.3058 56.2055C72.4411 56.2055 72.5508 56.3152 72.5508 56.4505C72.5508 56.5858 72.4411 56.6955 72.3058 56.6955Z" fill="#838383"/>
<path d="M69.3664 54.7358C69.2311 54.7358 69.1215 54.6261 69.1215 54.4908C69.1215 54.3555 69.2311 54.2458 69.3664 54.2458C69.5017 54.2458 69.6114 54.3555 69.6114 54.4908C69.6114 54.6261 69.5017 54.7358 69.3664 54.7358Z" fill="#838383"/>
<path d="M70.3459 56.6955C70.2106 56.6955 70.1009 56.5858 70.1009 56.4505C70.1009 56.3152 70.2106 56.2055 70.3459 56.2055C70.4812 56.2055 70.5909 56.3152 70.5909 56.4505C70.5909 56.5858 70.4812 56.6955 70.3459 56.6955Z" fill="#838383"/>
<path d="M71.8156 55.7158C71.6803 55.7158 71.5706 55.6061 71.5706 55.4708C71.5706 55.3355 71.6803 55.2258 71.8156 55.2258C71.9509 55.2258 72.0605 55.3355 72.0605 55.4708C72.0605 55.6061 71.9509 55.7158 71.8156 55.7158Z" fill="#838383"/>
<path d="M58.0975 51.7962C58.2328 51.7962 58.3425 51.9059 58.3425 52.0412C58.3425 52.1765 58.2328 52.2862 58.0975 52.2862C57.9622 52.2862 57.8525 52.1765 57.8525 52.0412C57.8525 51.9059 57.9622 51.7962 58.0975 51.7962Z" fill="#838383"/>
<path d="M61.5272 53.2659C61.6625 53.2659 61.7722 53.3756 61.7722 53.5109C61.7722 53.6462 61.6625 53.7559 61.5272 53.7559C61.3919 53.7559 61.2822 53.6462 61.2822 53.5109C61.2822 53.3756 61.3919 53.2659 61.5272 53.2659Z" fill="#838383"/>
<path d="M60.5472 51.7962C60.6825 51.7962 60.7922 51.9059 60.7922 52.0412C60.7922 52.1765 60.6825 52.2862 60.5472 52.2862C60.4119 52.2862 60.3022 52.1765 60.3022 52.0412C60.3022 51.9059 60.4119 51.7962 60.5472 51.7962Z" fill="#838383"/>
<path d="M64.4666 53.2659C64.6019 53.2659 64.7116 53.3756 64.7116 53.5109C64.7116 53.6462 64.6019 53.7559 64.4666 53.7559C64.3313 53.7559 64.2216 53.6462 64.2216 53.5109C64.2216 53.3756 64.3313 53.2659 64.4666 53.2659Z" fill="#838383"/>
<path d="M67.4066 55.2256C67.5419 55.2256 67.6516 55.3353 67.6516 55.4706C67.6516 55.6059 67.5419 55.7156 67.4066 55.7156C67.2713 55.7156 67.1616 55.6059 67.1616 55.4706C67.1616 55.3353 67.2713 55.2256 67.4066 55.2256Z" fill="#838383"/>
<path d="M66.4266 53.2659C66.5619 53.2659 66.6716 53.3756 66.6716 53.5109C66.6716 53.6462 66.5619 53.7559 66.4266 53.7559C66.2913 53.7559 66.1816 53.6462 66.1816 53.5109C66.1816 53.3756 66.2913 53.2659 66.4266 53.2659Z" fill="#838383"/>
<path d="M64.9569 54.2459C65.0922 54.2459 65.2019 54.3556 65.2019 54.4909C65.2019 54.6262 65.0922 54.7359 64.9569 54.7359C64.8216 54.7359 64.7119 54.6262 64.7119 54.4909C64.7119 54.3556 64.8216 54.2459 64.9569 54.2459Z" fill="#838383"/>
<path d="M47.3192 48.8565C47.4545 48.8565 47.5642 48.9662 47.5642 49.1015C47.5642 49.2368 47.4545 49.3465 47.3192 49.3465C47.1839 49.3465 47.0742 49.2368 47.0742 49.1015C47.0742 48.9662 47.1839 48.8565 47.3192 48.8565Z" fill="#838383"/>
<path d="M50.7489 50.3264C50.8842 50.3264 50.9938 50.4361 50.9938 50.5714C50.9938 50.7067 50.8842 50.8164 50.7489 50.8164C50.6136 50.8164 50.5039 50.7067 50.5039 50.5714C50.5039 50.4361 50.6136 50.3264 50.7489 50.3264Z" fill="#838383"/>
<path d="M49.7689 48.8565C49.9042 48.8565 50.0139 48.9662 50.0139 49.1015C50.0139 49.2368 49.9042 49.3465 49.7689 49.3465C49.6336 49.3465 49.5239 49.2368 49.5239 49.1015C49.5239 48.9662 49.6336 48.8565 49.7689 48.8565Z" fill="#838383"/>
<path d="M45.8495 48.8565C45.9848 48.8565 46.0945 48.9662 46.0945 49.1015C46.0945 49.2368 45.9848 49.3465 45.8495 49.3465C45.7142 49.3465 45.6046 49.2368 45.6046 49.1015C45.6046 48.9662 45.7142 48.8565 45.8495 48.8565Z" fill="#838383"/>
<path d="M53.6883 50.3264C53.8236 50.3264 53.9333 50.4361 53.9333 50.5714C53.9333 50.7067 53.8236 50.8164 53.6883 50.8164C53.553 50.8164 53.4434 50.7067 53.4434 50.5714C53.4434 50.4361 53.553 50.3264 53.6883 50.3264Z" fill="#838383"/>
<path d="M56.6283 52.2862C56.7636 52.2862 56.8732 52.3959 56.8732 52.5312C56.8732 52.6665 56.7636 52.7762 56.6283 52.7762C56.493 52.7762 56.3833 52.6665 56.3833 52.5312C56.3833 52.3959 56.493 52.2862 56.6283 52.2862Z" fill="#838383"/>
<path d="M56.138 51.3062C56.2733 51.3062 56.3829 51.4159 56.3829 51.5512C56.3829 51.6865 56.2733 51.7962 56.138 51.7962C56.0027 51.7962 55.893 51.6865 55.893 51.5512C55.893 51.4159 56.0027 51.3062 56.138 51.3062Z" fill="#838383"/>
<path d="M54.1786 51.3062C54.3139 51.3062 54.4236 51.4159 54.4236 51.5512C54.4236 51.6865 54.3139 51.7962 54.1786 51.7962C54.0433 51.7962 53.9337 51.6865 53.9337 51.5512C53.9337 51.4159 54.0433 51.3062 54.1786 51.3062Z" fill="#838383"/>
<path d="M91.4129 60.125C91.5482 60.125 91.6578 60.2347 91.6578 60.37C91.6578 60.5053 91.5482 60.615 91.4129 60.615C91.2776 60.615 91.1679 60.5053 91.1679 60.37C91.1679 60.2347 91.2776 60.125 91.4129 60.125Z" fill="#838383"/>
<path d="M94.8426 61.595C94.9779 61.595 95.0876 61.7047 95.0876 61.84C95.0876 61.9753 94.9779 62.085 94.8426 62.085C94.7073 62.085 94.5977 61.9753 94.5977 61.84C94.5977 61.7047 94.7073 61.595 94.8426 61.595Z" fill="#838383"/>
<path d="M93.8626 60.125C93.9979 60.125 94.1076 60.2347 94.1076 60.37C94.1076 60.5053 93.9979 60.615 93.8626 60.615C93.7273 60.615 93.6176 60.5053 93.6176 60.37C93.6176 60.2347 93.7273 60.125 93.8626 60.125Z" fill="#838383"/>
<path d="M97.7821 61.595C97.9174 61.595 98.027 61.7047 98.027 61.84C98.027 61.9753 97.9174 62.085 97.7821 62.085C97.6468 62.085 97.5371 61.9753 97.5371 61.84C97.5371 61.7047 97.6468 61.595 97.7821 61.595Z" fill="#838383"/>
<path d="M100.722 63.5547C100.857 63.5547 100.966 63.6644 100.966 63.7997C100.966 63.935 100.857 64.0447 100.722 64.0447C100.586 64.0447 100.477 63.935 100.477 63.7997C100.477 63.6644 100.586 63.5547 100.722 63.5547Z" fill="#838383"/>
<path d="M99.742 61.595C99.8773 61.595 99.9869 61.7047 99.9869 61.84C99.9869 61.9753 99.8773 62.085 99.742 62.085C99.6067 62.085 99.497 61.9753 99.497 61.84C99.497 61.7047 99.6067 61.595 99.742 61.595Z" fill="#838383"/>
<path d="M98.2723 62.5747C98.4076 62.5747 98.5173 62.6844 98.5173 62.8197C98.5173 62.955 98.4076 63.0647 98.2723 63.0647C98.137 63.0647 98.0273 62.955 98.0273 62.8197C98.0273 62.6844 98.137 62.5747 98.2723 62.5747Z" fill="#838383"/>
<path d="M111.99 66.4944C111.855 66.4944 111.745 66.3847 111.745 66.2494C111.745 66.1141 111.855 66.0044 111.99 66.0044C112.125 66.0044 112.235 66.1141 112.235 66.2494C112.235 66.3847 112.125 66.4944 111.99 66.4944Z" fill="#838383"/>
<path d="M108.561 65.0247C108.425 65.0247 108.316 64.915 108.316 64.7797C108.316 64.6444 108.425 64.5347 108.561 64.5347C108.696 64.5347 108.806 64.6444 108.806 64.7797C108.806 64.915 108.696 65.0247 108.561 65.0247Z" fill="#838383"/>
<path d="M109.541 66.4944C109.406 66.4944 109.296 66.3847 109.296 66.2494C109.296 66.1141 109.406 66.0044 109.541 66.0044C109.676 66.0044 109.786 66.1141 109.786 66.2494C109.786 66.3847 109.676 66.4944 109.541 66.4944Z" fill="#838383"/>
<path d="M105.621 65.0247C105.486 65.0247 105.376 64.915 105.376 64.7797C105.376 64.6444 105.486 64.5347 105.621 64.5347C105.756 64.5347 105.866 64.6444 105.866 64.7797C105.866 64.915 105.756 65.0247 105.621 65.0247Z" fill="#838383"/>
<path d="M102.682 63.0647C102.546 63.0647 102.437 62.955 102.437 62.8197C102.437 62.6844 102.546 62.5747 102.682 62.5747C102.817 62.5747 102.927 62.6844 102.927 62.8197C102.927 62.955 102.817 63.0647 102.682 63.0647Z" fill="#838383"/>
<path d="M103.661 65.0247C103.526 65.0247 103.416 64.915 103.416 64.7797C103.416 64.6444 103.526 64.5347 103.661 64.5347C103.797 64.5347 103.906 64.6444 103.906 64.7797C103.906 64.915 103.797 65.0247 103.661 65.0247Z" fill="#838383"/>
<path d="M105.131 64.0447C104.996 64.0447 104.886 63.935 104.886 63.7997C104.886 63.6644 104.996 63.5547 105.131 63.5547C105.266 63.5547 105.376 63.6644 105.376 63.7997C105.376 63.935 105.266 64.0447 105.131 64.0447Z" fill="#838383"/>
<path d="M122.769 69.4341C122.634 69.4341 122.524 69.3244 122.524 69.1891C122.524 69.0538 122.634 68.9441 122.769 68.9441C122.904 68.9441 123.014 69.0538 123.014 69.1891C123.014 69.3244 122.904 69.4341 122.769 69.4341Z" fill="#838383"/>
<path d="M119.34 67.9641C119.205 67.9641 119.095 67.8544 119.095 67.7191C119.095 67.5838 119.205 67.4741 119.34 67.4741C119.475 67.4741 119.585 67.5838 119.585 67.7191C119.585 67.8544 119.475 67.9641 119.34 67.9641Z" fill="#838383"/>
<path d="M120.319 69.4341C120.184 69.4341 120.074 69.3244 120.074 69.1891C120.074 69.0538 120.184 68.9441 120.319 68.9441C120.454 68.9441 120.564 69.0538 120.564 69.1891C120.564 69.3244 120.454 69.4341 120.319 69.4341Z" fill="#838383"/>
<path d="M124.239 69.4341C124.104 69.4341 123.994 69.3244 123.994 69.1891C123.994 69.0538 124.104 68.9441 124.239 68.9441C124.374 68.9441 124.484 69.0538 124.484 69.1891C124.484 69.3244 124.374 69.4341 124.239 69.4341Z" fill="#838383"/>
<path d="M116.4 67.9641C116.265 67.9641 116.155 67.8544 116.155 67.7191C116.155 67.5838 116.265 67.4741 116.4 67.4741C116.535 67.4741 116.645 67.5838 116.645 67.7191C116.645 67.8544 116.535 67.9641 116.4 67.9641Z" fill="#838383"/>
<path d="M113.46 66.0044C113.325 66.0044 113.215 65.8947 113.215 65.7594C113.215 65.6241 113.325 65.5144 113.46 65.5144C113.595 65.5144 113.705 65.6241 113.705 65.7594C113.705 65.8947 113.595 66.0044 113.46 66.0044Z" fill="#838383"/>
<path d="M113.95 66.9844C113.815 66.9844 113.705 66.8747 113.705 66.7394C113.705 66.6041 113.815 66.4944 113.95 66.4944C114.085 66.4944 114.195 66.6041 114.195 66.7394C114.195 66.8747 114.085 66.9844 113.95 66.9844Z" fill="#838383"/>
<path d="M115.91 66.9844C115.775 66.9844 115.665 66.8747 115.665 66.7394C115.665 66.6041 115.775 66.4944 115.91 66.4944C116.045 66.4944 116.155 66.6041 116.155 66.7394C116.155 66.8747 116.045 66.9844 115.91 66.9844Z" fill="#838383"/>
<path d="M106.601 65.5144C106.466 65.5144 106.356 65.4047 106.356 65.2694C106.356 65.1341 106.466 65.0244 106.601 65.0244C106.737 65.0244 106.846 65.1341 106.846 65.2694C106.846 65.4047 106.737 65.5144 106.601 65.5144Z" fill="#838383"/>
<path d="M103.171 64.0447C103.036 64.0447 102.927 63.935 102.927 63.7997C102.927 63.6644 103.036 63.5547 103.171 63.5547C103.307 63.5547 103.416 63.6644 103.416 63.7997C103.416 63.935 103.307 64.0447 103.171 64.0447Z" fill="#838383"/>
<path d="M104.152 65.5144C104.016 65.5144 103.907 65.4047 103.907 65.2694C103.907 65.1341 104.016 65.0244 104.152 65.0244C104.287 65.0244 104.396 65.1341 104.396 65.2694C104.396 65.4047 104.287 65.5144 104.152 65.5144Z" fill="#838383"/>
<path d="M100.232 64.0447C100.097 64.0447 99.9871 63.935 99.9871 63.7997C99.9871 63.6644 100.097 63.5547 100.232 63.5547C100.367 63.5547 100.477 63.6644 100.477 63.7997C100.477 63.935 100.367 64.0447 100.232 64.0447Z" fill="#838383"/>
<path d="M97.2921 62.0849C97.1568 62.0849 97.0471 61.9752 97.0471 61.8399C97.0471 61.7046 97.1568 61.5949 97.2921 61.5949C97.4274 61.5949 97.537 61.7046 97.537 61.8399C97.537 61.9752 97.4274 62.0849 97.2921 62.0849Z" fill="#838383"/>
<path d="M98.2726 64.0447C98.1373 64.0447 98.0276 63.935 98.0276 63.7997C98.0276 63.6644 98.1373 63.5547 98.2726 63.5547C98.4079 63.5547 98.5176 63.6644 98.5176 63.7997C98.5176 63.935 98.4079 64.0447 98.2726 64.0447Z" fill="#838383"/>
<path d="M99.7423 63.0649C99.607 63.0649 99.4973 62.9552 99.4973 62.8199C99.4973 62.6846 99.607 62.5749 99.7423 62.5749C99.8776 62.5749 99.9872 62.6846 99.9872 62.8199C99.9872 62.9552 99.8776 63.0649 99.7423 63.0649Z" fill="#838383"/>
<path d="M86.0238 59.1453C86.1591 59.1453 86.2687 59.255 86.2687 59.3903C86.2687 59.5256 86.1591 59.6353 86.0238 59.6353C85.8885 59.6353 85.7788 59.5256 85.7788 59.3903C85.7788 59.255 85.8885 59.1453 86.0238 59.1453Z" fill="#838383"/>
<path d="M89.4535 60.615C89.5888 60.615 89.6985 60.7247 89.6985 60.86C89.6985 60.9953 89.5888 61.105 89.4535 61.105C89.3182 61.105 89.2086 60.9953 89.2086 60.86C89.2086 60.7247 89.3182 60.615 89.4535 60.615Z" fill="#838383"/>
<path d="M88.4735 59.1453C88.6088 59.1453 88.7185 59.255 88.7185 59.3903C88.7185 59.5256 88.6088 59.6353 88.4735 59.6353C88.3382 59.6353 88.2285 59.5256 88.2285 59.3903C88.2285 59.255 88.3382 59.1453 88.4735 59.1453Z" fill="#838383"/>
<path d="M92.3929 60.615C92.5282 60.615 92.6379 60.7247 92.6379 60.86C92.6379 60.9953 92.5282 61.105 92.3929 61.105C92.2576 61.105 92.1479 60.9953 92.1479 60.86C92.1479 60.7247 92.2576 60.615 92.3929 60.615Z" fill="#838383"/>
<path d="M95.3329 62.5747C95.4682 62.5747 95.5779 62.6844 95.5779 62.8197C95.5779 62.955 95.4682 63.0647 95.3329 63.0647C95.1976 63.0647 95.088 62.955 95.088 62.8197C95.088 62.6844 95.1976 62.5747 95.3329 62.5747Z" fill="#838383"/>
<path d="M94.3529 60.615C94.4882 60.615 94.5978 60.7247 94.5978 60.86C94.5978 60.9953 94.4882 61.105 94.3529 61.105C94.2176 61.105 94.1079 60.9953 94.1079 60.86C94.1079 60.7247 94.2176 60.615 94.3529 60.615Z" fill="#838383"/>
<path d="M92.8827 61.595C93.018 61.595 93.1277 61.7047 93.1277 61.84C93.1277 61.9753 93.018 62.085 92.8827 62.085C92.7474 62.085 92.6378 61.9753 92.6378 61.84C92.6378 61.7047 92.7474 61.595 92.8827 61.595Z" fill="#838383"/>
<path d="M75.245 56.2056C75.3803 56.2056 75.4899 56.3153 75.4899 56.4506C75.4899 56.5859 75.3803 56.6956 75.245 56.6956C75.1097 56.6956 75 56.5859 75 56.4506C75 56.3153 75.1097 56.2056 75.245 56.2056Z" fill="#838383"/>
<path d="M78.6747 57.6753C78.81 57.6753 78.9197 57.785 78.9197 57.9203C78.9197 58.0556 78.81 58.1653 78.6747 58.1653C78.5394 58.1653 78.4297 58.0556 78.4297 57.9203C78.4297 57.785 78.5394 57.6753 78.6747 57.6753Z" fill="#838383"/>
<path d="M77.6952 56.2056C77.8305 56.2056 77.9402 56.3153 77.9402 56.4506C77.9402 56.5859 77.8305 56.6956 77.6952 56.6956C77.5599 56.6956 77.4503 56.5859 77.4503 56.4506C77.4503 56.3153 77.5599 56.2056 77.6952 56.2056Z" fill="#838383"/>
<path d="M73.7752 56.2056C73.9105 56.2056 74.0201 56.3153 74.0201 56.4506C74.0201 56.5859 73.9105 56.6956 73.7752 56.6956C73.6399 56.6956 73.5302 56.5859 73.5302 56.4506C73.5302 56.3153 73.6399 56.2056 73.7752 56.2056Z" fill="#838383"/>
<path d="M81.6141 57.6753C81.7494 57.6753 81.8591 57.785 81.8591 57.9203C81.8591 58.0556 81.7494 58.1653 81.6141 58.1653C81.4788 58.1653 81.3691 58.0556 81.3691 57.9203C81.3691 57.785 81.4788 57.6753 81.6141 57.6753Z" fill="#838383"/>
<path d="M84.554 59.6353C84.6893 59.6353 84.799 59.745 84.799 59.8803C84.799 60.0156 84.6893 60.1253 84.554 60.1253C84.4187 60.1253 84.309 60.0156 84.309 59.8803C84.309 59.745 84.4187 59.6353 84.554 59.6353Z" fill="#838383"/>
<path d="M84.0643 58.6553C84.1996 58.6553 84.3093 58.765 84.3093 58.9003C84.3093 59.0356 84.1996 59.1453 84.0643 59.1453C83.929 59.1453 83.8193 59.0356 83.8193 58.9003C83.8193 58.765 83.929 58.6553 84.0643 58.6553Z" fill="#838383"/>
<path d="M82.1043 58.6553C82.2396 58.6553 82.3492 58.765 82.3492 58.9003C82.3492 59.0356 82.2396 59.1453 82.1043 59.1453C81.969 59.1453 81.8593 59.0356 81.8593 58.9003C81.8593 58.765 81.969 58.6553 82.1043 58.6553Z" fill="#838383"/>
</svg>
