<svg width="367" height="104" viewBox="0 0 367 104" fill="none" xmlns="http://www.w3.org/2000/svg">
<path d="M9.83946 34.4204L2.00049 41.2795L222.962 102.522L365.043 63.8166L357.204 55.9776L121.055 1.59473L9.83946 34.4204Z" fill="white" stroke="#838383" stroke-linecap="round"/>
<path d="M251.133 89.2932L252.358 88.0684" stroke="#838383" stroke-linecap="round"/>
<path d="M240.109 93.9475L241.334 92.7227" stroke="#838383" stroke-linecap="round"/>
<path d="M272.935 83.6589L271.71 84.8838" stroke="#838383" stroke-linecap="round"/>
<path d="M245.253 90.0281L244.029 88.8032" stroke="#838383" stroke-linecap="round"/>
<path d="M235.455 94.4375L234.23 93.2127" stroke="#838383" stroke-linecap="round"/>
<path d="M278.814 82.9241L280.039 84.1489" stroke="#838383" stroke-linecap="round"/>
<path d="M249.173 92.4778V91.4979" stroke="#838383" stroke-linecap="round"/>
<path d="M274.895 80.4744V81.4542" stroke="#838383" stroke-linecap="round"/>
<path d="M258.727 87.3335L259.952 88.5583" stroke="#838383" stroke-linecap="round"/>
<path d="M265.341 85.6187L264.116 84.3938" stroke="#838383" stroke-linecap="round"/>
<path d="M228.596 96.8872L227.371 95.6624" stroke="#838383" stroke-linecap="round"/>
<path d="M314.09 72.3904L312.865 73.6152" stroke="#838383" stroke-linecap="round"/>
<path d="M325.113 67.7361L323.888 68.9609" stroke="#838383" stroke-linecap="round"/>
<path d="M292.288 78.0247L293.512 76.7998" stroke="#838383" stroke-linecap="round"/>
<path d="M319.969 71.6555L321.194 72.8804" stroke="#838383" stroke-linecap="round"/>
<path d="M342.506 61.3669L343.731 62.5918" stroke="#838383" stroke-linecap="round"/>
<path d="M329.768 67.2461L330.993 68.4709" stroke="#838383" stroke-linecap="round"/>
<path d="M286.408 78.7595L285.183 77.5347" stroke="#838383" stroke-linecap="round"/>
<path d="M316.05 69.2058V70.1857" stroke="#838383" stroke-linecap="round"/>
<path d="M290.328 81.2092V80.2294" stroke="#838383" stroke-linecap="round"/>
<path d="M306.496 74.3501L305.271 73.1253" stroke="#838383" stroke-linecap="round"/>
<path d="M299.881 76.0649L301.106 77.2898" stroke="#838383" stroke-linecap="round"/>
<path d="M336.627 64.7964L337.852 66.0212" stroke="#838383" stroke-linecap="round"/>
<path d="M352.305 63.3267L353.53 64.5515" stroke="#838383" stroke-linecap="round"/>
<path d="M353.775 58.9172L355 60.1421" stroke="#838383" stroke-linecap="round"/>
<path d="M223.768 91.726L10.084 34.4203L120.565 1.34961L356.919 55.8221L223.768 91.726Z" fill="white" stroke="#838383" stroke-linecap="round" stroke-linejoin="round"/>
<path d="M17.4336 40.5447L18.6584 41.7695" stroke="#838383" stroke-linecap="round"/>
<path d="M39.2358 46.179L38.011 44.9541" stroke="#838383" stroke-linecap="round"/>
<path d="M11.5542 39.8096L10.3294 41.0344" stroke="#838383" stroke-linecap="round"/>
<path d="M45.1147 46.9138L46.3396 45.689" stroke="#838383" stroke-linecap="round"/>
<path d="M15.4736 37.3601V38.34" stroke="#838383" stroke-linecap="round"/>
<path d="M41.1953 49.3635V48.3837" stroke="#838383" stroke-linecap="round"/>
<path d="M25.0278 42.5044L26.2527 41.2796" stroke="#838383" stroke-linecap="round"/>
<path d="M31.6416 44.2192L30.4168 45.4441" stroke="#838383" stroke-linecap="round"/>
<path d="M132.568 71.9004L133.793 73.1252" stroke="#838383" stroke-linecap="round"/>
<path d="M154.371 77.5347L153.146 76.3098" stroke="#838383" stroke-linecap="round"/>
<path d="M126.689 71.1655L125.464 72.3904" stroke="#838383" stroke-linecap="round"/>
<path d="M160.25 78.2698L161.475 77.0449" stroke="#838383" stroke-linecap="round"/>
<path d="M130.608 68.7158V69.6957" stroke="#838383" stroke-linecap="round"/>
<path d="M156.33 80.7192V79.7394" stroke="#838383" stroke-linecap="round"/>
<path d="M140.162 73.8604L141.387 72.6355" stroke="#838383" stroke-linecap="round"/>
<path d="M146.776 75.575L145.552 76.7998" stroke="#838383" stroke-linecap="round"/>
<path d="M77.9404 57.9373L76.7156 56.7124" stroke="#838383" stroke-linecap="round"/>
<path d="M56.1382 52.303L57.363 53.5278" stroke="#838383" stroke-linecap="round"/>
<path d="M83.8198 58.6721L85.0447 57.4473" stroke="#838383" stroke-linecap="round"/>
<path d="M50.2593 51.5681L49.0344 52.793" stroke="#838383" stroke-linecap="round"/>
<path d="M79.9004 61.1218V60.142" stroke="#838383" stroke-linecap="round"/>
<path d="M54.1787 49.1184V50.0983" stroke="#838383" stroke-linecap="round"/>
<path d="M70.3467 55.9775L69.1218 57.2024" stroke="#838383" stroke-linecap="round"/>
<path d="M63.7324 54.2627L64.9573 53.0379" stroke="#838383" stroke-linecap="round"/>
<path d="M193.076 89.2932L191.851 88.0684" stroke="#838383" stroke-linecap="round"/>
<path d="M204.099 93.9475L202.874 92.7227" stroke="#838383" stroke-linecap="round"/>
<path d="M171.273 83.6589L172.498 84.8838" stroke="#838383" stroke-linecap="round"/>
<path d="M198.955 90.0281L200.179 88.8032" stroke="#838383" stroke-linecap="round"/>
<path d="M208.753 94.4375L209.978 93.2127" stroke="#838383" stroke-linecap="round"/>
<path d="M165.394 82.9241L164.169 84.1489" stroke="#838383" stroke-linecap="round"/>
<path d="M195.035 92.4778V91.4979" stroke="#838383" stroke-linecap="round"/>
<path d="M169.313 80.4744V81.4542" stroke="#838383" stroke-linecap="round"/>
<path d="M185.481 87.3335L184.257 88.5583" stroke="#838383" stroke-linecap="round"/>
<path d="M178.868 85.6187L180.093 84.3938" stroke="#838383" stroke-linecap="round"/>
<path d="M215.613 96.8872L216.838 95.6624" stroke="#838383" stroke-linecap="round"/>
<path d="M115.42 67.7361L116.645 66.5112" stroke="#838383" stroke-linecap="round"/>
<path d="M94.8433 62.1018L96.0681 63.3266" stroke="#838383" stroke-linecap="round"/>
<path d="M122.525 68.4709L123.75 67.2461" stroke="#838383" stroke-linecap="round"/>
<path d="M88.9644 61.3669L87.7395 62.5918" stroke="#838383" stroke-linecap="round"/>
<path d="M118.605 70.9207V69.9408" stroke="#838383" stroke-linecap="round"/>
<path d="M92.8838 58.9172V59.8971" stroke="#838383" stroke-linecap="round"/>
<path d="M109.052 65.7764L107.827 67.0012" stroke="#838383" stroke-linecap="round"/>
<path d="M103.662 64.0615L102.437 62.8367" stroke="#838383" stroke-linecap="round"/>
<path d="M223.696 91.7429L222.961 102.522" stroke="#838383" stroke-linecap="round"/>
</svg>
