<svg width="40" height="40" viewBox="0 0 40 40" fill="none" xmlns="http://www.w3.org/2000/svg">
<g clip-path="url(#clip0)">
<path fill-rule="evenodd" clip-rule="evenodd" d="M38.8286 5.02051H1.17236C0.525176 5.02051 0.000488281 5.5452 0.000488281 6.19238V33.807C0.000488281 34.4542 0.525176 34.9789 1.17236 34.9789H38.8286C39.4758 34.9789 40.0005 34.4542 40.0005 33.807V6.19238C40.0005 5.54512 39.4758 5.02051 38.8286 5.02051ZM27.6098 14.4346C28.2566 14.4346 28.7817 14.9597 28.7817 15.6064C28.7817 16.2532 28.2566 16.7783 27.6098 16.7783C26.963 16.7783 26.4379 16.2532 26.4379 15.6064C26.4379 14.9596 26.963 14.4346 27.6098 14.4346ZM10.0421 19.9996C10.0421 19.3529 10.5672 18.8278 11.214 18.8278C11.8608 18.8278 12.3859 19.3529 12.3859 19.9996C12.3859 20.6464 11.8608 21.1715 11.214 21.1715C10.5672 21.1715 10.0421 20.6464 10.0421 19.9996ZM12.3912 25.5647C11.7444 25.5647 11.2193 25.0396 11.2193 24.3929C11.2193 23.7461 11.7444 23.221 12.3912 23.221C13.038 23.221 13.5631 23.7461 13.5631 24.3929C13.5631 25.0396 13.038 25.5647 12.3912 25.5647ZM12.3912 16.7783C11.7444 16.7783 11.2193 16.2532 11.2193 15.6064C11.2193 14.9597 11.7444 14.4346 12.3912 14.4346C13.038 14.4346 13.5631 14.9597 13.5631 15.6064C13.5631 16.2532 13.038 16.7783 12.3912 16.7783ZM15.6073 28.7808C14.9605 28.7808 14.4354 28.2557 14.4354 27.6089C14.4354 26.9621 14.9605 26.4371 15.6073 26.4371C16.2541 26.4371 16.7792 26.9621 16.7792 27.6089C16.7792 28.2557 16.254 28.7808 15.6073 28.7808ZM15.6073 13.5622C14.9605 13.5622 14.4354 13.0371 14.4354 12.3904C14.4354 11.7436 14.9605 11.2185 15.6073 11.2185C16.2541 11.2185 16.7792 11.7436 16.7792 12.3904C16.7792 13.0371 16.254 13.5622 15.6073 13.5622ZM20.0005 29.958C19.3537 29.958 18.8286 29.4329 18.8286 28.7861C18.8286 28.1394 19.3537 27.6143 20.0005 27.6143C20.6473 27.6143 21.1724 28.1394 21.1724 28.7861C21.1724 29.4329 20.6473 29.958 20.0005 29.958ZM20.0005 12.385C19.3537 12.385 18.8286 11.8599 18.8286 11.2132C18.8286 10.5664 19.3537 10.0413 20.0005 10.0413C20.6473 10.0413 21.1724 10.5664 21.1724 11.2132C21.1724 11.8599 20.6473 12.385 20.0005 12.385ZM24.3937 28.7808C23.7469 28.7808 23.2218 28.2557 23.2218 27.6089C23.2218 26.9621 23.7469 26.4371 24.3937 26.4371C25.0405 26.4371 25.5656 26.9621 25.5656 27.6089C25.5656 28.2557 25.0405 28.7808 24.3937 28.7808ZM24.3937 13.5622C23.7469 13.5622 23.2218 13.0371 23.2218 12.3904C23.2218 11.7436 23.7469 11.2185 24.3937 11.2185C25.0405 11.2185 25.5656 11.7436 25.5656 12.3904C25.5656 13.0371 25.0405 13.5622 24.3937 13.5622ZM27.6098 25.5647C26.963 25.5647 26.4379 25.0396 26.4379 24.3929C26.4379 23.7461 26.963 23.221 27.6098 23.221C28.2566 23.221 28.7817 23.7461 28.7817 24.3929C28.7817 25.0396 28.2566 25.5647 27.6098 25.5647ZM28.787 21.1715C28.1402 21.1715 27.6151 20.6464 27.6151 19.9996C27.6151 19.3529 28.1402 18.8278 28.787 18.8278C29.4338 18.8278 29.9588 19.3529 29.9588 19.9996C29.9588 20.6464 29.4337 21.1715 28.787 21.1715Z" fill="#421DD6"/>
</g>
<defs>
<clipPath id="clip0">
<rect width="40" height="40" fill="white" transform="translate(0.000488281)"/>
</clipPath>
</defs>
</svg>
