<svg width="34" height="29" viewBox="0 0 34 29" fill="none" xmlns="http://www.w3.org/2000/svg">
<path d="M33.5 4.49536C33.1905 4.31779 32.8096 4.31932 32.5016 4.49955L22.645 10.2636V5.35938C22.645 5.00251 22.4541 4.67293 22.1446 4.49536C21.835 4.31779 21.4542 4.31932 21.1461 4.49955L11.2896 10.2636V0.3125H0.000488281V28.0039C0.000488281 28.554 0.446473 29 0.996582 29H33.0044C33.5545 29 34.0005 28.554 34.0005 28.0039V5.35938C34.0005 5.00251 33.8096 4.67293 33.5 4.49536ZM15.2739 21.9941C15.2739 22.5443 14.8279 22.9902 14.2778 22.9902H10.2935C9.74335 22.9902 9.29736 22.5443 9.29736 21.9941V18.0098C9.29736 17.4597 9.74335 17.0137 10.2935 17.0137H14.2778C14.8279 17.0137 15.2739 17.4597 15.2739 18.0098V21.9941ZM26.6294 21.9941C26.6294 22.5443 26.1834 22.9902 25.6333 22.9902H21.6489C21.0988 22.9902 20.6528 22.5443 20.6528 21.9941V18.0098C20.6528 17.4597 21.0988 17.0137 21.6489 17.0137H25.6333C26.1834 17.0137 26.6294 17.4597 26.6294 18.0098V21.9941Z" fill="#421DD6"/>
</svg>
