<svg width="40" height="32" viewBox="0 0 40 32" fill="none" xmlns="http://www.w3.org/2000/svg">
<path d="M31.2908 31.2275H8.71017C7.99759 31.2275 7.41984 30.6497 7.41984 29.9371V26.117C7.41984 24.2971 8.49355 22.6417 10.1553 21.8998C14.9884 19.7417 14.7235 19.8147 15.1001 19.8147H16.6337C17.2276 19.8147 17.7448 20.22 17.8867 20.7967C18.4276 22.9948 21.5732 22.9958 22.1144 20.7967C22.2563 20.2201 22.7735 19.8147 23.3673 19.8147C25.0178 19.8147 25.1026 19.782 25.427 19.9268L29.8457 21.8998C31.5074 22.6417 32.5812 24.2971 32.5812 26.117V29.9371C32.5811 30.6497 32.0034 31.2275 31.2908 31.2275ZM20.032 0.771973C15.6861 0.771973 12.1504 4.30762 12.1504 8.65359C12.1504 12.9996 15.6861 16.5352 20.032 16.5352C24.378 16.5352 27.9136 12.9996 27.9136 8.65359C27.9136 4.30762 24.378 0.771973 20.032 0.771973ZM7.59871 9.2023C4.86234 9.2023 2.63613 11.4285 2.63613 14.165C2.63613 16.9013 4.86234 19.1275 7.59871 19.1275C10.3352 19.1275 12.5614 16.9013 12.5614 14.165C12.5613 11.4285 10.3351 9.2023 7.59871 9.2023ZM32.4023 9.2023C29.6658 9.2023 27.4396 11.4285 27.4396 14.165C27.4396 16.9013 29.6658 19.1275 32.4023 19.1275C35.1386 19.1275 37.3648 16.9013 37.3648 14.165C37.3648 11.4285 35.1386 9.2023 32.4023 9.2023ZM38.1376 21.0231C35.4527 19.8241 35.517 19.8118 35.1497 19.8118C33.2277 19.8118 31.9703 19.7983 31.1198 19.7942C30.2745 19.79 29.9945 20.9237 30.7436 21.3155C31.3569 21.6363 31.7292 21.91 32.1715 22.3925C33.462 23.7942 33.5823 25.2777 33.582 26.5076C33.5819 26.953 33.9428 27.3135 34.3882 27.3135H38.7102C39.4231 27.3135 40.0005 26.7353 40.0005 26.0232V23.8949C40.0005 22.6554 39.269 21.5287 38.1376 21.0231ZM4.85129 19.8118C4.48565 19.8118 4.55759 19.8199 1.86339 21.0231C0.73194 21.5287 0.000488281 22.6554 0.000488281 23.8949V26.0231C0.000488281 26.7352 0.577908 27.3134 1.29081 27.3134H5.61242C6.05807 27.3134 6.4192 26.9525 6.41863 26.5069C6.41718 25.2726 6.53388 23.7997 7.82952 22.3925C8.2696 21.9122 8.64509 21.6362 9.24484 21.3211C9.99234 20.9284 9.71613 19.7979 8.87178 19.7994C8.01621 19.8008 6.75904 19.8118 4.85129 19.8118Z" fill="#421DD6"/>
</svg>
