<svg width="36" height="36" viewBox="0 0 36 36" fill="none" xmlns="http://www.w3.org/2000/svg">
<g clip-path="url(#clip0)">
<path d="M35.4361 16.9361C35.3998 16.9118 35.3623 16.8893 35.3237 16.8688L32.769 15.4932L18.6017 22.994C18.2254 23.1933 17.7747 23.1933 17.3983 22.994L3.23112 15.4932L0.676374 16.8688C0.055466 17.1984 -0.180784 17.969 0.148806 18.5899C0.169297 18.6284 0.191746 18.666 0.216079 18.7023L18 28.1175L35.784 18.7023C36.1756 18.1185 36.0199 17.3278 35.4361 16.9361Z" fill="#421DD6"/>
<path d="M35.8449 25.1039C35.7258 24.8833 35.5447 24.7022 35.3242 24.5832L32.7695 23.2075L18.6022 30.7084C18.2258 30.9077 17.7752 30.9077 17.3988 30.7084L3.23148 23.2075L0.676729 24.5832C0.0518267 24.9205 -0.181259 25.7004 0.156015 26.3253C0.275119 26.546 0.456148 26.727 0.676729 26.846L17.391 35.8461C17.7715 36.0509 18.2294 36.0509 18.6099 35.8461L35.3242 26.846C35.949 26.5088 36.1822 25.7288 35.8449 25.1039Z" fill="#421DD6"/>
<path d="M35.4361 9.22092C35.3998 9.19659 35.3623 9.17414 35.3237 9.15364L18.6095 0.153626C18.229 -0.0512088 17.7711 -0.0512088 17.3906 0.153626L0.676374 9.15364C0.055466 9.48323 -0.180784 10.2538 0.148806 10.8747C0.169297 10.9132 0.191746 10.9508 0.216079 10.9871L18 20.4023L35.784 10.9871C36.1756 10.4033 36.0199 9.61258 35.4361 9.22092Z" fill="#421DD6"/>
</g>
<defs>
<clipPath id="clip0">
<rect width="36" height="36" fill="white"/>
</clipPath>
</defs>
</svg>
