<svg width="40" height="40" viewBox="0 0 40 40" fill="none" xmlns="http://www.w3.org/2000/svg">
<g clip-path="url(#clip0)">
<path d="M40.0005 25.5522V23.2085H29.6871L22.2067 16.5703C23.0057 15.9249 23.518 14.9381 23.518 13.8335C23.518 12.3047 22.5374 11.0013 21.1724 10.5174V5.06494H18.8286V10.5174C17.4636 11.0013 16.483 12.3047 16.483 13.8335C16.483 14.9381 16.9953 15.9249 17.7942 16.5703L10.3138 23.2085H0.000488281V25.5522H2.34705V32.591H0.000488281V34.9348H40.0005V32.591H37.6539V25.5522H40.0005ZM18.8286 23.2085H13.8449L18.8286 18.7859V23.2085ZM21.1724 18.7859L26.156 23.2085H21.1724V18.7859Z" fill="#421DD6"/>
</g>
<defs>
<clipPath id="clip0">
<rect width="40" height="40" fill="white" transform="translate(0.000488281)"/>
</clipPath>
</defs>
</svg>
