<svg width="34" height="34" viewBox="0 0 34 34" fill="none" xmlns="http://www.w3.org/2000/svg">
<path d="M31.1951 4.62539C29.8545 2.34633 28.5352 0.494859 28.4797 0.417098C28.2928 0.155324 27.9909 0 27.6692 0C27.3475 0 27.0457 0.155324 26.8587 0.417098C26.8032 0.494793 25.4839 2.34633 24.1433 4.62539C23.9512 4.95191 23.7697 5.26861 23.5977 5.57653C24.0288 6.27307 24.4704 7.00187 24.9102 7.74968C27.2181 11.6731 28.8178 14.9537 29.7329 17.6504C32.2135 16.7926 33.9999 14.4338 33.9999 11.6654C33.9999 10.1367 33.0825 7.83388 31.1951 4.62539Z" fill="#421DD6"/>
<path d="M17.8103 0.417098C17.6233 0.155324 17.3215 0 16.9998 0C16.6781 0 16.3762 0.155324 16.1892 0.417098C16.1623 0.454816 13.4655 4.23957 10.8066 8.75971C7.17552 14.9325 5.33447 19.4998 5.33447 22.3346C5.33441 28.7669 10.5675 34 16.9998 34C23.4321 34 28.6652 28.7669 28.6652 22.3346C28.6652 19.4998 26.8241 14.9325 23.193 8.75971C20.5341 4.23957 17.8372 0.454816 17.8103 0.417098Z" fill="#421DD6"/>
<path d="M8.80348 8.24017C7.89776 6.81383 7.18184 5.80884 7.14126 5.75206C6.95426 5.49029 6.65238 5.33496 6.33071 5.33496C6.00904 5.33496 5.70715 5.49029 5.52015 5.75206C5.46464 5.82975 4.14541 7.6813 2.8048 9.96036C0.917469 13.1688 0 15.4716 0 17.0003C0 19.4122 1.35602 21.5133 3.34561 22.5817C3.31686 20.9673 3.52073 17.3316 8.80348 8.24017Z" fill="#421DD6"/>
</svg>
