<svg width="100" height="100" viewBox="0 0 100 100" fill="none" xmlns="http://www.w3.org/2000/svg">
<path d="M50 100C77.6142 100 100 77.6142 100 50C100 22.3858 77.6142 0 50 0C22.3858 0 0 22.3858 0 50C0 77.6142 22.3858 100 50 100Z" fill="#32BA7C"/>
<path d="M37.2239 72.5553L62.9337 98.265C84.2271 92.5868 100 73.1862 100 50.0001C100 49.5269 100 49.0537 100 48.5805L79.8107 29.9685L37.2239 72.5553Z" fill="#0AA06E"/>
<path d="M51.2619 61.1989C53.4701 63.4071 53.4701 67.1926 51.2619 69.4008L46.6878 73.975C44.4796 76.1832 40.6941 76.1832 38.4859 73.975L18.4543 53.7857C16.2461 51.5775 16.2461 47.792 18.4543 45.5838L23.0284 41.0097C25.2366 38.8015 29.0221 38.8015 31.2303 41.0097L51.2619 61.1989Z" fill="white"/>
<path d="M68.7698 26.3407C70.978 24.1325 74.7635 24.1325 76.9717 26.3407L81.5458 30.9149C83.754 33.1231 83.754 36.9085 81.5458 39.1167L46.8455 73.6593C44.6373 75.8675 40.8518 75.8675 38.6436 73.6593L34.0695 69.0852C31.8613 66.877 31.8613 63.0915 34.0695 60.8833L68.7698 26.3407Z" fill="white"/>
</svg>
