<svg width="237" height="50" viewBox="0 0 237 50" fill="none" xmlns="http://www.w3.org/2000/svg">
<path d="M27 0H0V22.1154H4.76262C6.80799 22.1154 8.67781 23.35 9.59253 25.3045L12.6449 31.8266C13.2072 33.0283 13.5 34.3533 13.5 35.6967V50H36V9.61538C36 4.30495 31.9706 0 27 0Z" fill="#421DD6"/>
<path d="M8.1 50L8.1 45.1923H0V50H8.1Z" fill="#421DD6"/>
<path d="M0 33.6538H10.8L7.49625 26.5946C7.03889 25.6173 6.10398 25 5.0813 25H0V33.6538Z" fill="#421DD6"/>
<path d="M6.74999 37.9808H9.44999L9.60743 37.9905C10.2788 38.0738 10.8 38.6834 10.8 39.4231C10.8 40.2196 10.1956 40.8654 9.44999 40.8654H6.74999L6.59255 40.8557C5.92115 40.7724 5.39999 40.1627 5.39999 39.4231C5.39999 38.6265 6.00441 37.9808 6.74999 37.9808Z" fill="#421DD6"/>
<path d="M56.0232 13.8181C56.045 18.9995 59.9636 21.6119 63.8388 21.5901C67.0825 21.5901 70.5005 19.8921 71.0665 15.5815C69.7385 15.5815 68.5411 15.5815 67.2349 15.5815C66.8213 17.2143 65.4933 18.0416 63.8388 18.0416C61.5311 18.0198 60.0507 16.0605 60.0507 13.8181C60.0507 11.2928 61.5529 9.57291 63.8388 9.57291C65.4715 9.57291 66.6254 10.2696 67.1696 11.8153C68.4976 11.8153 69.6732 11.8153 71.0012 11.8153C70.4134 7.7442 66.9955 6.02435 63.8388 6.02435C59.9636 6.02435 56.045 8.63679 56.0232 13.8181ZM83.7397 21.4377H87.5495V20.8717L80.6701 6.00257H78.9938L72.1361 20.8717V21.4377H75.946L76.8385 19.522H82.8472L83.7397 21.4377ZM81.5845 16.1911H78.1012L79.8211 12.1854L81.5845 16.1911ZM99.4343 16.0387C103.288 13.4263 102.199 6.22028 96.2123 6.19851C93.9917 6.19851 91.7276 6.19851 89.5288 6.19851C89.5288 11.2928 89.5288 16.3653 89.5288 21.4377C90.7915 21.4377 92.1194 21.4377 93.4257 21.4377V16.9531H95.4503L98.0627 21.4377H102.417V20.8717L99.4343 16.0387ZM96.2123 13.4916H93.4257C93.4257 12.2724 93.4257 10.9227 93.4257 9.68176C94.34 9.68176 95.2979 9.65999 96.2123 9.68176C98.4328 9.70353 98.324 13.4916 96.2123 13.4916ZM112.349 6.43798L109.802 14.5365H109.736L109.062 11.9459L107.102 6.19851H103.162V6.78631L108.517 21.5901H110.673L113.111 14.2535H113.176L115.614 21.5901H117.857L123.147 6.78631V6.19851H119.272L117.334 11.9459L116.659 14.5365H116.594L114.003 6.43798C113.394 6.43798 112.958 6.43798 112.349 6.43798ZM134.445 21.4377H138.255V20.8717L131.375 6.00257H129.699L122.841 20.8717V21.4377H126.651L127.544 19.522H133.552L134.445 21.4377ZM132.29 16.1911H128.807L130.526 12.1854L132.29 16.1911ZM142.955 16.7789C141.627 16.7789 140.495 16.7789 139.189 16.7789C139.102 23.4842 151.511 23.3753 151.511 16.9748C151.511 13.165 148.55 12.7078 145.524 12.3813C144.153 12.2289 143.021 11.9894 143.108 10.8356C143.238 9.02865 147.331 8.85449 147.331 10.8791C148.659 10.8791 149.661 10.8791 151.032 10.8791C151.119 4.30449 139.276 4.30449 139.407 10.8791C139.45 14.1882 141.627 15.3203 144.936 15.5598C146.46 15.6468 147.723 15.8863 147.723 16.9531C147.723 18.7382 142.955 18.7165 142.955 16.7789ZM167.065 6.19851C165.737 6.19851 164.409 6.19851 163.081 6.19851V11.7282H158.378V6.19851C157.05 6.19851 155.701 6.19851 154.394 6.19851V21.4377C155.701 21.4377 157.05 21.4377 158.378 21.4377V15.3203H163.081V21.4377C164.409 21.4377 165.737 21.4377 167.065 21.4377V6.19851ZM182.211 10.8791C182.211 8.24492 180.099 6.19851 177.465 6.19851H170.955V21.4377H178.096C181.209 21.4377 182.82 19.2825 182.842 16.6265C182.842 15.2767 182.254 14.1447 181.013 13.5133C181.754 12.9038 182.211 11.7935 182.211 10.8791ZM177.813 15.3856C179.381 15.3856 179.402 17.9763 177.835 17.9763H174.722V15.3856H177.813ZM177.16 9.68176C178.727 9.68176 178.727 12.1418 177.182 12.1418H174.722V9.68176H177.16ZM191.78 18.1504C190.648 18.1504 189.45 17.5409 189.45 16.2999V6.19851C188.231 6.19851 186.947 6.19851 185.728 6.19851V16.3653C185.728 19.7179 188.667 21.6554 191.78 21.6554C194.915 21.6554 197.81 19.7179 197.81 16.3653V6.19851C196.591 6.19851 195.328 6.19851 194.087 6.19851V16.2999C194.087 17.5409 192.912 18.1504 191.78 18.1504ZM206.119 18.0198V9.59468H207.905V6.19851H200.481V9.59468H202.266V18.0198H200.329V21.4377H208.057V18.0198H206.119ZM214.502 6.19851C213.174 6.19851 211.89 6.19851 210.584 6.19851V21.4377C213.675 21.4377 216.897 21.4377 220.032 21.4377C220.032 20.1315 220.032 19.2389 220.032 17.9327H214.502C214.502 11.4452 214.502 14.0794 214.502 6.19851ZM228.45 6.19851H222.703V21.4377H228.45C238.377 21.3942 238.377 6.24205 228.45 6.19851ZM226.599 9.74707H228.45C233.305 9.74707 233.305 17.8892 228.45 17.8892H226.599V9.74707Z" fill="white"/>
<path opacity="0.5" d="M63.484 34.1621V42.5621H62.608V34.9301H57.292V42.5621H56.416V34.1621H63.484ZM69.3663 36.2021C69.9583 36.2021 70.4943 36.3381 70.9743 36.6101C71.4543 36.8741 71.8303 37.2501 72.1023 37.7381C72.3743 38.2261 72.5103 38.7821 72.5103 39.4061C72.5103 40.0381 72.3743 40.5981 72.1023 41.0861C71.8303 41.5741 71.4543 41.9541 70.9743 42.2261C70.5023 42.4901 69.9663 42.6221 69.3663 42.6221C68.8543 42.6221 68.3903 42.5181 67.9743 42.3101C67.5663 42.0941 67.2303 41.7821 66.9663 41.3741V44.8901H66.1143V36.2501H66.9303V37.4981C67.1863 37.0821 67.5223 36.7621 67.9383 36.5381C68.3623 36.3141 68.8383 36.2021 69.3663 36.2021ZM69.3063 41.8661C69.7463 41.8661 70.1463 41.7661 70.5063 41.5661C70.8663 41.3581 71.1463 41.0661 71.3463 40.6901C71.5543 40.3141 71.6583 39.8861 71.6583 39.4061C71.6583 38.9261 71.5543 38.5021 71.3463 38.1341C71.1463 37.7581 70.8663 37.4661 70.5063 37.2581C70.1463 37.0501 69.7463 36.9461 69.3063 36.9461C68.8583 36.9461 68.4543 37.0501 68.0943 37.2581C67.7423 37.4661 67.4623 37.7581 67.2543 38.1341C67.0543 38.5021 66.9543 38.9261 66.9543 39.4061C66.9543 39.8861 67.0543 40.3141 67.2543 40.6901C67.4623 41.0661 67.7423 41.3581 68.0943 41.5661C68.4543 41.7661 68.8583 41.8661 69.3063 41.8661ZM76.9449 42.6221C76.3369 42.6221 75.7889 42.4861 75.3009 42.2141C74.8129 41.9341 74.4289 41.5501 74.1489 41.0621C73.8689 40.5741 73.7289 40.0221 73.7289 39.4061C73.7289 38.7901 73.8689 38.2381 74.1489 37.7501C74.4289 37.2621 74.8129 36.8821 75.3009 36.6101C75.7889 36.3381 76.3369 36.2021 76.9449 36.2021C77.5529 36.2021 78.1009 36.3381 78.5889 36.6101C79.0769 36.8821 79.4569 37.2621 79.7289 37.7501C80.0089 38.2381 80.1489 38.7901 80.1489 39.4061C80.1489 40.0221 80.0089 40.5741 79.7289 41.0621C79.4569 41.5501 79.0769 41.9341 78.5889 42.2141C78.1009 42.4861 77.5529 42.6221 76.9449 42.6221ZM76.9449 41.8661C77.3929 41.8661 77.7929 41.7661 78.1449 41.5661C78.5049 41.3581 78.7849 41.0661 78.9849 40.6901C79.1849 40.3141 79.2849 39.8861 79.2849 39.4061C79.2849 38.9261 79.1849 38.4981 78.9849 38.1221C78.7849 37.7461 78.5049 37.4581 78.1449 37.2581C77.7929 37.0501 77.3929 36.9461 76.9449 36.9461C76.4969 36.9461 76.0929 37.0501 75.7329 37.2581C75.3809 37.4581 75.1009 37.7461 74.8929 38.1221C74.6929 38.4981 74.5929 38.9261 74.5929 39.4061C74.5929 39.8861 74.6929 40.3141 74.8929 40.6901C75.1009 41.0661 75.3809 41.3581 75.7329 41.5661C76.0929 41.7661 76.4969 41.8661 76.9449 41.8661ZM81.9698 36.2501H82.8218V41.2661L87.0338 36.2501H87.7898V42.5621H86.9378V37.5461L82.7378 42.5621H81.9698V36.2501ZM93.1746 39.2741C93.6226 39.3781 93.9666 39.5581 94.2066 39.8141C94.4546 40.0701 94.5786 40.3821 94.5786 40.7501C94.5786 41.1181 94.4506 41.4461 94.1946 41.7341C93.9466 42.0221 93.6066 42.2461 93.1746 42.4061C92.7426 42.5581 92.2666 42.6341 91.7466 42.6341C91.2906 42.6341 90.8426 42.5701 90.4026 42.4421C89.9626 42.3061 89.5786 42.1101 89.2506 41.8541L89.5386 41.2181C89.8266 41.4341 90.1626 41.6021 90.5466 41.7221C90.9306 41.8421 91.3186 41.9021 91.7106 41.9021C92.2946 41.9021 92.7706 41.7941 93.1386 41.5781C93.5146 41.3541 93.7026 41.0541 93.7026 40.6781C93.7026 40.3421 93.5506 40.0821 93.2466 39.8981C92.9426 39.7061 92.5266 39.6101 91.9986 39.6101H90.9186V38.9861H91.9506C92.4226 38.9861 92.8026 38.8981 93.0906 38.7221C93.3786 38.5381 93.5226 38.2941 93.5226 37.9901C93.5226 37.6541 93.3586 37.3901 93.0306 37.1981C92.7106 37.0061 92.2906 36.9101 91.7706 36.9101C91.0906 36.9101 90.4186 37.0821 89.7546 37.4261L89.5146 36.7661C90.2666 36.3741 91.0466 36.1781 91.8546 36.1781C92.3346 36.1781 92.7666 36.2501 93.1506 36.3941C93.5426 36.5301 93.8466 36.7261 94.0626 36.9821C94.2866 37.2381 94.3986 37.5341 94.3986 37.8701C94.3986 38.1901 94.2866 38.4741 94.0626 38.7221C93.8466 38.9701 93.5506 39.1541 93.1746 39.2741ZM100.533 39.2981C101.389 39.4981 101.817 40.0141 101.817 40.8461C101.817 41.3981 101.613 41.8221 101.205 42.1181C100.797 42.4141 100.189 42.5621 99.3808 42.5621H96.5128V36.2501H99.2968C100.017 36.2501 100.581 36.3901 100.989 36.6701C101.397 36.9501 101.601 37.3501 101.601 37.8701C101.601 38.2141 101.505 38.5101 101.313 38.7581C101.129 38.9981 100.869 39.1781 100.533 39.2981ZM97.3408 39.0581H99.2368C99.7248 39.0581 100.097 38.9661 100.353 38.7821C100.617 38.5981 100.749 38.3301 100.749 37.9781C100.749 37.6261 100.617 37.3621 100.353 37.1861C100.097 37.0101 99.7248 36.9221 99.2368 36.9221H97.3408V39.0581ZM99.3448 41.8901C99.8888 41.8901 100.297 41.8021 100.569 41.6261C100.841 41.4501 100.977 41.1741 100.977 40.7981C100.977 40.4221 100.853 40.1461 100.605 39.9701C100.357 39.7861 99.9648 39.6941 99.4288 39.6941H97.3408V41.8901H99.3448ZM106.418 42.6221C105.81 42.6221 105.262 42.4861 104.774 42.2141C104.286 41.9341 103.902 41.5501 103.622 41.0621C103.342 40.5741 103.202 40.0221 103.202 39.4061C103.202 38.7901 103.342 38.2381 103.622 37.7501C103.902 37.2621 104.286 36.8821 104.774 36.6101C105.262 36.3381 105.81 36.2021 106.418 36.2021C107.026 36.2021 107.574 36.3381 108.062 36.6101C108.55 36.8821 108.93 37.2621 109.202 37.7501C109.482 38.2381 109.622 38.7901 109.622 39.4061C109.622 40.0221 109.482 40.5741 109.202 41.0621C108.93 41.5501 108.55 41.9341 108.062 42.2141C107.574 42.4861 107.026 42.6221 106.418 42.6221ZM106.418 41.8661C106.866 41.8661 107.266 41.7661 107.618 41.5661C107.978 41.3581 108.258 41.0661 108.458 40.6901C108.658 40.3141 108.758 39.8861 108.758 39.4061C108.758 38.9261 108.658 38.4981 108.458 38.1221C108.258 37.7461 107.978 37.4581 107.618 37.2581C107.266 37.0501 106.866 36.9461 106.418 36.9461C105.97 36.9461 105.566 37.0501 105.206 37.2581C104.854 37.4581 104.574 37.7461 104.366 38.1221C104.166 38.4981 104.066 38.9261 104.066 39.4061C104.066 39.8861 104.166 40.3141 104.366 40.6901C104.574 41.0661 104.854 41.3581 105.206 41.5661C105.566 41.7661 105.97 41.8661 106.418 41.8661ZM117.563 41.8181V44.0861H116.759V42.5621H111.107V44.0861H110.303V41.8181H110.663C111.087 41.7941 111.375 41.4821 111.527 40.8821C111.679 40.2821 111.783 39.4421 111.839 38.3621L111.923 36.2501H116.579V41.8181H117.563ZM112.619 38.4101C112.579 39.3061 112.503 40.0461 112.391 40.6301C112.279 41.2061 112.079 41.6021 111.791 41.8181H115.727V37.0061H112.691L112.619 38.4101ZM121.864 42.6221C121.24 42.6221 120.68 42.4861 120.184 42.2141C119.696 41.9421 119.312 41.5621 119.032 41.0741C118.752 40.5781 118.612 40.0221 118.612 39.4061C118.612 38.7901 118.752 38.2381 119.032 37.7501C119.312 37.2621 119.696 36.8821 120.184 36.6101C120.68 36.3381 121.24 36.2021 121.864 36.2021C122.408 36.2021 122.892 36.3101 123.316 36.5261C123.748 36.7341 124.088 37.0421 124.336 37.4501L123.7 37.8821C123.492 37.5701 123.228 37.3381 122.908 37.1861C122.588 37.0261 122.24 36.9461 121.864 36.9461C121.408 36.9461 120.996 37.0501 120.628 37.2581C120.268 37.4581 119.984 37.7461 119.776 38.1221C119.576 38.4981 119.476 38.9261 119.476 39.4061C119.476 39.8941 119.576 40.3261 119.776 40.7021C119.984 41.0701 120.268 41.3581 120.628 41.5661C120.996 41.7661 121.408 41.8661 121.864 41.8661C122.24 41.8661 122.588 41.7901 122.908 41.6381C123.228 41.4861 123.492 41.2541 123.7 40.9421L124.336 41.3741C124.088 41.7821 123.748 42.0941 123.316 42.3101C122.884 42.5181 122.4 42.6221 121.864 42.6221ZM130.308 37.0061H127.92V42.5621H127.068V37.0061H124.68V36.2501H130.308V37.0061ZM135.56 39.2981C136.416 39.4981 136.844 40.0141 136.844 40.8461C136.844 41.3981 136.64 41.8221 136.232 42.1181C135.824 42.4141 135.216 42.5621 134.408 42.5621H131.54V36.2501H134.324C135.044 36.2501 135.608 36.3901 136.016 36.6701C136.424 36.9501 136.628 37.3501 136.628 37.8701C136.628 38.2141 136.532 38.5101 136.34 38.7581C136.156 38.9981 135.896 39.1781 135.56 39.2981ZM132.368 39.0581H134.264C134.752 39.0581 135.124 38.9661 135.38 38.7821C135.644 38.5981 135.776 38.3301 135.776 37.9781C135.776 37.6261 135.644 37.3621 135.38 37.1861C135.124 37.0101 134.752 36.9221 134.264 36.9221H132.368V39.0581ZM134.372 41.8901C134.916 41.8901 135.324 41.8021 135.596 41.6261C135.868 41.4501 136.004 41.1741 136.004 40.7981C136.004 40.4221 135.88 40.1461 135.632 39.9701C135.384 39.7861 134.992 39.6941 134.456 39.6941H132.368V41.8901H134.372ZM141.445 42.6221C140.837 42.6221 140.289 42.4861 139.801 42.2141C139.313 41.9341 138.929 41.5501 138.649 41.0621C138.369 40.5741 138.229 40.0221 138.229 39.4061C138.229 38.7901 138.369 38.2381 138.649 37.7501C138.929 37.2621 139.313 36.8821 139.801 36.6101C140.289 36.3381 140.837 36.2021 141.445 36.2021C142.053 36.2021 142.601 36.3381 143.089 36.6101C143.577 36.8821 143.957 37.2621 144.229 37.7501C144.509 38.2381 144.649 38.7901 144.649 39.4061C144.649 40.0221 144.509 40.5741 144.229 41.0621C143.957 41.5501 143.577 41.9341 143.089 42.2141C142.601 42.4861 142.053 42.6221 141.445 42.6221ZM141.445 41.8661C141.893 41.8661 142.293 41.7661 142.645 41.5661C143.005 41.3581 143.285 41.0661 143.485 40.6901C143.685 40.3141 143.785 39.8861 143.785 39.4061C143.785 38.9261 143.685 38.4981 143.485 38.1221C143.285 37.7461 143.005 37.4581 142.645 37.2581C142.293 37.0501 141.893 36.9461 141.445 36.9461C140.997 36.9461 140.593 37.0501 140.233 37.2581C139.881 37.4581 139.601 37.7461 139.393 38.1221C139.193 38.4981 139.093 38.9261 139.093 39.4061C139.093 39.8861 139.193 40.3141 139.393 40.6901C139.601 41.0661 139.881 41.3581 140.233 41.5661C140.593 41.7661 140.997 41.8661 141.445 41.8661ZM151.782 36.2021C152.606 36.2021 153.238 36.4101 153.678 36.8261C154.118 37.2341 154.338 37.8421 154.338 38.6501V42.5621H153.522V41.5781C153.33 41.9061 153.046 42.1621 152.67 42.3461C152.302 42.5301 151.862 42.6221 151.35 42.6221C150.646 42.6221 150.086 42.4541 149.67 42.1181C149.254 41.7821 149.046 41.3381 149.046 40.7861C149.046 40.2501 149.238 39.8181 149.622 39.4901C150.014 39.1621 150.634 38.9981 151.482 38.9981H153.486V38.6141C153.486 38.0701 153.334 37.6581 153.03 37.3781C152.726 37.0901 152.282 36.9461 151.698 36.9461C151.298 36.9461 150.914 37.0141 150.546 37.1501C150.178 37.2781 149.862 37.4581 149.598 37.6901L149.214 37.0541C149.534 36.7821 149.918 36.5741 150.366 36.4301C150.814 36.2781 151.286 36.2021 151.782 36.2021ZM151.482 41.9501C151.962 41.9501 152.374 41.8421 152.718 41.6261C153.062 41.4021 153.318 41.0821 153.486 40.6661V39.6341H151.506C150.426 39.6341 149.886 40.0101 149.886 40.7621C149.886 41.1301 150.026 41.4221 150.306 41.6381C150.586 41.8461 150.978 41.9501 151.482 41.9501ZM160.627 39.2981C161.483 39.4981 161.911 40.0141 161.911 40.8461C161.911 41.3981 161.707 41.8221 161.299 42.1181C160.891 42.4141 160.283 42.5621 159.475 42.5621H156.607V36.2501H159.391C160.111 36.2501 160.675 36.3901 161.083 36.6701C161.491 36.9501 161.695 37.3501 161.695 37.8701C161.695 38.2141 161.599 38.5101 161.407 38.7581C161.223 38.9981 160.963 39.1781 160.627 39.2981ZM157.435 39.0581H159.331C159.819 39.0581 160.191 38.9661 160.447 38.7821C160.711 38.5981 160.843 38.3301 160.843 37.9781C160.843 37.6261 160.711 37.3621 160.447 37.1861C160.191 37.0101 159.819 36.9221 159.331 36.9221H157.435V39.0581ZM159.439 41.8901C159.983 41.8901 160.391 41.8021 160.663 41.6261C160.935 41.4501 161.071 41.1741 161.071 40.7981C161.071 40.4221 160.947 40.1461 160.699 39.9701C160.451 39.7861 160.059 39.6941 159.523 39.6941H157.435V41.8901H159.439ZM168.347 37.0061H165.959V42.5621H165.107V37.0061H162.719V36.2501H168.347V37.0061ZM171.89 42.6221C171.282 42.6221 170.734 42.4861 170.246 42.2141C169.758 41.9341 169.374 41.5501 169.094 41.0621C168.814 40.5741 168.674 40.0221 168.674 39.4061C168.674 38.7901 168.814 38.2381 169.094 37.7501C169.374 37.2621 169.758 36.8821 170.246 36.6101C170.734 36.3381 171.282 36.2021 171.89 36.2021C172.498 36.2021 173.046 36.3381 173.534 36.6101C174.022 36.8821 174.402 37.2621 174.674 37.7501C174.954 38.2381 175.094 38.7901 175.094 39.4061C175.094 40.0221 174.954 40.5741 174.674 41.0621C174.402 41.5501 174.022 41.9341 173.534 42.2141C173.046 42.4861 172.498 42.6221 171.89 42.6221ZM171.89 41.8661C172.338 41.8661 172.738 41.7661 173.09 41.5661C173.45 41.3581 173.73 41.0661 173.93 40.6901C174.13 40.3141 174.23 39.8861 174.23 39.4061C174.23 38.9261 174.13 38.4981 173.93 38.1221C173.73 37.7461 173.45 37.4581 173.09 37.2581C172.738 37.0501 172.338 36.9461 171.89 36.9461C171.442 36.9461 171.038 37.0501 170.678 37.2581C170.326 37.4581 170.046 37.7461 169.838 38.1221C169.638 38.4981 169.538 38.9261 169.538 39.4061C169.538 39.8861 169.638 40.3141 169.838 40.6901C170.046 41.0661 170.326 41.3581 170.678 41.5661C171.038 41.7661 171.442 41.8661 171.89 41.8661ZM183.971 36.2501V42.5621H183.191V37.5701L180.635 41.7941H180.251L177.695 37.5581V42.5621H176.915V36.2501H177.779L180.455 40.7981L183.179 36.2501H183.971ZM189 42.6221C188.392 42.6221 187.844 42.4861 187.356 42.2141C186.868 41.9341 186.484 41.5501 186.204 41.0621C185.924 40.5741 185.784 40.0221 185.784 39.4061C185.784 38.7901 185.924 38.2381 186.204 37.7501C186.484 37.2621 186.868 36.8821 187.356 36.6101C187.844 36.3381 188.392 36.2021 189 36.2021C189.608 36.2021 190.156 36.3381 190.644 36.6101C191.132 36.8821 191.512 37.2621 191.784 37.7501C192.064 38.2381 192.204 38.7901 192.204 39.4061C192.204 40.0221 192.064 40.5741 191.784 41.0621C191.512 41.5501 191.132 41.9341 190.644 42.2141C190.156 42.4861 189.608 42.6221 189 42.6221ZM189 41.8661C189.448 41.8661 189.848 41.7661 190.2 41.5661C190.56 41.3581 190.84 41.0661 191.04 40.6901C191.24 40.3141 191.34 39.8861 191.34 39.4061C191.34 38.9261 191.24 38.4981 191.04 38.1221C190.84 37.7461 190.56 37.4581 190.2 37.2581C189.848 37.0501 189.448 36.9461 189 36.9461C188.552 36.9461 188.148 37.0501 187.788 37.2581C187.436 37.4581 187.156 37.7461 186.948 38.1221C186.748 38.4981 186.648 38.9261 186.648 39.4061C186.648 39.8861 186.748 40.3141 186.948 40.6901C187.156 41.0661 187.436 41.3581 187.788 41.5661C188.148 41.7661 188.552 41.8661 189 41.8661ZM199.545 39.6701H194.265C194.313 40.3261 194.565 40.8581 195.021 41.2661C195.477 41.6661 196.053 41.8661 196.749 41.8661C197.141 41.8661 197.501 41.7981 197.829 41.6621C198.157 41.5181 198.441 41.3101 198.681 41.0381L199.161 41.5901C198.881 41.9261 198.529 42.1821 198.105 42.3581C197.689 42.5341 197.229 42.6221 196.725 42.6221C196.077 42.6221 195.501 42.4861 194.997 42.2141C194.501 41.9341 194.113 41.5501 193.833 41.0621C193.553 40.5741 193.413 40.0221 193.413 39.4061C193.413 38.7901 193.545 38.2381 193.809 37.7501C194.081 37.2621 194.449 36.8821 194.913 36.6101C195.385 36.3381 195.913 36.2021 196.497 36.2021C197.081 36.2021 197.605 36.3381 198.069 36.6101C198.533 36.8821 198.897 37.2621 199.161 37.7501C199.425 38.2301 199.557 38.7821 199.557 39.4061L199.545 39.6701ZM196.497 36.9341C195.889 36.9341 195.377 37.1301 194.961 37.5221C194.553 37.9061 194.321 38.4101 194.265 39.0341H198.741C198.685 38.4101 198.449 37.9061 198.033 37.5221C197.625 37.1301 197.113 36.9341 196.497 36.9341ZM203.734 39.7541H202.294V42.5621H201.442V36.2501H202.294V39.0221H203.746L205.966 36.2501H206.89L204.406 39.3101L207.07 42.5621H206.062L203.734 39.7541Z" fill="white"/>
</svg>
