<svg width="237" height="50" viewBox="0 0 237 50" fill="none" xmlns="http://www.w3.org/2000/svg">
<path d="M27 0H0V22.1154H4.76262C6.80799 22.1154 8.67781 23.35 9.59253 25.3045L12.6449 31.8266C13.2072 33.0283 13.5 34.3533 13.5 35.6967V50H36V9.61538C36 4.30495 31.9706 0 27 0Z" fill="white"/>
<path d="M8.1 50L8.1 45.1923H0V50H8.1Z" fill="white"/>
<path d="M0 33.6538H10.8L7.49625 26.5946C7.03889 25.6173 6.10398 25 5.0813 25H0V33.6538Z" fill="white"/>
<path d="M6.74999 37.9808H9.44999L9.60743 37.9905C10.2788 38.0738 10.8 38.6834 10.8 39.4231C10.8 40.2196 10.1956 40.8654 9.44999 40.8654H6.74999L6.59255 40.8557C5.92115 40.7724 5.39999 40.1627 5.39999 39.4231C5.39999 38.6265 6.00441 37.9808 6.74999 37.9808Z" fill="white"/>
<path d="M56.0232 13.8179C56.045 18.9992 59.9636 21.6117 63.8388 21.5899C67.0825 21.5899 70.5005 19.8918 71.0665 15.5813C69.7385 15.5813 68.5411 15.5813 67.2349 15.5813C66.8213 17.2141 65.4933 18.0413 63.8388 18.0413C61.5311 18.0196 60.0507 16.0602 60.0507 13.8179C60.0507 11.2925 61.5529 9.57267 63.8388 9.57267C65.4715 9.57267 66.6254 10.2693 67.1696 11.815C68.4976 11.815 69.6732 11.815 71.0012 11.815C70.4134 7.74396 66.9955 6.0241 63.8388 6.0241C59.9636 6.0241 56.045 8.63654 56.0232 13.8179ZM83.7397 21.4375H87.5495V20.8715L80.6701 6.00233H78.9938L72.1361 20.8715V21.4375H75.946L76.8385 19.5217H82.8472L83.7397 21.4375ZM81.5845 16.1908H78.1012L79.8211 12.1851L81.5845 16.1908ZM99.4343 16.0385C103.288 13.426 102.199 6.22003 96.2123 6.19826C93.9917 6.19826 91.7276 6.19826 89.5288 6.19826C89.5288 11.2925 89.5288 16.365 89.5288 21.4375C90.7915 21.4375 92.1194 21.4375 93.4257 21.4375V16.9528H95.4503L98.0627 21.4375H102.417V20.8715L99.4343 16.0385ZM96.2123 13.4913H93.4257C93.4257 12.2722 93.4257 10.9224 93.4257 9.68152C94.34 9.68152 95.2979 9.65975 96.2123 9.68152C98.4328 9.70329 98.324 13.4913 96.2123 13.4913ZM112.349 6.43774L109.802 14.5363H109.736L109.062 11.9456L107.102 6.19826H103.162V6.78606L108.517 21.5899H110.673L113.111 14.2533H113.176L115.614 21.5899H117.857L123.147 6.78606V6.19826H119.272L117.334 11.9456L116.659 14.5363H116.594L114.003 6.43774C113.394 6.43774 112.958 6.43774 112.349 6.43774ZM134.445 21.4375H138.255V20.8715L131.375 6.00233H129.699L122.841 20.8715V21.4375H126.651L127.544 19.5217H133.552L134.445 21.4375ZM132.29 16.1908H128.807L130.526 12.1851L132.29 16.1908ZM142.955 16.7786C141.627 16.7786 140.495 16.7786 139.189 16.7786C139.102 23.4839 151.511 23.3751 151.511 16.9746C151.511 13.1648 148.55 12.7076 145.524 12.381C144.153 12.2286 143.021 11.9892 143.108 10.8353C143.238 9.02841 147.331 8.85425 147.331 10.8789C148.659 10.8789 149.661 10.8789 151.032 10.8789C151.119 4.30424 139.276 4.30424 139.407 10.8789C139.45 14.188 141.627 15.32 144.936 15.5595C146.46 15.6466 147.723 15.8861 147.723 16.9528C147.723 18.738 142.955 18.7162 142.955 16.7786ZM167.065 6.19826C165.737 6.19826 164.409 6.19826 163.081 6.19826V11.7279H158.378V6.19826C157.05 6.19826 155.701 6.19826 154.394 6.19826V21.4375C155.701 21.4375 157.05 21.4375 158.378 21.4375V15.32H163.081V21.4375C164.409 21.4375 165.737 21.4375 167.065 21.4375V6.19826ZM182.211 10.8789C182.211 8.24468 180.099 6.19826 177.465 6.19826H170.955V21.4375H178.096C181.209 21.4375 182.82 19.2822 182.842 16.6263C182.842 15.2765 182.254 14.1444 181.013 13.5131C181.754 12.9035 182.211 11.7932 182.211 10.8789ZM177.813 15.3853C179.381 15.3853 179.402 17.976 177.835 17.976H174.722V15.3853H177.813ZM177.16 9.68152C178.727 9.68152 178.727 12.1416 177.182 12.1416H174.722V9.68152H177.16ZM191.78 18.1502C190.648 18.1502 189.45 17.5406 189.45 16.2997V6.19826C188.231 6.19826 186.947 6.19826 185.728 6.19826V16.365C185.728 19.7176 188.667 21.6552 191.78 21.6552C194.915 21.6552 197.81 19.7176 197.81 16.365V6.19826C196.591 6.19826 195.328 6.19826 194.087 6.19826V16.2997C194.087 17.5406 192.912 18.1502 191.78 18.1502ZM206.119 18.0196V9.59444H207.905V6.19826H200.481V9.59444H202.266V18.0196H200.329V21.4375H208.057V18.0196H206.119ZM214.502 6.19826C213.174 6.19826 211.89 6.19826 210.584 6.19826V21.4375C213.675 21.4375 216.897 21.4375 220.032 21.4375C220.032 20.1313 220.032 19.2387 220.032 17.9325H214.502C214.502 11.4449 214.502 14.0791 214.502 6.19826ZM228.45 6.19826H222.703V21.4375H228.45C238.377 21.394 238.377 6.24181 228.45 6.19826ZM226.599 9.74683H228.45C233.305 9.74683 233.305 17.8889 228.45 17.8889H226.599V9.74683Z" fill="white"/>
<path opacity="0.5" d="M63.484 34.1615V42.5615H62.608V34.9295H57.292V42.5615H56.416V34.1615H63.484ZM69.3663 36.2015C69.9583 36.2015 70.4943 36.3375 70.9743 36.6095C71.4543 36.8735 71.8303 37.2495 72.1023 37.7375C72.3743 38.2255 72.5103 38.7815 72.5103 39.4055C72.5103 40.0375 72.3743 40.5975 72.1023 41.0855C71.8303 41.5735 71.4543 41.9535 70.9743 42.2255C70.5023 42.4895 69.9663 42.6215 69.3663 42.6215C68.8543 42.6215 68.3903 42.5175 67.9743 42.3095C67.5663 42.0935 67.2303 41.7815 66.9663 41.3735V44.8895H66.1143V36.2495H66.9303V37.4975C67.1863 37.0815 67.5223 36.7615 67.9383 36.5375C68.3623 36.3135 68.8383 36.2015 69.3663 36.2015ZM69.3063 41.8655C69.7463 41.8655 70.1463 41.7655 70.5063 41.5655C70.8663 41.3575 71.1463 41.0655 71.3463 40.6895C71.5543 40.3135 71.6583 39.8855 71.6583 39.4055C71.6583 38.9255 71.5543 38.5015 71.3463 38.1335C71.1463 37.7575 70.8663 37.4655 70.5063 37.2575C70.1463 37.0495 69.7463 36.9455 69.3063 36.9455C68.8583 36.9455 68.4543 37.0495 68.0943 37.2575C67.7423 37.4655 67.4623 37.7575 67.2543 38.1335C67.0543 38.5015 66.9543 38.9255 66.9543 39.4055C66.9543 39.8855 67.0543 40.3135 67.2543 40.6895C67.4623 41.0655 67.7423 41.3575 68.0943 41.5655C68.4543 41.7655 68.8583 41.8655 69.3063 41.8655ZM76.9449 42.6215C76.3369 42.6215 75.7889 42.4855 75.3009 42.2135C74.8129 41.9335 74.4289 41.5495 74.1489 41.0615C73.8689 40.5735 73.7289 40.0215 73.7289 39.4055C73.7289 38.7895 73.8689 38.2375 74.1489 37.7495C74.4289 37.2615 74.8129 36.8815 75.3009 36.6095C75.7889 36.3375 76.3369 36.2015 76.9449 36.2015C77.5529 36.2015 78.1009 36.3375 78.5889 36.6095C79.0769 36.8815 79.4569 37.2615 79.7289 37.7495C80.0089 38.2375 80.1489 38.7895 80.1489 39.4055C80.1489 40.0215 80.0089 40.5735 79.7289 41.0615C79.4569 41.5495 79.0769 41.9335 78.5889 42.2135C78.1009 42.4855 77.5529 42.6215 76.9449 42.6215ZM76.9449 41.8655C77.3929 41.8655 77.7929 41.7655 78.1449 41.5655C78.5049 41.3575 78.7849 41.0655 78.9849 40.6895C79.1849 40.3135 79.2849 39.8855 79.2849 39.4055C79.2849 38.9255 79.1849 38.4975 78.9849 38.1215C78.7849 37.7455 78.5049 37.4575 78.1449 37.2575C77.7929 37.0495 77.3929 36.9455 76.9449 36.9455C76.4969 36.9455 76.0929 37.0495 75.7329 37.2575C75.3809 37.4575 75.1009 37.7455 74.8929 38.1215C74.6929 38.4975 74.5929 38.9255 74.5929 39.4055C74.5929 39.8855 74.6929 40.3135 74.8929 40.6895C75.1009 41.0655 75.3809 41.3575 75.7329 41.5655C76.0929 41.7655 76.4969 41.8655 76.9449 41.8655ZM81.9698 36.2495H82.8218V41.2655L87.0338 36.2495H87.7898V42.5615H86.9378V37.5455L82.7378 42.5615H81.9698V36.2495ZM93.1746 39.2735C93.6226 39.3775 93.9666 39.5575 94.2066 39.8135C94.4546 40.0695 94.5786 40.3815 94.5786 40.7495C94.5786 41.1175 94.4506 41.4455 94.1946 41.7335C93.9466 42.0215 93.6066 42.2455 93.1746 42.4055C92.7426 42.5575 92.2666 42.6335 91.7466 42.6335C91.2906 42.6335 90.8426 42.5695 90.4026 42.4415C89.9626 42.3055 89.5786 42.1095 89.2506 41.8535L89.5386 41.2175C89.8266 41.4335 90.1626 41.6015 90.5466 41.7215C90.9306 41.8415 91.3186 41.9015 91.7106 41.9015C92.2946 41.9015 92.7706 41.7935 93.1386 41.5775C93.5146 41.3535 93.7026 41.0535 93.7026 40.6775C93.7026 40.3415 93.5506 40.0815 93.2466 39.8975C92.9426 39.7055 92.5266 39.6095 91.9986 39.6095H90.9186V38.9855H91.9506C92.4226 38.9855 92.8026 38.8975 93.0906 38.7215C93.3786 38.5375 93.5226 38.2935 93.5226 37.9895C93.5226 37.6535 93.3586 37.3895 93.0306 37.1975C92.7106 37.0055 92.2906 36.9095 91.7706 36.9095C91.0906 36.9095 90.4186 37.0815 89.7546 37.4255L89.5146 36.7655C90.2666 36.3735 91.0466 36.1775 91.8546 36.1775C92.3346 36.1775 92.7666 36.2495 93.1506 36.3935C93.5426 36.5295 93.8466 36.7255 94.0626 36.9815C94.2866 37.2375 94.3986 37.5335 94.3986 37.8695C94.3986 38.1895 94.2866 38.4735 94.0626 38.7215C93.8466 38.9695 93.5506 39.1535 93.1746 39.2735ZM100.533 39.2975C101.389 39.4975 101.817 40.0135 101.817 40.8455C101.817 41.3975 101.613 41.8215 101.205 42.1175C100.797 42.4135 100.189 42.5615 99.3808 42.5615H96.5128V36.2495H99.2968C100.017 36.2495 100.581 36.3895 100.989 36.6695C101.397 36.9495 101.601 37.3495 101.601 37.8695C101.601 38.2135 101.505 38.5095 101.313 38.7575C101.129 38.9975 100.869 39.1775 100.533 39.2975ZM97.3408 39.0575H99.2368C99.7248 39.0575 100.097 38.9655 100.353 38.7815C100.617 38.5975 100.749 38.3295 100.749 37.9775C100.749 37.6255 100.617 37.3615 100.353 37.1855C100.097 37.0095 99.7248 36.9215 99.2368 36.9215H97.3408V39.0575ZM99.3448 41.8895C99.8888 41.8895 100.297 41.8015 100.569 41.6255C100.841 41.4495 100.977 41.1735 100.977 40.7975C100.977 40.4215 100.853 40.1455 100.605 39.9695C100.357 39.7855 99.9648 39.6935 99.4288 39.6935H97.3408V41.8895H99.3448ZM106.418 42.6215C105.81 42.6215 105.262 42.4855 104.774 42.2135C104.286 41.9335 103.902 41.5495 103.622 41.0615C103.342 40.5735 103.202 40.0215 103.202 39.4055C103.202 38.7895 103.342 38.2375 103.622 37.7495C103.902 37.2615 104.286 36.8815 104.774 36.6095C105.262 36.3375 105.81 36.2015 106.418 36.2015C107.026 36.2015 107.574 36.3375 108.062 36.6095C108.55 36.8815 108.93 37.2615 109.202 37.7495C109.482 38.2375 109.622 38.7895 109.622 39.4055C109.622 40.0215 109.482 40.5735 109.202 41.0615C108.93 41.5495 108.55 41.9335 108.062 42.2135C107.574 42.4855 107.026 42.6215 106.418 42.6215ZM106.418 41.8655C106.866 41.8655 107.266 41.7655 107.618 41.5655C107.978 41.3575 108.258 41.0655 108.458 40.6895C108.658 40.3135 108.758 39.8855 108.758 39.4055C108.758 38.9255 108.658 38.4975 108.458 38.1215C108.258 37.7455 107.978 37.4575 107.618 37.2575C107.266 37.0495 106.866 36.9455 106.418 36.9455C105.97 36.9455 105.566 37.0495 105.206 37.2575C104.854 37.4575 104.574 37.7455 104.366 38.1215C104.166 38.4975 104.066 38.9255 104.066 39.4055C104.066 39.8855 104.166 40.3135 104.366 40.6895C104.574 41.0655 104.854 41.3575 105.206 41.5655C105.566 41.7655 105.97 41.8655 106.418 41.8655ZM117.563 41.8175V44.0855H116.759V42.5615H111.107V44.0855H110.303V41.8175H110.663C111.087 41.7935 111.375 41.4815 111.527 40.8815C111.679 40.2815 111.783 39.4415 111.839 38.3615L111.923 36.2495H116.579V41.8175H117.563ZM112.619 38.4095C112.579 39.3055 112.503 40.0455 112.391 40.6295C112.279 41.2055 112.079 41.6015 111.791 41.8175H115.727V37.0055H112.691L112.619 38.4095ZM121.864 42.6215C121.24 42.6215 120.68 42.4855 120.184 42.2135C119.696 41.9415 119.312 41.5615 119.032 41.0735C118.752 40.5775 118.612 40.0215 118.612 39.4055C118.612 38.7895 118.752 38.2375 119.032 37.7495C119.312 37.2615 119.696 36.8815 120.184 36.6095C120.68 36.3375 121.24 36.2015 121.864 36.2015C122.408 36.2015 122.892 36.3095 123.316 36.5255C123.748 36.7335 124.088 37.0415 124.336 37.4495L123.7 37.8815C123.492 37.5695 123.228 37.3375 122.908 37.1855C122.588 37.0255 122.24 36.9455 121.864 36.9455C121.408 36.9455 120.996 37.0495 120.628 37.2575C120.268 37.4575 119.984 37.7455 119.776 38.1215C119.576 38.4975 119.476 38.9255 119.476 39.4055C119.476 39.8935 119.576 40.3255 119.776 40.7015C119.984 41.0695 120.268 41.3575 120.628 41.5655C120.996 41.7655 121.408 41.8655 121.864 41.8655C122.24 41.8655 122.588 41.7895 122.908 41.6375C123.228 41.4855 123.492 41.2535 123.7 40.9415L124.336 41.3735C124.088 41.7815 123.748 42.0935 123.316 42.3095C122.884 42.5175 122.4 42.6215 121.864 42.6215ZM130.308 37.0055H127.92V42.5615H127.068V37.0055H124.68V36.2495H130.308V37.0055ZM135.56 39.2975C136.416 39.4975 136.844 40.0135 136.844 40.8455C136.844 41.3975 136.64 41.8215 136.232 42.1175C135.824 42.4135 135.216 42.5615 134.408 42.5615H131.54V36.2495H134.324C135.044 36.2495 135.608 36.3895 136.016 36.6695C136.424 36.9495 136.628 37.3495 136.628 37.8695C136.628 38.2135 136.532 38.5095 136.34 38.7575C136.156 38.9975 135.896 39.1775 135.56 39.2975ZM132.368 39.0575H134.264C134.752 39.0575 135.124 38.9655 135.38 38.7815C135.644 38.5975 135.776 38.3295 135.776 37.9775C135.776 37.6255 135.644 37.3615 135.38 37.1855C135.124 37.0095 134.752 36.9215 134.264 36.9215H132.368V39.0575ZM134.372 41.8895C134.916 41.8895 135.324 41.8015 135.596 41.6255C135.868 41.4495 136.004 41.1735 136.004 40.7975C136.004 40.4215 135.88 40.1455 135.632 39.9695C135.384 39.7855 134.992 39.6935 134.456 39.6935H132.368V41.8895H134.372ZM141.445 42.6215C140.837 42.6215 140.289 42.4855 139.801 42.2135C139.313 41.9335 138.929 41.5495 138.649 41.0615C138.369 40.5735 138.229 40.0215 138.229 39.4055C138.229 38.7895 138.369 38.2375 138.649 37.7495C138.929 37.2615 139.313 36.8815 139.801 36.6095C140.289 36.3375 140.837 36.2015 141.445 36.2015C142.053 36.2015 142.601 36.3375 143.089 36.6095C143.577 36.8815 143.957 37.2615 144.229 37.7495C144.509 38.2375 144.649 38.7895 144.649 39.4055C144.649 40.0215 144.509 40.5735 144.229 41.0615C143.957 41.5495 143.577 41.9335 143.089 42.2135C142.601 42.4855 142.053 42.6215 141.445 42.6215ZM141.445 41.8655C141.893 41.8655 142.293 41.7655 142.645 41.5655C143.005 41.3575 143.285 41.0655 143.485 40.6895C143.685 40.3135 143.785 39.8855 143.785 39.4055C143.785 38.9255 143.685 38.4975 143.485 38.1215C143.285 37.7455 143.005 37.4575 142.645 37.2575C142.293 37.0495 141.893 36.9455 141.445 36.9455C140.997 36.9455 140.593 37.0495 140.233 37.2575C139.881 37.4575 139.601 37.7455 139.393 38.1215C139.193 38.4975 139.093 38.9255 139.093 39.4055C139.093 39.8855 139.193 40.3135 139.393 40.6895C139.601 41.0655 139.881 41.3575 140.233 41.5655C140.593 41.7655 140.997 41.8655 141.445 41.8655ZM151.782 36.2015C152.606 36.2015 153.238 36.4095 153.678 36.8255C154.118 37.2335 154.338 37.8415 154.338 38.6495V42.5615H153.522V41.5775C153.33 41.9055 153.046 42.1615 152.67 42.3455C152.302 42.5295 151.862 42.6215 151.35 42.6215C150.646 42.6215 150.086 42.4535 149.67 42.1175C149.254 41.7815 149.046 41.3375 149.046 40.7855C149.046 40.2495 149.238 39.8175 149.622 39.4895C150.014 39.1615 150.634 38.9975 151.482 38.9975H153.486V38.6135C153.486 38.0695 153.334 37.6575 153.03 37.3775C152.726 37.0895 152.282 36.9455 151.698 36.9455C151.298 36.9455 150.914 37.0135 150.546 37.1495C150.178 37.2775 149.862 37.4575 149.598 37.6895L149.214 37.0535C149.534 36.7815 149.918 36.5735 150.366 36.4295C150.814 36.2775 151.286 36.2015 151.782 36.2015ZM151.482 41.9495C151.962 41.9495 152.374 41.8415 152.718 41.6255C153.062 41.4015 153.318 41.0815 153.486 40.6655V39.6335H151.506C150.426 39.6335 149.886 40.0095 149.886 40.7615C149.886 41.1295 150.026 41.4215 150.306 41.6375C150.586 41.8455 150.978 41.9495 151.482 41.9495ZM160.627 39.2975C161.483 39.4975 161.911 40.0135 161.911 40.8455C161.911 41.3975 161.707 41.8215 161.299 42.1175C160.891 42.4135 160.283 42.5615 159.475 42.5615H156.607V36.2495H159.391C160.111 36.2495 160.675 36.3895 161.083 36.6695C161.491 36.9495 161.695 37.3495 161.695 37.8695C161.695 38.2135 161.599 38.5095 161.407 38.7575C161.223 38.9975 160.963 39.1775 160.627 39.2975ZM157.435 39.0575H159.331C159.819 39.0575 160.191 38.9655 160.447 38.7815C160.711 38.5975 160.843 38.3295 160.843 37.9775C160.843 37.6255 160.711 37.3615 160.447 37.1855C160.191 37.0095 159.819 36.9215 159.331 36.9215H157.435V39.0575ZM159.439 41.8895C159.983 41.8895 160.391 41.8015 160.663 41.6255C160.935 41.4495 161.071 41.1735 161.071 40.7975C161.071 40.4215 160.947 40.1455 160.699 39.9695C160.451 39.7855 160.059 39.6935 159.523 39.6935H157.435V41.8895H159.439ZM168.347 37.0055H165.959V42.5615H165.107V37.0055H162.719V36.2495H168.347V37.0055ZM171.89 42.6215C171.282 42.6215 170.734 42.4855 170.246 42.2135C169.758 41.9335 169.374 41.5495 169.094 41.0615C168.814 40.5735 168.674 40.0215 168.674 39.4055C168.674 38.7895 168.814 38.2375 169.094 37.7495C169.374 37.2615 169.758 36.8815 170.246 36.6095C170.734 36.3375 171.282 36.2015 171.89 36.2015C172.498 36.2015 173.046 36.3375 173.534 36.6095C174.022 36.8815 174.402 37.2615 174.674 37.7495C174.954 38.2375 175.094 38.7895 175.094 39.4055C175.094 40.0215 174.954 40.5735 174.674 41.0615C174.402 41.5495 174.022 41.9335 173.534 42.2135C173.046 42.4855 172.498 42.6215 171.89 42.6215ZM171.89 41.8655C172.338 41.8655 172.738 41.7655 173.09 41.5655C173.45 41.3575 173.73 41.0655 173.93 40.6895C174.13 40.3135 174.23 39.8855 174.23 39.4055C174.23 38.9255 174.13 38.4975 173.93 38.1215C173.73 37.7455 173.45 37.4575 173.09 37.2575C172.738 37.0495 172.338 36.9455 171.89 36.9455C171.442 36.9455 171.038 37.0495 170.678 37.2575C170.326 37.4575 170.046 37.7455 169.838 38.1215C169.638 38.4975 169.538 38.9255 169.538 39.4055C169.538 39.8855 169.638 40.3135 169.838 40.6895C170.046 41.0655 170.326 41.3575 170.678 41.5655C171.038 41.7655 171.442 41.8655 171.89 41.8655ZM183.971 36.2495V42.5615H183.191V37.5695L180.635 41.7935H180.251L177.695 37.5575V42.5615H176.915V36.2495H177.779L180.455 40.7975L183.179 36.2495H183.971ZM189 42.6215C188.392 42.6215 187.844 42.4855 187.356 42.2135C186.868 41.9335 186.484 41.5495 186.204 41.0615C185.924 40.5735 185.784 40.0215 185.784 39.4055C185.784 38.7895 185.924 38.2375 186.204 37.7495C186.484 37.2615 186.868 36.8815 187.356 36.6095C187.844 36.3375 188.392 36.2015 189 36.2015C189.608 36.2015 190.156 36.3375 190.644 36.6095C191.132 36.8815 191.512 37.2615 191.784 37.7495C192.064 38.2375 192.204 38.7895 192.204 39.4055C192.204 40.0215 192.064 40.5735 191.784 41.0615C191.512 41.5495 191.132 41.9335 190.644 42.2135C190.156 42.4855 189.608 42.6215 189 42.6215ZM189 41.8655C189.448 41.8655 189.848 41.7655 190.2 41.5655C190.56 41.3575 190.84 41.0655 191.04 40.6895C191.24 40.3135 191.34 39.8855 191.34 39.4055C191.34 38.9255 191.24 38.4975 191.04 38.1215C190.84 37.7455 190.56 37.4575 190.2 37.2575C189.848 37.0495 189.448 36.9455 189 36.9455C188.552 36.9455 188.148 37.0495 187.788 37.2575C187.436 37.4575 187.156 37.7455 186.948 38.1215C186.748 38.4975 186.648 38.9255 186.648 39.4055C186.648 39.8855 186.748 40.3135 186.948 40.6895C187.156 41.0655 187.436 41.3575 187.788 41.5655C188.148 41.7655 188.552 41.8655 189 41.8655ZM199.545 39.6695H194.265C194.313 40.3255 194.565 40.8575 195.021 41.2655C195.477 41.6655 196.053 41.8655 196.749 41.8655C197.141 41.8655 197.501 41.7975 197.829 41.6615C198.157 41.5175 198.441 41.3095 198.681 41.0375L199.161 41.5895C198.881 41.9255 198.529 42.1815 198.105 42.3575C197.689 42.5335 197.229 42.6215 196.725 42.6215C196.077 42.6215 195.501 42.4855 194.997 42.2135C194.501 41.9335 194.113 41.5495 193.833 41.0615C193.553 40.5735 193.413 40.0215 193.413 39.4055C193.413 38.7895 193.545 38.2375 193.809 37.7495C194.081 37.2615 194.449 36.8815 194.913 36.6095C195.385 36.3375 195.913 36.2015 196.497 36.2015C197.081 36.2015 197.605 36.3375 198.069 36.6095C198.533 36.8815 198.897 37.2615 199.161 37.7495C199.425 38.2295 199.557 38.7815 199.557 39.4055L199.545 39.6695ZM196.497 36.9335C195.889 36.9335 195.377 37.1295 194.961 37.5215C194.553 37.9055 194.321 38.4095 194.265 39.0335H198.741C198.685 38.4095 198.449 37.9055 198.033 37.5215C197.625 37.1295 197.113 36.9335 196.497 36.9335ZM203.734 39.7535H202.294V42.5615H201.442V36.2495H202.294V39.0215H203.746L205.966 36.2495H206.89L204.406 39.3095L207.07 42.5615H206.062L203.734 39.7535Z" fill="white"/>
</svg>
