<svg width="238" height="50" viewBox="0 0 238 50" fill="none" xmlns="http://www.w3.org/2000/svg">
<path d="M27.75 0H0.75V22.1154H5.51262C7.55799 22.1154 9.42781 23.35 10.3425 25.3045L13.3949 31.8266C13.9572 33.0283 14.25 34.3533 14.25 35.6967V50H36.75V9.61538C36.75 4.30495 32.7206 0 27.75 0Z" fill="#421DD6"/>
<path d="M8.85 50L8.85 45.1923H0.75V50H8.85Z" fill="#421DD6"/>
<path d="M0.75 33.6538H11.55L8.24625 26.5946C7.78889 25.6173 6.85398 25 5.8313 25H0.75V33.6538Z" fill="#421DD6"/>
<path d="M7.49999 37.9808H10.2L10.3574 37.9905C11.0288 38.0738 11.55 38.6834 11.55 39.4231C11.55 40.2196 10.9456 40.8654 10.2 40.8654H7.49999L7.34255 40.8557C6.67115 40.7724 6.14999 40.1627 6.14999 39.4231C6.14999 38.6265 6.75441 37.9808 7.49999 37.9808Z" fill="#421DD6"/>
<path d="M56.7732 13.8181C56.795 18.9995 60.7136 21.6119 64.5888 21.5901C67.8325 21.5901 71.2505 19.8921 71.8165 15.5815C70.4885 15.5815 69.2911 15.5815 67.9849 15.5815C67.5713 17.2143 66.2433 18.0416 64.5888 18.0416C62.2811 18.0198 60.8007 16.0605 60.8007 13.8181C60.8007 11.2928 62.3029 9.57291 64.5888 9.57291C66.2215 9.57291 67.3754 10.2696 67.9196 11.8153C69.2476 11.8153 70.4232 11.8153 71.7512 11.8153C71.1634 7.7442 67.7455 6.02435 64.5888 6.02435C60.7136 6.02435 56.795 8.63679 56.7732 13.8181ZM84.4897 21.4377H88.2995V20.8717L81.4201 6.00257H79.7438L72.8861 20.8717V21.4377H76.696L77.5885 19.522H83.5972L84.4897 21.4377ZM82.3345 16.1911H78.8512L80.5711 12.1854L82.3345 16.1911ZM100.184 16.0387C104.038 13.4263 102.949 6.22028 96.9623 6.19851C94.7417 6.19851 92.4776 6.19851 90.2788 6.19851C90.2788 11.2928 90.2788 16.3653 90.2788 21.4377C91.5415 21.4377 92.8694 21.4377 94.1757 21.4377V16.9531H96.2003L98.8127 21.4377H103.167V20.8717L100.184 16.0387ZM96.9623 13.4916H94.1757C94.1757 12.2724 94.1757 10.9227 94.1757 9.68176C95.09 9.68176 96.0479 9.65999 96.9623 9.68176C99.1828 9.70353 99.074 13.4916 96.9623 13.4916ZM113.099 6.43798L110.552 14.5365H110.486L109.812 11.9459L107.852 6.19851H103.912V6.78631L109.267 21.5901H111.423L113.861 14.2535H113.926L116.364 21.5901H118.607L123.897 6.78631V6.19851H120.022L118.084 11.9459L117.409 14.5365H117.344L114.753 6.43798C114.144 6.43798 113.708 6.43798 113.099 6.43798ZM135.195 21.4377H139.005V20.8717L132.125 6.00257H130.449L123.591 20.8717V21.4377H127.401L128.294 19.522H134.302L135.195 21.4377ZM133.04 16.1911H129.557L131.276 12.1854L133.04 16.1911ZM143.705 16.7789C142.377 16.7789 141.245 16.7789 139.939 16.7789C139.852 23.4842 152.261 23.3753 152.261 16.9748C152.261 13.165 149.3 12.7078 146.274 12.3813C144.903 12.2289 143.771 11.9894 143.858 10.8356C143.988 9.02865 148.081 8.85449 148.081 10.8791C149.409 10.8791 150.411 10.8791 151.782 10.8791C151.869 4.30449 140.026 4.30449 140.157 10.8791C140.2 14.1882 142.377 15.3203 145.686 15.5598C147.21 15.6468 148.473 15.8863 148.473 16.9531C148.473 18.7382 143.705 18.7165 143.705 16.7789ZM167.815 6.19851C166.487 6.19851 165.159 6.19851 163.831 6.19851V11.7282H159.128V6.19851C157.8 6.19851 156.451 6.19851 155.144 6.19851V21.4377C156.451 21.4377 157.8 21.4377 159.128 21.4377V15.3203H163.831V21.4377C165.159 21.4377 166.487 21.4377 167.815 21.4377V6.19851ZM182.961 10.8791C182.961 8.24492 180.849 6.19851 178.215 6.19851H171.705V21.4377H178.846C181.959 21.4377 183.57 19.2825 183.592 16.6265C183.592 15.2767 183.004 14.1447 181.763 13.5133C182.504 12.9038 182.961 11.7935 182.961 10.8791ZM178.563 15.3856C180.131 15.3856 180.152 17.9763 178.585 17.9763H175.472V15.3856H178.563ZM177.91 9.68176C179.477 9.68176 179.477 12.1418 177.932 12.1418H175.472V9.68176H177.91ZM192.53 18.1504C191.398 18.1504 190.2 17.5409 190.2 16.2999V6.19851C188.981 6.19851 187.697 6.19851 186.478 6.19851V16.3653C186.478 19.7179 189.417 21.6554 192.53 21.6554C195.665 21.6554 198.56 19.7179 198.56 16.3653V6.19851C197.341 6.19851 196.078 6.19851 194.837 6.19851V16.2999C194.837 17.5409 193.662 18.1504 192.53 18.1504ZM206.869 18.0198V9.59468H208.655V6.19851H201.231V9.59468H203.016V18.0198H201.079V21.4377H208.807V18.0198H206.869ZM215.252 6.19851C213.924 6.19851 212.64 6.19851 211.334 6.19851V21.4377C214.425 21.4377 217.647 21.4377 220.782 21.4377C220.782 20.1315 220.782 19.2389 220.782 17.9327H215.252C215.252 11.4452 215.252 14.0794 215.252 6.19851ZM229.2 6.19851H223.453V21.4377H229.2C239.127 21.3942 239.127 6.24205 229.2 6.19851ZM227.349 9.74707H229.2C234.055 9.74707 234.055 17.8892 229.2 17.8892H227.349V9.74707Z" fill="white"/>
<path opacity="0.5" d="M57.058 34.1621V42.5621H58.246V35.2061H63.118V42.5621H64.294V34.1621H57.058ZM70.0935 36.1421C69.1575 36.1421 68.3415 36.5021 67.8255 37.2101V36.2021H66.7215V44.8901H67.8735V41.6021C68.4015 42.2861 69.1935 42.6341 70.0935 42.6341C71.9535 42.6341 73.3095 41.3381 73.3095 39.3821C73.3095 37.4381 71.9535 36.1421 70.0935 36.1421ZM69.9975 41.6261C68.7855 41.6261 67.8615 40.7381 67.8615 39.3821C67.8615 38.0381 68.7855 37.1501 69.9975 37.1501C71.2215 37.1501 72.1455 38.0381 72.1455 39.3821C72.1455 40.7381 71.2215 41.6261 69.9975 41.6261ZM77.7072 42.6341C79.6152 42.6341 81.0072 41.2781 81.0072 39.3821C81.0072 37.4861 79.6152 36.1421 77.7072 36.1421C75.7992 36.1421 74.3952 37.4861 74.3952 39.3821C74.3952 41.2781 75.7992 42.6341 77.7072 42.6341ZM77.7072 41.6261C76.4832 41.6261 75.5592 40.7381 75.5592 39.3821C75.5592 38.0261 76.4832 37.1501 77.7072 37.1501C78.9312 37.1501 79.8432 38.0261 79.8432 39.3821C79.8432 40.7381 78.9312 41.6261 77.7072 41.6261ZM82.6707 42.5621H83.7267L87.6147 37.9301V42.5621H88.7667V36.2021H87.7227L83.8227 40.8341V36.2021H82.6707V42.5621ZM94.3413 39.2501C95.0373 38.9981 95.4933 38.4821 95.4933 37.8461C95.4933 36.8141 94.3533 36.1181 92.8053 36.1181C91.9893 36.1181 91.1973 36.2861 90.3693 36.7061L90.6813 37.5941C91.3773 37.2701 92.0373 37.1021 92.6853 37.1021C93.6573 37.1021 94.3053 37.4381 94.3053 38.0141C94.3053 38.5541 93.7653 38.8661 92.9133 38.8661H91.8333V39.6941H92.9973C93.9333 39.6941 94.4853 40.0301 94.4853 40.6181C94.4853 41.2661 93.7773 41.6621 92.6973 41.6621C91.9173 41.6621 91.0773 41.4461 90.4653 41.0501L90.1173 41.9261C90.8253 42.3821 91.7613 42.6461 92.7093 42.6461C94.4013 42.6461 95.6733 41.8661 95.6733 40.7141C95.6733 39.9821 95.1933 39.4661 94.3413 39.2501ZM101.757 39.2621C102.393 39.0101 102.777 38.5181 102.777 37.8341C102.777 36.7901 101.877 36.2021 100.377 36.2021H97.4246V42.5621H100.485C102.177 42.5621 102.993 41.9141 102.993 40.8101C102.993 40.0061 102.597 39.4781 101.757 39.2621ZM98.5526 37.0901H100.281C101.157 37.0901 101.625 37.3901 101.625 38.0021C101.625 38.6141 101.157 38.9381 100.281 38.9381H98.5526V37.0901ZM100.401 41.6741H98.5526V39.7661H100.473C101.421 39.7661 101.841 40.0781 101.841 40.7381C101.841 41.3861 101.349 41.6741 100.401 41.6741ZM107.52 42.6341C109.428 42.6341 110.82 41.2781 110.82 39.3821C110.82 37.4861 109.428 36.1421 107.52 36.1421C105.612 36.1421 104.208 37.4861 104.208 39.3821C104.208 41.2781 105.612 42.6341 107.52 42.6341ZM107.52 41.6261C106.296 41.6261 105.372 40.7381 105.372 39.3821C105.372 38.0261 106.296 37.1501 107.52 37.1501C108.744 37.1501 109.656 38.0261 109.656 39.3821C109.656 40.7381 108.744 41.6261 107.52 41.6261ZM117.932 41.5541V36.2021H113L112.904 38.3501C112.82 39.9581 112.664 41.5061 111.752 41.5541H111.416V44.0381H112.508V42.5621H117.824V44.0381H118.904V41.5541H117.932ZM113.96 38.4341L114.02 37.2101H116.78V41.5541H113.216C113.792 41.0501 113.912 39.7541 113.96 38.4341ZM123.177 42.6341C124.317 42.6341 125.265 42.1541 125.769 41.2661L124.893 40.7141C124.485 41.3381 123.861 41.6261 123.165 41.6261C121.917 41.6261 120.981 40.7621 120.981 39.3821C120.981 38.0261 121.917 37.1501 123.165 37.1501C123.861 37.1501 124.485 37.4381 124.893 38.0621L125.769 37.4981C125.265 36.6101 124.317 36.1421 123.177 36.1421C121.221 36.1421 119.817 37.4861 119.817 39.3821C119.817 41.2781 121.221 42.6341 123.177 42.6341ZM131.919 36.2021H126.111V37.2101H128.439V42.5621H129.59V37.2101H131.919V36.2021ZM137.428 39.2621C138.064 39.0101 138.448 38.5181 138.448 37.8341C138.448 36.7901 137.548 36.2021 136.048 36.2021H133.096V42.5621H136.156C137.848 42.5621 138.664 41.9141 138.664 40.8101C138.664 40.0061 138.268 39.4781 137.428 39.2621ZM134.224 37.0901H135.952C136.828 37.0901 137.296 37.3901 137.296 38.0021C137.296 38.6141 136.828 38.9381 135.952 38.9381H134.224V37.0901ZM136.072 41.6741H134.224V39.7661H136.144C137.092 39.7661 137.512 40.0781 137.512 40.7381C137.512 41.3861 137.02 41.6741 136.072 41.6741ZM143.192 42.6341C145.1 42.6341 146.492 41.2781 146.492 39.3821C146.492 37.4861 145.1 36.1421 143.192 36.1421C141.284 36.1421 139.88 37.4861 139.88 39.3821C139.88 41.2781 141.284 42.6341 143.192 42.6341ZM143.192 41.6261C141.968 41.6261 141.044 40.7381 141.044 39.3821C141.044 38.0261 141.968 37.1501 143.192 37.1501C144.416 37.1501 145.328 38.0261 145.328 39.3821C145.328 40.7381 144.416 41.6261 143.192 41.6261ZM153.646 36.1421C152.626 36.1421 151.678 36.4301 151.018 36.9581L151.498 37.8221C151.99 37.4021 152.758 37.1381 153.514 37.1381C154.654 37.1381 155.218 37.7021 155.218 38.6741V38.9021H153.394C151.498 38.9021 150.838 39.7421 150.838 40.7621C150.838 41.8661 151.75 42.6341 153.19 42.6341C154.186 42.6341 154.894 42.2981 155.278 41.7221V42.5621H156.37V38.7221C156.37 36.9821 155.386 36.1421 153.646 36.1421ZM153.382 41.7461C152.506 41.7461 151.978 41.3501 151.978 40.7141C151.978 40.1741 152.302 39.7301 153.442 39.7301H155.218V40.6181C154.93 41.3501 154.246 41.7461 153.382 41.7461ZM162.776 39.2621C163.412 39.0101 163.796 38.5181 163.796 37.8341C163.796 36.7901 162.896 36.2021 161.396 36.2021H158.444V42.5621H161.504C163.196 42.5621 164.012 41.9141 164.012 40.8101C164.012 40.0061 163.616 39.4781 162.776 39.2621ZM159.572 37.0901H161.3C162.176 37.0901 162.644 37.3901 162.644 38.0021C162.644 38.6141 162.176 38.9381 161.3 38.9381H159.572V37.0901ZM161.42 41.6741H159.572V39.7661H161.492C162.44 39.7661 162.86 40.0781 162.86 40.7381C162.86 41.3861 162.368 41.6741 161.42 41.6741ZM170.555 36.2021H164.747V37.2101H167.075V42.5621H168.227V37.2101H170.555V36.2021ZM174.176 42.6341C176.084 42.6341 177.476 41.2781 177.476 39.3821C177.476 37.4861 176.084 36.1421 174.176 36.1421C172.268 36.1421 170.864 37.4861 170.864 39.3821C170.864 41.2781 172.268 42.6341 174.176 42.6341ZM174.176 41.6261C172.952 41.6261 172.028 40.7381 172.028 39.3821C172.028 38.0261 172.952 37.1501 174.176 37.1501C175.4 37.1501 176.312 38.0261 176.312 39.3821C176.312 40.7381 175.4 41.6261 174.176 41.6261ZM185.391 36.2021L182.823 40.4981L180.327 36.2021H179.139V42.5621H180.195V37.9061L182.547 41.8421H183.051L185.427 37.9181V42.5621H186.471V36.2021H185.391ZM191.438 42.6341C193.346 42.6341 194.738 41.2781 194.738 39.3821C194.738 37.4861 193.346 36.1421 191.438 36.1421C189.53 36.1421 188.126 37.4861 188.126 39.3821C188.126 41.2781 189.53 42.6341 191.438 42.6341ZM191.438 41.6261C190.214 41.6261 189.29 40.7381 189.29 39.3821C189.29 38.0261 190.214 37.1501 191.438 37.1501C192.662 37.1501 193.574 38.0261 193.574 39.3821C193.574 40.7381 192.662 41.6261 191.438 41.6261ZM202.149 39.4181C202.149 37.4621 200.841 36.1421 199.005 36.1421C197.169 36.1421 195.813 37.4981 195.813 39.3821C195.813 41.2781 197.181 42.6341 199.233 42.6341C200.289 42.6341 201.165 42.2741 201.741 41.6021L201.105 40.8581C200.637 41.3741 200.013 41.6261 199.269 41.6261C198.009 41.6261 197.109 40.8821 196.965 39.7661H202.125C202.137 39.6581 202.149 39.5141 202.149 39.4181ZM199.005 37.1141C200.121 37.1141 200.925 37.8701 201.045 38.9381H196.965C197.085 37.8581 197.901 37.1141 199.005 37.1141ZM208.544 42.5621H209.9L207.32 39.2621L209.732 36.2021H208.496L206.432 38.8901H205.088V36.2021H203.936V42.5621H205.088V39.8741H206.408L208.544 42.5621Z" fill="white"/>
</svg>
