<svg width="235" height="50" viewBox="0 0 235 50" fill="none" xmlns="http://www.w3.org/2000/svg">
<path d="M27 0H0V22.1154H4.76262C6.80799 22.1154 8.67781 23.35 9.59253 25.3045L12.6449 31.8266C13.2072 33.0283 13.5 34.3533 13.5 35.6967V50H36V9.61538C36 4.30495 31.9706 0 27 0Z" fill="#421DD6"/>
<path d="M8.1 50L8.1 45.1923H0V50H8.1Z" fill="#421DD6"/>
<path d="M0 33.6538H10.8L7.49625 26.5946C7.03889 25.6173 6.10398 25 5.0813 25H0V33.6538Z" fill="#421DD6"/>
<path d="M6.74999 37.9808H9.44999L9.60743 37.9905C10.2788 38.0738 10.8 38.6834 10.8 39.4231C10.8 40.2196 10.1956 40.8654 9.44999 40.8654H6.74999L6.59255 40.8557C5.92115 40.7724 5.39999 40.1627 5.39999 39.4231C5.39999 38.6265 6.00441 37.9808 6.74999 37.9808Z" fill="#421DD6"/>
<path d="M55 14.5842C55.0218 19.7656 58.9404 22.378 62.8156 22.3562C66.0593 22.3562 69.4773 20.6581 70.0433 16.3476C68.7153 16.3476 67.5179 16.3476 66.2117 16.3476C65.7981 17.9804 64.4701 18.8077 62.8156 18.8077C60.5079 18.7859 59.0275 16.8266 59.0275 14.5842C59.0275 12.0589 60.5297 10.339 62.8156 10.339C64.4483 10.339 65.6022 11.0356 66.1464 12.5813C67.4744 12.5813 68.65 12.5813 69.978 12.5813C69.3902 8.51029 65.9722 6.79043 62.8156 6.79043C58.9404 6.79043 55.0218 9.40287 55 14.5842Z" fill="black"/>
<path d="M82.7165 22.2038H86.5263V21.6378L79.6469 6.76866H77.9706L71.1129 21.6378V22.2038H74.9228L75.8153 20.288H81.8239L82.7165 22.2038ZM80.5613 16.9572H77.078L78.7979 12.9514L80.5613 16.9572Z" fill="black"/>
<path d="M98.4111 16.8048C102.264 14.1923 101.176 6.98636 95.1891 6.96459C92.9685 6.96459 90.7044 6.96459 88.5056 6.96459C88.5056 12.0589 88.5056 17.1313 88.5056 22.2038C89.7682 22.2038 91.0962 22.2038 92.4025 22.2038V17.7191H94.4271L97.0395 22.2038H101.394V21.6378L98.4111 16.8048ZM95.1891 14.2577H92.4025C92.4025 13.0385 92.4025 11.6888 92.4025 10.4478C93.3168 10.4478 94.2747 10.4261 95.1891 10.4478C97.4096 10.4696 97.3008 14.2577 95.1891 14.2577Z" fill="black"/>
<path d="M111.326 7.20407L108.779 15.3026H108.713L108.038 12.712L106.079 6.96459H102.139V7.55239L107.494 22.3562H109.649L112.088 15.0196H112.153L114.591 22.3562H116.834L122.124 7.55239V6.96459H118.249L116.311 12.712L115.636 15.3026H115.571L112.98 7.20407C112.371 7.20407 111.935 7.20407 111.326 7.20407Z" fill="black"/>
<path d="M133.422 22.2038H137.232V21.6378L130.352 6.76866H128.676L121.818 21.6378V22.2038H125.628L126.521 20.288H132.529L133.422 22.2038ZM131.267 16.9572H127.783L129.503 12.9514L131.267 16.9572Z" fill="black"/>
<path d="M141.932 17.545C140.604 17.545 139.472 17.545 138.166 17.545C138.079 24.2502 150.488 24.1414 150.488 17.7409C150.488 13.9311 147.527 13.4739 144.501 13.1474C143.13 12.995 141.997 12.7555 142.085 11.6017C142.215 9.79474 146.308 9.62057 146.308 11.6452C147.636 11.6452 148.637 11.6452 150.009 11.6452C150.096 5.07057 138.253 5.07057 138.384 11.6452C138.427 14.9543 140.604 16.0864 143.913 16.3258C145.437 16.4129 146.7 16.6524 146.7 17.7191C146.7 19.5043 141.932 19.4825 141.932 17.545Z" fill="black"/>
<path d="M166.041 6.96459C164.713 6.96459 163.385 6.96459 162.058 6.96459V12.4943H157.355V6.96459C156.027 6.96459 154.677 6.96459 153.371 6.96459V22.2038C154.677 22.2038 156.027 22.2038 157.355 22.2038V16.0864H162.058V22.2038C163.385 22.2038 164.713 22.2038 166.041 22.2038V6.96459Z" fill="black"/>
<path d="M181.188 11.6452C181.188 9.011 179.076 6.96459 176.442 6.96459H169.932V22.2038H177.073C180.186 22.2038 181.797 20.0486 181.819 17.3926C181.819 16.0428 181.231 14.9108 179.99 14.2794C180.73 13.6699 181.188 12.5596 181.188 11.6452ZM176.79 16.1517C178.357 16.1517 178.379 18.7423 176.812 18.7423H173.699V16.1517H176.79ZM176.137 10.4478C177.704 10.4478 177.704 12.9079 176.159 12.9079H173.699V10.4478H176.137Z" fill="black"/>
<path d="M190.757 18.9165C189.625 18.9165 188.427 18.3069 188.427 17.066V6.96459C187.208 6.96459 185.924 6.96459 184.704 6.96459V17.1313C184.704 20.484 187.643 22.4215 190.757 22.4215C193.892 22.4215 196.787 20.484 196.787 17.1313V6.96459C195.568 6.96459 194.305 6.96459 193.064 6.96459V17.066C193.064 18.3069 191.889 18.9165 190.757 18.9165Z" fill="black"/>
<path d="M205.096 18.7859V10.3608H206.881V6.96459H199.458V10.3608H201.243V18.7859H199.305V22.2038H207.034V18.7859H205.096Z" fill="black"/>
<path d="M213.479 6.96459C212.151 6.96459 210.867 6.96459 209.561 6.96459V22.2038C212.652 22.2038 215.874 22.2038 219.009 22.2038C219.009 20.8976 219.009 20.005 219.009 18.6988H213.479C213.479 12.2112 213.479 14.8455 213.479 6.96459Z" fill="black"/>
<path d="M227.427 6.96459H221.679V22.2038H227.427C237.354 22.1603 237.354 7.00813 227.427 6.96459ZM225.576 10.5132H227.427C232.281 10.5132 232.281 18.6553 227.427 18.6553H225.576V10.5132Z" fill="black"/>
<g opacity="0.5">
<path d="M55 32.5576V40.9576H56.536V33.8776H60.892V40.9576H62.428V32.5576H55Z" fill="black"/>
<path d="M68.1806 34.4776C67.3046 34.4776 66.5606 34.7776 66.0566 35.3896V34.5496H64.6286V43.2856H66.1286V40.1776C66.6446 40.7656 67.3646 41.0416 68.1806 41.0416C70.0526 41.0416 71.4326 39.7456 71.4326 37.7536C71.4326 35.7736 70.0526 34.4776 68.1806 34.4776ZM68.0126 39.7576C66.9326 39.7576 66.1046 38.9776 66.1046 37.7536C66.1046 36.5296 66.9326 35.7496 68.0126 35.7496C69.0926 35.7496 69.9086 36.5296 69.9086 37.7536C69.9086 38.9776 69.0926 39.7576 68.0126 39.7576Z" fill="black"/>
<path d="M75.7815 41.0416C77.7735 41.0416 79.2015 39.6736 79.2015 37.7536C79.2015 35.8336 77.7735 34.4776 75.7815 34.4776C73.8135 34.4776 72.3735 35.8336 72.3735 37.7536C72.3735 39.6736 73.8135 41.0416 75.7815 41.0416ZM75.7815 39.7576C74.7015 39.7576 73.8855 38.9776 73.8855 37.7536C73.8855 36.5296 74.7015 35.7496 75.7815 35.7496C76.8735 35.7496 77.6895 36.5296 77.6895 37.7536C77.6895 38.9776 76.8735 39.7576 75.7815 39.7576Z" fill="black"/>
<path d="M80.6833 40.9576H82.0633L85.5913 36.7336V40.9576H87.0913V34.5496H85.7233L82.1833 38.7736V34.5496H80.6833V40.9576Z" fill="black"/>
<path d="M92.855 37.6216C93.515 37.3576 93.935 36.8416 93.935 36.2176C93.935 35.1616 92.735 34.4536 91.091 34.4536C90.251 34.4536 89.423 34.6336 88.547 35.0416L88.931 36.1456C89.639 35.8336 90.311 35.6776 90.959 35.6776C91.859 35.6776 92.399 35.9656 92.399 36.4336C92.399 36.9016 91.955 37.1656 91.199 37.1656H90.071V38.1736H91.319C92.123 38.1736 92.579 38.4496 92.579 38.9536C92.579 39.5056 91.967 39.8296 90.971 39.8296C90.179 39.8296 89.363 39.6256 88.739 39.2776L88.307 40.3936C89.075 40.8256 90.059 41.0656 91.043 41.0656C92.831 41.0656 94.115 40.2616 94.115 39.0736C94.115 38.3656 93.647 37.8496 92.855 37.6216Z" fill="black"/>
<path d="M100.304 37.6216C100.916 37.3576 101.288 36.8656 101.288 36.2056C101.288 35.1496 100.352 34.5496 98.7918 34.5496H95.6598V40.9576H98.9238C100.652 40.9576 101.492 40.2856 101.492 39.1576C101.492 38.3776 101.096 37.8616 100.304 37.6216ZM97.0878 35.6416H98.6598C99.4278 35.6416 99.8238 35.8936 99.8238 36.4216C99.8238 36.9496 99.4278 37.2256 98.6598 37.2256H97.0878V35.6416ZM98.8038 39.8656H97.0878V38.2216H98.8518C99.6678 38.2216 100.04 38.4976 100.04 39.0616C100.04 39.6136 99.6078 39.8656 98.8038 39.8656Z" fill="black"/>
<path d="M105.946 41.0416C107.938 41.0416 109.366 39.6736 109.366 37.7536C109.366 35.8336 107.938 34.4776 105.946 34.4776C103.978 34.4776 102.538 35.8336 102.538 37.7536C102.538 39.6736 103.978 41.0416 105.946 41.0416ZM105.946 39.7576C104.866 39.7576 104.05 38.9776 104.05 37.7536C104.05 36.5296 104.866 35.7496 105.946 35.7496C107.038 35.7496 107.854 36.5296 107.854 37.7536C107.854 38.9776 107.038 39.7576 105.946 39.7576Z" fill="black"/>
<path d="M116.669 39.6856V34.5496H111.389L111.305 36.7456C111.233 38.2456 111.077 39.6496 110.177 39.6856H109.877V42.3856H111.269V40.9576H116.213V42.3856H117.617V39.6856H116.669ZM112.673 36.8536L112.709 35.8216H115.169V39.6856H112.013C112.529 39.1936 112.625 38.0536 112.673 36.8536Z" fill="black"/>
<path d="M121.873 41.0416C123.121 41.0416 124.117 40.5016 124.609 39.5416L123.457 38.8696C123.073 39.4816 122.497 39.7576 121.861 39.7576C120.757 39.7576 119.917 39.0016 119.917 37.7536C119.917 36.5176 120.757 35.7496 121.861 35.7496C122.497 35.7496 123.073 36.0256 123.457 36.6376L124.609 35.9656C124.117 34.9936 123.121 34.4776 121.873 34.4776C119.845 34.4776 118.405 35.8336 118.405 37.7536C118.405 39.6736 119.845 41.0416 121.873 41.0416Z" fill="black"/>
<path d="M130.947 34.5496H124.947V35.8216H127.203V40.9576H128.703V35.8216H130.947V34.5496Z" fill="black"/>
<path d="M136.679 37.6216C137.291 37.3576 137.663 36.8656 137.663 36.2056C137.663 35.1496 136.727 34.5496 135.167 34.5496H132.035V40.9576H135.299C137.027 40.9576 137.867 40.2856 137.867 39.1576C137.867 38.3776 137.471 37.8616 136.679 37.6216ZM133.463 35.6416H135.035C135.803 35.6416 136.199 35.8936 136.199 36.4216C136.199 36.9496 135.803 37.2256 135.035 37.2256H133.463V35.6416ZM135.179 39.8656H133.463V38.2216H135.227C136.043 38.2216 136.415 38.4976 136.415 39.0616C136.415 39.6136 135.983 39.8656 135.179 39.8656Z" fill="black"/>
<path d="M142.321 41.0416C144.313 41.0416 145.741 39.6736 145.741 37.7536C145.741 35.8336 144.313 34.4776 142.321 34.4776C140.353 34.4776 138.913 35.8336 138.913 37.7536C138.913 39.6736 140.353 41.0416 142.321 41.0416ZM142.321 39.7576C141.241 39.7576 140.425 38.9776 140.425 37.7536C140.425 36.5296 141.241 35.7496 142.321 35.7496C143.413 35.7496 144.229 36.5296 144.229 37.7536C144.229 38.9776 143.413 39.7576 142.321 39.7576Z" fill="black"/>
<path d="M152.927 34.4776C151.895 34.4776 150.899 34.7416 150.215 35.2696L150.803 36.3616C151.283 35.9656 152.027 35.7256 152.747 35.7256C153.815 35.7256 154.343 36.2416 154.343 37.1176V37.2136H152.687C150.743 37.2136 150.023 38.0536 150.023 39.1216C150.023 40.2376 150.947 41.0416 152.411 41.0416C153.371 41.0416 154.067 40.7296 154.427 40.1776V40.9576H155.843V37.2016C155.843 35.3536 154.775 34.4776 152.927 34.4776ZM152.723 39.9496C151.955 39.9496 151.499 39.6016 151.499 39.0616C151.499 38.5936 151.775 38.2096 152.795 38.2096H154.343V38.9536C154.091 39.6136 153.455 39.9496 152.723 39.9496Z" fill="black"/>
<path d="M162.343 37.6216C162.955 37.3576 163.327 36.8656 163.327 36.2056C163.327 35.1496 162.391 34.5496 160.831 34.5496H157.699V40.9576H160.963C162.691 40.9576 163.531 40.2856 163.531 39.1576C163.531 38.3776 163.135 37.8616 162.343 37.6216ZM159.127 35.6416H160.699C161.467 35.6416 161.863 35.8936 161.863 36.4216C161.863 36.9496 161.467 37.2256 160.699 37.2256H159.127V35.6416ZM160.843 39.8656H159.127V38.2216H160.891C161.707 38.2216 162.079 38.4976 162.079 39.0616C162.079 39.6136 161.647 39.8656 160.843 39.8656Z" fill="black"/>
<path d="M170.205 34.5496H164.205V35.8216H166.461V40.9576H167.961V35.8216H170.205V34.5496Z" fill="black"/>
<path d="M173.867 41.0416C175.859 41.0416 177.287 39.6736 177.287 37.7536C177.287 35.8336 175.859 34.4776 173.867 34.4776C171.899 34.4776 170.459 35.8336 170.459 37.7536C170.459 39.6736 171.899 41.0416 173.867 41.0416ZM173.867 39.7576C172.787 39.7576 171.971 38.9776 171.971 37.7536C171.971 36.5296 172.787 35.7496 173.867 35.7496C174.959 35.7496 175.775 36.5296 175.775 37.7536C175.775 38.9776 174.959 39.7576 173.867 39.7576Z" fill="black"/>
<path d="M186.425 40.9576L186.413 34.5496H185.009L182.621 38.5576L180.341 34.5496H178.769V40.9576H180.137V36.6976L182.261 40.2856H182.909L185.069 36.7096V40.9576H186.425Z" fill="black"/>
<path d="M191.293 41.0416C193.285 41.0416 194.713 39.6736 194.713 37.7536C194.713 35.8336 193.285 34.4776 191.293 34.4776C189.325 34.4776 187.885 35.8336 187.885 37.7536C187.885 39.6736 189.325 41.0416 191.293 41.0416ZM191.293 39.7576C190.213 39.7576 189.397 38.9776 189.397 37.7536C189.397 36.5296 190.213 35.7496 191.293 35.7496C192.385 35.7496 193.201 36.5296 193.201 37.7536C193.201 38.9776 192.385 39.7576 191.293 39.7576Z" fill="black"/>
<path d="M202.195 37.7896C202.195 35.7856 200.827 34.4776 198.955 34.4776C197.047 34.4776 195.643 35.8456 195.643 37.7536C195.643 39.6616 197.035 41.0416 199.183 41.0416C200.287 41.0416 201.187 40.6816 201.763 39.9976L200.959 39.0736C200.503 39.5416 199.939 39.7696 199.219 39.7696C198.103 39.7696 197.323 39.1696 197.143 38.2336H202.171C202.183 38.0896 202.195 37.9096 202.195 37.7896ZM198.955 35.6776C199.939 35.6776 200.647 36.3136 200.767 37.2376H197.131C197.275 36.3016 197.983 35.6776 198.955 35.6776Z" fill="black"/>
<path d="M208.432 40.9576H210.196L207.712 37.6336L210.04 34.5496H208.432L206.536 37.1416H205.336V34.5496H203.836V40.9576H205.336V38.3896H206.5L208.432 40.9576Z" fill="black"/>
</g>
</svg>
