<svg width="163" height="54" viewBox="0 0 163 54" fill="none" xmlns="http://www.w3.org/2000/svg">
<path d="M4.47638 22.6819L1 25.7237L98.9906 52.8829L162 35.7183L158.524 32.2419L53.7976 8.12451L4.47638 22.6819Z" fill="white" stroke="#838383" stroke-width="0.360179" stroke-linecap="round"/>
<path d="M111.484 47.0146L112.027 46.4715" stroke="#838383" stroke-width="0.360179" stroke-linecap="round"/>
<path d="M106.595 49.0791L107.138 48.5359" stroke="#838383" stroke-width="0.360179" stroke-linecap="round"/>
<path d="M121.153 44.5161L120.609 45.0593" stroke="#838383" stroke-width="0.360179" stroke-linecap="round"/>
<path d="M108.877 47.3408L108.333 46.7976" stroke="#838383" stroke-width="0.360179" stroke-linecap="round"/>
<path d="M104.531 49.2961L103.988 48.753" stroke="#838383" stroke-width="0.360179" stroke-linecap="round"/>
<path d="M123.76 44.1899L124.303 44.7331" stroke="#838383" stroke-width="0.360179" stroke-linecap="round"/>
<path d="M110.615 48.427V47.9925" stroke="#838383" stroke-width="0.360179" stroke-linecap="round"/>
<path d="M122.021 43.1038V43.5383" stroke="#838383" stroke-width="0.360179" stroke-linecap="round"/>
<path d="M114.852 46.1455L115.395 46.6887" stroke="#838383" stroke-width="0.360179" stroke-linecap="round"/>
<path d="M117.785 45.3853L117.242 44.8421" stroke="#838383" stroke-width="0.360179" stroke-linecap="round"/>
<path d="M101.489 50.3826L100.946 49.8394" stroke="#838383" stroke-width="0.360179" stroke-linecap="round"/>
<path d="M139.404 39.519L138.861 40.0622" stroke="#838383" stroke-width="0.360179" stroke-linecap="round"/>
<path d="M144.292 37.4546L143.749 37.9978" stroke="#838383" stroke-width="0.360179" stroke-linecap="round"/>
<path d="M129.735 42.0176L130.278 41.4744" stroke="#838383" stroke-width="0.360179" stroke-linecap="round"/>
<path d="M142.011 39.1931L142.554 39.7363" stroke="#838383" stroke-width="0.360179" stroke-linecap="round"/>
<path d="M152.005 34.6301L152.549 35.1733" stroke="#838383" stroke-width="0.360179" stroke-linecap="round"/>
<path d="M146.356 37.2375L146.899 37.7807" stroke="#838383" stroke-width="0.360179" stroke-linecap="round"/>
<path d="M127.127 42.3435L126.584 41.8003" stroke="#838383" stroke-width="0.360179" stroke-linecap="round"/>
<path d="M140.273 38.1064V38.541" stroke="#838383" stroke-width="0.360179" stroke-linecap="round"/>
<path d="M128.866 43.4299V42.9954" stroke="#838383" stroke-width="0.360179" stroke-linecap="round"/>
<path d="M136.036 40.3879L135.493 39.8448" stroke="#838383" stroke-width="0.360179" stroke-linecap="round"/>
<path d="M133.103 41.1484L133.646 41.6916" stroke="#838383" stroke-width="0.360179" stroke-linecap="round"/>
<path d="M149.398 36.1511L149.941 36.6943" stroke="#838383" stroke-width="0.360179" stroke-linecap="round"/>
<path d="M156.351 35.4993L156.894 36.0425" stroke="#838383" stroke-width="0.360179" stroke-linecap="round"/>
<path d="M157.003 33.5437L157.546 34.0869" stroke="#838383" stroke-width="0.360179" stroke-linecap="round"/>
<path d="M99.3482 48.0938L4.58508 22.6802L53.5804 8.01416L158.397 32.1713L99.3482 48.0938Z" fill="white" stroke="#838383" stroke-width="0.265276" stroke-linecap="round" stroke-linejoin="round"/>
<path d="M7.84399 25.3958L8.38718 25.9389" stroke="#838383" stroke-width="0.360179" stroke-linecap="round"/>
<path d="M17.5126 27.8945L16.9694 27.3513" stroke="#838383" stroke-width="0.360179" stroke-linecap="round"/>
<path d="M5.23682 25.0701L4.69363 25.6133" stroke="#838383" stroke-width="0.360179" stroke-linecap="round"/>
<path d="M20.1199 28.2205L20.6631 27.6773" stroke="#838383" stroke-width="0.360179" stroke-linecap="round"/>
<path d="M6.97498 23.9834V24.4179" stroke="#838383" stroke-width="0.360179" stroke-linecap="round"/>
<path d="M18.3817 29.3066V28.8721" stroke="#838383" stroke-width="0.360179" stroke-linecap="round"/>
<path d="M11.2118 26.2649L11.755 25.7217" stroke="#838383" stroke-width="0.360179" stroke-linecap="round"/>
<path d="M14.145 27.0254L13.6018 27.5686" stroke="#838383" stroke-width="0.360179" stroke-linecap="round"/>
<path d="M58.9033 39.3015L59.4465 39.8447" stroke="#838383" stroke-width="0.360179" stroke-linecap="round"/>
<path d="M68.5719 41.8L68.0287 41.2569" stroke="#838383" stroke-width="0.360179" stroke-linecap="round"/>
<path d="M56.2961 38.9756L55.753 39.5188" stroke="#838383" stroke-width="0.360179" stroke-linecap="round"/>
<path d="M71.1796 42.1262L71.7228 41.583" stroke="#838383" stroke-width="0.360179" stroke-linecap="round"/>
<path d="M58.0343 37.8892V38.3237" stroke="#838383" stroke-width="0.360179" stroke-linecap="round"/>
<path d="M69.441 43.2124V42.7779" stroke="#838383" stroke-width="0.360179" stroke-linecap="round"/>
<path d="M62.2711 40.1707L62.8143 39.6275" stroke="#838383" stroke-width="0.360179" stroke-linecap="round"/>
<path d="M65.2043 40.9309L64.6612 41.4741" stroke="#838383" stroke-width="0.360179" stroke-linecap="round"/>
<path d="M34.6775 33.1096L34.1343 32.5664" stroke="#838383" stroke-width="0.360179" stroke-linecap="round"/>
<path d="M25.0087 30.6108L25.5519 31.154" stroke="#838383" stroke-width="0.360179" stroke-linecap="round"/>
<path d="M37.2849 33.4355L37.8281 32.8924" stroke="#838383" stroke-width="0.360179" stroke-linecap="round"/>
<path d="M22.4017 30.2849L21.8585 30.8281" stroke="#838383" stroke-width="0.360179" stroke-linecap="round"/>
<path d="M35.5465 34.5217V34.0872" stroke="#838383" stroke-width="0.360179" stroke-linecap="round"/>
<path d="M24.1396 29.1987V29.6333" stroke="#838383" stroke-width="0.360179" stroke-linecap="round"/>
<path d="M31.3097 32.2402L30.7665 32.7834" stroke="#838383" stroke-width="0.360179" stroke-linecap="round"/>
<path d="M28.3765 31.48L28.9196 30.9368" stroke="#838383" stroke-width="0.360179" stroke-linecap="round"/>
<path d="M85.7371 47.0149L85.1939 46.4717" stroke="#838383" stroke-width="0.360179" stroke-linecap="round"/>
<path d="M90.6256 49.0791L90.0824 48.5359" stroke="#838383" stroke-width="0.360179" stroke-linecap="round"/>
<path d="M76.0684 44.5161L76.6115 45.0593" stroke="#838383" stroke-width="0.360179" stroke-linecap="round"/>
<path d="M88.3441 47.3408L88.8873 46.7976" stroke="#838383" stroke-width="0.360179" stroke-linecap="round"/>
<path d="M92.6896 49.2961L93.2328 48.753" stroke="#838383" stroke-width="0.360179" stroke-linecap="round"/>
<path d="M73.4611 44.1899L72.9179 44.7331" stroke="#838383" stroke-width="0.360179" stroke-linecap="round"/>
<path d="M86.6062 48.427V47.9925" stroke="#838383" stroke-width="0.360179" stroke-linecap="round"/>
<path d="M75.1993 43.104V43.5386" stroke="#838383" stroke-width="0.360179" stroke-linecap="round"/>
<path d="M82.3694 46.1455L81.8262 46.6887" stroke="#838383" stroke-width="0.360179" stroke-linecap="round"/>
<path d="M79.4358 45.3853L79.979 44.8421" stroke="#838383" stroke-width="0.360179" stroke-linecap="round"/>
<path d="M95.7314 50.3826L96.2746 49.8394" stroke="#838383" stroke-width="0.360179" stroke-linecap="round"/>
<path d="M51.299 37.4546L51.8421 36.9114" stroke="#838383" stroke-width="0.360179" stroke-linecap="round"/>
<path d="M42.1733 34.9558L42.7165 35.499" stroke="#838383" stroke-width="0.360179" stroke-linecap="round"/>
<path d="M54.4493 37.781L54.9925 37.2378" stroke="#838383" stroke-width="0.360179" stroke-linecap="round"/>
<path d="M39.566 34.6301L39.0229 35.1733" stroke="#838383" stroke-width="0.360179" stroke-linecap="round"/>
<path d="M52.7112 38.8672V38.4326" stroke="#838383" stroke-width="0.360179" stroke-linecap="round"/>
<path d="M41.3043 33.5439V33.9785" stroke="#838383" stroke-width="0.360179" stroke-linecap="round"/>
<path d="M48.4744 36.5857L47.9312 37.1289" stroke="#838383" stroke-width="0.360179" stroke-linecap="round"/>
<path d="M46.0844 35.8254L45.5412 35.2823" stroke="#838383" stroke-width="0.360179" stroke-linecap="round"/>
<path d="M99.3164 48.1011L98.9905 52.8811" stroke="#838383" stroke-width="0.360179" stroke-linecap="round"/>
<path d="M99.3484 48.0934L4.69385 22.8096V21.3577L53.5813 6.79543L158.397 30.7191V32.171L99.3484 48.0934Z" fill="white" stroke="#838383" stroke-width="0.265276" stroke-linecap="round" stroke-linejoin="round"/>
<path d="M99.3484 46.6669L4.69385 21.383L53.5813 6.8208L158.397 30.7445L99.3484 46.6669Z" fill="white" stroke="#838383" stroke-width="0.265276" stroke-linecap="round" stroke-linejoin="round"/>
<path d="M99.4253 46.5803L99.3167 48.1011" stroke="#838383" stroke-width="0.360179" stroke-linecap="round"/>
<circle r="0.108637" transform="matrix(-1 0 0 1 98.2296 47.1235)" fill="#838383"/>
<circle r="0.108637" transform="matrix(-1 0 0 1 96.7087 46.4717)" fill="#838383"/>
<circle r="0.108637" transform="matrix(-1 0 0 1 97.1432 47.1235)" fill="#838383"/>
<circle r="0.108637" transform="matrix(-1 0 0 1 95.4052 46.4717)" fill="#838383"/>
<circle r="0.108637" transform="matrix(-1 0 0 1 94.1013 45.6025)" fill="#838383"/>
<circle r="0.108637" transform="matrix(-1 0 0 1 94.5359 46.4717)" fill="#838383"/>
<circle r="0.108637" transform="matrix(-1 0 0 1 95.1879 46.0371)" fill="#838383"/>
<circle r="0.108637" transform="matrix(1 0 0 -1 89.1044 44.5161)" fill="#838383"/>
<circle r="0.108637" transform="matrix(1 0 0 -1 90.6255 45.168)" fill="#838383"/>
<circle r="0.108637" transform="matrix(1 0 0 -1 90.1909 44.5161)" fill="#838383"/>
<circle r="0.108637" transform="matrix(1 0 0 -1 91.9289 45.168)" fill="#838383"/>
<circle r="0.108637" transform="matrix(1 0 0 -1 93.2325 46.0371)" fill="#838383"/>
<circle r="0.108637" transform="matrix(1 0 0 -1 92.7981 45.168)" fill="#838383"/>
<circle r="0.108637" transform="matrix(1 0 0 -1 92.1466 45.6025)" fill="#838383"/>
<circle r="0.108637" transform="matrix(1 0 0 -1 84.3246 43.2122)" fill="#838383"/>
<circle r="0.108637" transform="matrix(1 0 0 -1 85.8451 43.864)" fill="#838383"/>
<circle r="0.108637" transform="matrix(1 0 0 -1 85.4106 43.2122)" fill="#838383"/>
<circle r="0.108637" transform="matrix(1 0 0 -1 83.6725 43.2122)" fill="#838383"/>
<circle r="0.108637" transform="matrix(1 0 0 -1 87.1489 43.864)" fill="#838383"/>
<circle r="0.108637" transform="matrix(1 0 0 -1 88.4525 44.7332)" fill="#838383"/>
<circle r="0.108637" transform="matrix(1 0 0 -1 88.2352 44.2986)" fill="#838383"/>
<circle r="0.108637" transform="matrix(1 0 0 -1 87.3661 44.2986)" fill="#838383"/>
<circle r="0.108637" transform="matrix(1 0 0 -1 68.2461 38.8669)" fill="#838383"/>
<circle r="0.108637" transform="matrix(1 0 0 -1 69.7672 39.5188)" fill="#838383"/>
<circle r="0.108637" transform="matrix(1 0 0 -1 69.3326 38.8669)" fill="#838383"/>
<circle r="0.108637" transform="matrix(1 0 0 -1 71.0707 39.5188)" fill="#838383"/>
<circle r="0.108637" transform="matrix(1 0 0 -1 72.3745 40.3879)" fill="#838383"/>
<circle r="0.108637" transform="matrix(1 0 0 -1 71.9399 39.5188)" fill="#838383"/>
<circle r="0.108637" transform="matrix(1 0 0 -1 71.288 39.9534)" fill="#838383"/>
<circle r="0.108637" transform="matrix(-1 0 0 1 77.372 41.4741)" fill="#838383"/>
<circle r="0.108637" transform="matrix(-1 0 0 1 75.851 40.8223)" fill="#838383"/>
<circle r="0.108637" transform="matrix(-1 0 0 1 76.2857 41.4741)" fill="#838383"/>
<circle r="0.108637" transform="matrix(-1 0 0 1 74.5475 40.8223)" fill="#838383"/>
<circle r="0.108637" transform="matrix(-1 0 0 1 73.2438 39.9531)" fill="#838383"/>
<circle r="0.108637" transform="matrix(-1 0 0 1 73.6781 40.8223)" fill="#838383"/>
<circle r="0.108637" transform="matrix(-1 0 0 1 74.33 40.3877)" fill="#838383"/>
<circle r="0.108637" transform="matrix(-1 0 0 1 82.1515 42.7778)" fill="#838383"/>
<circle r="0.108637" transform="matrix(-1 0 0 1 80.631 42.126)" fill="#838383"/>
<circle r="0.108637" transform="matrix(-1 0 0 1 81.0656 42.7778)" fill="#838383"/>
<circle r="0.108637" transform="matrix(-1 0 0 1 82.8036 42.7778)" fill="#838383"/>
<circle r="0.108637" transform="matrix(-1 0 0 1 79.3269 42.126)" fill="#838383"/>
<circle r="0.108637" transform="matrix(-1 0 0 1 78.0237 41.2571)" fill="#838383"/>
<circle r="0.108637" transform="matrix(-1 0 0 1 78.241 41.6914)" fill="#838383"/>
<circle r="0.108637" transform="matrix(-1 0 0 1 79.11 41.6914)" fill="#838383"/>
<circle r="0.108637" transform="matrix(-1 0 0 1 19.7937 26.2656)" fill="#838383"/>
<circle r="0.108637" transform="matrix(-1 0 0 1 18.2727 25.6138)" fill="#838383"/>
<circle r="0.108637" transform="matrix(-1 0 0 1 18.7072 26.2656)" fill="#838383"/>
<circle r="0.108637" transform="matrix(-1 0 0 1 16.9691 25.6138)" fill="#838383"/>
<circle r="0.108637" transform="matrix(-1 0 0 1 15.6653 24.7446)" fill="#838383"/>
<circle r="0.108637" transform="matrix(-1 0 0 1 16.0999 25.6138)" fill="#838383"/>
<circle r="0.108637" transform="matrix(-1 0 0 1 16.7518 25.1792)" fill="#838383"/>
<circle r="0.108637" transform="matrix(1 0 0 -1 10.6682 23.658)" fill="#838383"/>
<circle r="0.108637" transform="matrix(1 0 0 -1 12.1891 24.3096)" fill="#838383"/>
<circle r="0.108637" transform="matrix(1 0 0 -1 11.7545 23.658)" fill="#838383"/>
<circle r="0.108637" transform="matrix(1 0 0 -1 13.4928 24.3096)" fill="#838383"/>
<circle r="0.108637" transform="matrix(1 0 0 -1 14.7964 25.1787)" fill="#838383"/>
<circle r="0.108637" transform="matrix(1 0 0 -1 14.3619 24.3096)" fill="#838383"/>
<circle r="0.108637" transform="matrix(1 0 0 -1 13.7101 24.7441)" fill="#838383"/>
<circle r="0.108637" transform="matrix(1 0 0 -1 5.8883 22.3547)" fill="#838383"/>
<circle r="0.108637" transform="matrix(1 0 0 -1 7.40905 23.0066)" fill="#838383"/>
<circle r="0.108637" transform="matrix(1 0 0 -1 6.9746 22.3547)" fill="#838383"/>
<circle r="0.108637" transform="matrix(1 0 0 -1 5.23632 22.3547)" fill="#838383"/>
<circle r="0.108637" transform="matrix(1 0 0 -1 8.71276 23.0066)" fill="#838383"/>
<circle r="0.108637" transform="matrix(1 0 0 -1 10.0164 23.8755)" fill="#838383"/>
<circle r="0.108637" transform="matrix(1 0 0 -1 9.79919 23.4409)" fill="#838383"/>
<circle r="0.108637" transform="matrix(1 0 0 -1 8.93017 23.4409)" fill="#838383"/>
<circle r="0.108637" transform="matrix(1 0 0 -1 53.037 34.739)" fill="#838383"/>
<circle r="0.108637" transform="matrix(1 0 0 -1 54.5577 35.3906)" fill="#838383"/>
<circle r="0.108637" transform="matrix(1 0 0 -1 54.1233 34.739)" fill="#838383"/>
<circle r="0.108637" transform="matrix(1 0 0 -1 55.8617 35.3906)" fill="#838383"/>
<circle r="0.108637" transform="matrix(1 0 0 -1 57.1653 36.26)" fill="#838383"/>
<circle r="0.108637" transform="matrix(1 0 0 -1 56.7306 35.3906)" fill="#838383"/>
<circle r="0.108637" transform="matrix(1 0 0 -1 56.0789 35.8254)" fill="#838383"/>
<circle r="0.108637" transform="matrix(-1 0 0 1 62.1622 37.3462)" fill="#838383"/>
<circle r="0.108637" transform="matrix(-1 0 0 1 60.6412 36.6943)" fill="#838383"/>
<circle r="0.108637" transform="matrix(-1 0 0 1 61.0759 37.3462)" fill="#838383"/>
<circle r="0.108637" transform="matrix(-1 0 0 1 59.3377 36.6943)" fill="#838383"/>
<circle r="0.108637" transform="matrix(-1 0 0 1 58.0338 35.8252)" fill="#838383"/>
<circle r="0.108637" transform="matrix(-1 0 0 1 58.4684 36.6943)" fill="#838383"/>
<circle r="0.108637" transform="matrix(-1 0 0 1 59.1204 36.2598)" fill="#838383"/>
<circle r="0.108637" transform="matrix(-1 0 0 1 66.9424 38.6497)" fill="#838383"/>
<circle r="0.108637" transform="matrix(-1 0 0 1 65.4214 37.9978)" fill="#838383"/>
<circle r="0.108637" transform="matrix(-1 0 0 1 65.8558 38.6497)" fill="#838383"/>
<circle r="0.108637" transform="matrix(-1 0 0 1 67.5941 38.6497)" fill="#838383"/>
<circle r="0.108637" transform="matrix(-1 0 0 1 64.1178 37.9978)" fill="#838383"/>
<circle r="0.108637" transform="matrix(-1 0 0 1 62.8141 37.1287)" fill="#838383"/>
<circle r="0.108637" transform="matrix(-1 0 0 1 63.0314 37.5632)" fill="#838383"/>
<circle r="0.108637" transform="matrix(-1 0 0 1 63.9005 37.5632)" fill="#838383"/>
<circle r="0.108637" transform="matrix(-1 0 0 1 35.0034 30.3935)" fill="#838383"/>
<circle r="0.108637" transform="matrix(-1 0 0 1 33.4822 29.7417)" fill="#838383"/>
<circle r="0.108637" transform="matrix(-1 0 0 1 33.9168 30.3935)" fill="#838383"/>
<circle r="0.108637" transform="matrix(-1 0 0 1 32.1788 29.7417)" fill="#838383"/>
<circle r="0.108637" transform="matrix(-1 0 0 1 30.8749 28.8726)" fill="#838383"/>
<circle r="0.108637" transform="matrix(-1 0 0 1 31.3097 29.7417)" fill="#838383"/>
<circle r="0.108637" transform="matrix(-1 0 0 1 31.9616 29.3069)" fill="#838383"/>
<circle r="0.108637" transform="matrix(1 0 0 -1 25.8777 27.7864)" fill="#838383"/>
<circle r="0.108637" transform="matrix(1 0 0 -1 27.3986 28.438)" fill="#838383"/>
<circle r="0.108637" transform="matrix(1 0 0 -1 26.964 27.7864)" fill="#838383"/>
<circle r="0.108637" transform="matrix(1 0 0 -1 28.702 28.438)" fill="#838383"/>
<circle r="0.108637" transform="matrix(1 0 0 -1 30.0061 29.3071)" fill="#838383"/>
<circle r="0.108637" transform="matrix(1 0 0 -1 29.571 28.438)" fill="#838383"/>
<circle r="0.108637" transform="matrix(1 0 0 -1 28.9196 28.8726)" fill="#838383"/>
<circle r="0.108637" transform="matrix(1 0 0 -1 21.0978 26.4824)" fill="#838383"/>
<circle r="0.108637" transform="matrix(1 0 0 -1 22.6185 27.1343)" fill="#838383"/>
<circle r="0.108637" transform="matrix(1 0 0 -1 22.1842 26.4824)" fill="#838383"/>
<circle r="0.108637" transform="matrix(1 0 0 -1 20.4458 26.4824)" fill="#838383"/>
<circle r="0.108637" transform="matrix(1 0 0 -1 23.9222 27.1343)" fill="#838383"/>
<circle r="0.108637" transform="matrix(1 0 0 -1 25.2261 28.0032)" fill="#838383"/>
<circle r="0.108637" transform="matrix(1 0 0 -1 25.0088 27.5689)" fill="#838383"/>
<circle r="0.108637" transform="matrix(1 0 0 -1 24.1396 27.5689)" fill="#838383"/>
<circle r="0.108637" transform="matrix(1 0 0 -1 40.6523 31.4805)" fill="#838383"/>
<circle r="0.108637" transform="matrix(1 0 0 -1 42.1732 32.1318)" fill="#838383"/>
<circle r="0.108637" transform="matrix(1 0 0 -1 41.7388 31.4805)" fill="#838383"/>
<circle r="0.108637" transform="matrix(1 0 0 -1 43.4769 32.1318)" fill="#838383"/>
<circle r="0.108637" transform="matrix(1 0 0 -1 44.7805 33.001)" fill="#838383"/>
<circle r="0.108637" transform="matrix(1 0 0 -1 44.3461 32.1318)" fill="#838383"/>
<circle r="0.108637" transform="matrix(1 0 0 -1 43.6942 32.5664)" fill="#838383"/>
<circle r="0.108637" transform="matrix(-1 0 0 1 49.7781 34.0874)" fill="#838383"/>
<circle r="0.108637" transform="matrix(-1 0 0 1 48.2567 33.4355)" fill="#838383"/>
<circle r="0.108637" transform="matrix(-1 0 0 1 48.6918 34.0874)" fill="#838383"/>
<circle r="0.108637" transform="matrix(-1 0 0 1 46.9533 33.4355)" fill="#838383"/>
<circle r="0.108637" transform="matrix(-1 0 0 1 45.6497 32.5664)" fill="#838383"/>
<circle r="0.108637" transform="matrix(-1 0 0 1 46.0842 33.4355)" fill="#838383"/>
<circle r="0.108637" transform="matrix(-1 0 0 1 46.7361 33.001)" fill="#838383"/>
<circle r="0.108637" transform="matrix(-1 0 0 1 54.5579 35.3911)" fill="#838383"/>
<circle r="0.108637" transform="matrix(-1 0 0 1 53.0371 34.7393)" fill="#838383"/>
<circle r="0.108637" transform="matrix(-1 0 0 1 53.4716 35.3911)" fill="#838383"/>
<circle r="0.108637" transform="matrix(-1 0 0 1 55.2097 35.3911)" fill="#838383"/>
<circle r="0.108637" transform="matrix(-1 0 0 1 51.7336 34.7393)" fill="#838383"/>
<circle r="0.108637" transform="matrix(-1 0 0 1 50.4297 33.8701)" fill="#838383"/>
<circle r="0.108637" transform="matrix(-1 0 0 1 50.647 34.3047)" fill="#838383"/>
<circle r="0.108637" transform="matrix(-1 0 0 1 51.5164 34.3047)" fill="#838383"/>
<circle r="0.108637" transform="matrix(-1 0 0 1 47.3877 33.6528)" fill="#838383"/>
<circle r="0.108637" transform="matrix(-1 0 0 1 45.8672 33.0007)" fill="#838383"/>
<circle r="0.108637" transform="matrix(-1 0 0 1 46.3016 33.6528)" fill="#838383"/>
<circle r="0.108637" transform="matrix(-1 0 0 1 44.5631 33.0007)" fill="#838383"/>
<circle r="0.108637" transform="matrix(-1 0 0 1 43.2595 32.1316)" fill="#838383"/>
<circle r="0.108637" transform="matrix(-1 0 0 1 43.6941 33.0007)" fill="#838383"/>
<circle r="0.108637" transform="matrix(-1 0 0 1 44.3458 32.5662)" fill="#838383"/>
<circle r="0.108637" transform="matrix(1 0 0 -1 38.2627 31.0452)" fill="#838383"/>
<circle r="0.108637" transform="matrix(1 0 0 -1 39.7834 31.697)" fill="#838383"/>
<circle r="0.108637" transform="matrix(1 0 0 -1 39.3486 31.0452)" fill="#838383"/>
<circle r="0.108637" transform="matrix(1 0 0 -1 41.087 31.697)" fill="#838383"/>
<circle r="0.108637" transform="matrix(1 0 0 -1 42.3907 32.5662)" fill="#838383"/>
<circle r="0.108637" transform="matrix(1 0 0 -1 41.9559 31.697)" fill="#838383"/>
<circle r="0.108637" transform="matrix(1 0 0 -1 41.3043 32.1316)" fill="#838383"/>
<circle r="0.108637" transform="matrix(1 0 0 -1 33.4824 29.7415)" fill="#838383"/>
<circle r="0.108637" transform="matrix(1 0 0 -1 35.0034 30.3933)" fill="#838383"/>
<circle r="0.108637" transform="matrix(1 0 0 -1 34.5688 29.7415)" fill="#838383"/>
<circle r="0.108637" transform="matrix(1 0 0 -1 32.8308 29.7415)" fill="#838383"/>
<circle r="0.108637" transform="matrix(1 0 0 -1 36.3068 30.3933)" fill="#838383"/>
<circle r="0.108637" transform="matrix(1 0 0 -1 37.6107 31.2625)" fill="#838383"/>
<circle r="0.108637" transform="matrix(1 0 0 -1 37.3932 30.8279)" fill="#838383"/>
<circle r="0.108637" transform="matrix(1 0 0 -1 36.5244 30.8279)" fill="#838383"/>
<circle cx="100.62" cy="47.1235" r="0.108637" fill="#838383"/>
<circle cx="102.141" cy="46.4717" r="0.108637" fill="#838383"/>
<circle cx="101.706" cy="47.1235" r="0.108637" fill="#838383"/>
<circle cx="103.445" cy="46.4717" r="0.108637" fill="#838383"/>
<circle cx="104.749" cy="45.6025" r="0.108637" fill="#838383"/>
<circle cx="104.314" cy="46.4717" r="0.108637" fill="#838383"/>
<circle cx="103.662" cy="46.0371" r="0.108637" fill="#838383"/>
<circle cx="109.746" cy="44.5161" r="0.108637" transform="rotate(-180 109.746 44.5161)" fill="#838383"/>
<circle cx="108.225" cy="45.168" r="0.108637" transform="rotate(-180 108.225 45.168)" fill="#838383"/>
<circle cx="108.659" cy="44.5161" r="0.108637" transform="rotate(-180 108.659 44.5161)" fill="#838383"/>
<circle cx="106.921" cy="45.168" r="0.108637" transform="rotate(-180 106.921 45.168)" fill="#838383"/>
<circle cx="105.617" cy="46.0371" r="0.108637" transform="rotate(-180 105.617 46.0371)" fill="#838383"/>
<circle cx="106.052" cy="45.168" r="0.108637" transform="rotate(-180 106.052 45.168)" fill="#838383"/>
<circle cx="106.704" cy="45.6025" r="0.108637" transform="rotate(-180 106.704 45.6025)" fill="#838383"/>
<circle cx="114.526" cy="43.2122" r="0.108637" transform="rotate(-180 114.526 43.2122)" fill="#838383"/>
<circle cx="113.005" cy="43.864" r="0.108637" transform="rotate(-180 113.005 43.864)" fill="#838383"/>
<circle cx="113.439" cy="43.2122" r="0.108637" transform="rotate(-180 113.439 43.2122)" fill="#838383"/>
<circle cx="115.177" cy="43.2122" r="0.108637" transform="rotate(-180 115.177 43.2122)" fill="#838383"/>
<circle cx="111.701" cy="43.864" r="0.108637" transform="rotate(-180 111.701 43.864)" fill="#838383"/>
<circle cx="110.397" cy="44.7332" r="0.108637" transform="rotate(-180 110.397 44.7332)" fill="#838383"/>
<circle cx="110.615" cy="44.2986" r="0.108637" transform="rotate(-180 110.615 44.2986)" fill="#838383"/>
<circle cx="111.484" cy="44.2986" r="0.108637" transform="rotate(-180 111.484 44.2986)" fill="#838383"/>
<circle cx="130.604" cy="38.8674" r="0.108637" transform="rotate(-180 130.604 38.8674)" fill="#838383"/>
<circle cx="129.083" cy="39.5188" r="0.108637" transform="rotate(-180 129.083 39.5188)" fill="#838383"/>
<circle cx="129.517" cy="38.8674" r="0.108637" transform="rotate(-180 129.517 38.8674)" fill="#838383"/>
<circle cx="127.779" cy="39.5188" r="0.108637" transform="rotate(-180 127.779 39.5188)" fill="#838383"/>
<circle cx="126.476" cy="40.3879" r="0.108637" transform="rotate(-180 126.476 40.3879)" fill="#838383"/>
<circle cx="126.91" cy="39.5188" r="0.108637" transform="rotate(-180 126.91 39.5188)" fill="#838383"/>
<circle cx="127.562" cy="39.9534" r="0.108637" transform="rotate(-180 127.562 39.9534)" fill="#838383"/>
<circle cx="121.478" cy="41.4744" r="0.108637" fill="#838383"/>
<circle cx="122.999" cy="40.8225" r="0.108637" fill="#838383"/>
<circle cx="122.564" cy="41.4744" r="0.108637" fill="#838383"/>
<circle cx="124.303" cy="40.8225" r="0.108637" fill="#838383"/>
<circle cx="125.606" cy="39.9534" r="0.108637" fill="#838383"/>
<circle cx="125.172" cy="40.8225" r="0.108637" fill="#838383"/>
<circle cx="124.52" cy="40.3879" r="0.108637" fill="#838383"/>
<circle cx="116.699" cy="42.7783" r="0.108637" fill="#838383"/>
<circle cx="118.219" cy="42.1265" r="0.108637" fill="#838383"/>
<circle cx="117.785" cy="42.7783" r="0.108637" fill="#838383"/>
<circle cx="116.047" cy="42.7783" r="0.108637" fill="#838383"/>
<circle cx="119.523" cy="42.1265" r="0.108637" fill="#838383"/>
<circle cx="120.826" cy="41.2573" r="0.108637" fill="#838383"/>
<circle cx="120.609" cy="41.6919" r="0.108637" fill="#838383"/>
<circle cx="119.74" cy="41.6919" r="0.108637" fill="#838383"/>
<circle cx="145.813" cy="34.7395" r="0.108637" transform="rotate(-180 145.813 34.7395)" fill="#838383"/>
<circle cx="144.292" cy="35.3911" r="0.108637" transform="rotate(-180 144.292 35.3911)" fill="#838383"/>
<circle cx="144.727" cy="34.7395" r="0.108637" transform="rotate(-180 144.727 34.7395)" fill="#838383"/>
<circle cx="142.988" cy="35.3911" r="0.108637" transform="rotate(-180 142.988 35.3911)" fill="#838383"/>
<circle cx="141.685" cy="36.2603" r="0.108637" transform="rotate(-180 141.685 36.2603)" fill="#838383"/>
<circle cx="142.119" cy="35.3911" r="0.108637" transform="rotate(-180 142.119 35.3911)" fill="#838383"/>
<circle cx="142.771" cy="35.8257" r="0.108637" transform="rotate(-180 142.771 35.8257)" fill="#838383"/>
<circle cx="136.688" cy="37.3472" r="0.108637" fill="#838383"/>
<circle cx="138.208" cy="36.6948" r="0.108637" fill="#838383"/>
<circle cx="137.774" cy="37.3472" r="0.108637" fill="#838383"/>
<circle cx="139.512" cy="36.6948" r="0.108637" fill="#838383"/>
<circle cx="140.816" cy="35.8257" r="0.108637" fill="#838383"/>
<circle cx="140.381" cy="36.6948" r="0.108637" fill="#838383"/>
<circle cx="139.729" cy="36.2605" r="0.108637" fill="#838383"/>
<circle cx="131.908" cy="38.6501" r="0.108637" fill="#838383"/>
<circle cx="133.428" cy="37.9983" r="0.108637" fill="#838383"/>
<circle cx="132.994" cy="38.6501" r="0.108637" fill="#838383"/>
<circle cx="131.256" cy="38.6501" r="0.108637" fill="#838383"/>
<circle cx="134.732" cy="37.9983" r="0.108637" fill="#838383"/>
<circle cx="136.036" cy="37.1291" r="0.108637" fill="#838383"/>
<circle cx="135.819" cy="37.5637" r="0.108637" fill="#838383"/>
<circle cx="134.949" cy="37.5637" r="0.108637" fill="#838383"/>
<circle cx="158.198" cy="31.4802" r="0.108637" transform="rotate(-180 158.198 31.4802)" fill="#838383"/>
<circle cx="156.677" cy="32.1318" r="0.108637" transform="rotate(-180 156.677 32.1318)" fill="#838383"/>
<circle cx="157.112" cy="31.4802" r="0.108637" transform="rotate(-180 157.112 31.4802)" fill="#838383"/>
<circle cx="155.374" cy="32.1318" r="0.108637" transform="rotate(-180 155.374 32.1318)" fill="#838383"/>
<circle cx="154.069" cy="33.001" r="0.108637" transform="rotate(-180 154.069 33.001)" fill="#838383"/>
<circle cx="154.504" cy="32.1318" r="0.108637" transform="rotate(-180 154.504 32.1318)" fill="#838383"/>
<circle cx="155.156" cy="32.5664" r="0.108637" transform="rotate(-180 155.156 32.5664)" fill="#838383"/>
<circle cx="149.072" cy="34.0869" r="0.108637" fill="#838383"/>
<circle cx="150.593" cy="33.4351" r="0.108637" fill="#838383"/>
<circle cx="150.158" cy="34.0869" r="0.108637" fill="#838383"/>
<circle cx="151.897" cy="33.4351" r="0.108637" fill="#838383"/>
<circle cx="153.2" cy="32.5659" r="0.108637" fill="#838383"/>
<circle cx="152.766" cy="33.4351" r="0.108637" fill="#838383"/>
<circle cx="152.114" cy="33.0005" r="0.108637" fill="#838383"/>
<circle cx="144.292" cy="35.3914" r="0.108637" fill="#838383"/>
<circle cx="145.813" cy="34.739" r="0.108637" fill="#838383"/>
<circle cx="145.378" cy="35.3914" r="0.108637" fill="#838383"/>
<circle cx="143.64" cy="35.3914" r="0.108637" fill="#838383"/>
<circle cx="147.117" cy="34.739" r="0.108637" fill="#838383"/>
<circle cx="148.42" cy="33.8699" r="0.108637" fill="#838383"/>
<circle cx="148.203" cy="34.3047" r="0.108637" fill="#838383"/>
<circle cx="147.333" cy="34.3047" r="0.108637" fill="#838383"/>
<path d="M99.3485 46.8134L4.69397 21.5295V20.0776L53.5815 5.5154L158.398 29.4391V30.891L99.3485 46.8134Z" fill="white" stroke="#838383" stroke-width="0.265276" stroke-linecap="round" stroke-linejoin="round"/>
<path d="M99.3484 45.3861L4.69385 20.1023L53.5813 5.54004L158.397 29.4637L99.3484 45.3861Z" fill="white" stroke="#838383" stroke-width="0.265276" stroke-linecap="round" stroke-linejoin="round"/>
<path d="M99.4253 45.3003L99.3167 46.8211" stroke="#838383" stroke-width="0.360179" stroke-linecap="round"/>
<path d="M99.3484 45.4863L4.69385 20.2024V18.1221L54.7755 3.88574L158.397 27.4835V29.5638L99.3484 45.4863Z" fill="white" stroke="#838383" stroke-width="0.265276" stroke-linecap="round" stroke-linejoin="round"/>
<path d="M99.3484 43.4059L4.69385 18.1221L54.7755 3.88574L158.397 27.4835L99.3484 43.4059Z" fill="white" stroke="#838383" stroke-width="0.265276" stroke-linecap="round" stroke-linejoin="round"/>
<path d="M99.3164 43.4297V45.4938" stroke="#838383" stroke-width="0.360179" stroke-linecap="round"/>
<path d="M7.30103 18.2259L55.3186 4.75488" stroke="#838383" stroke-width="0.360179" stroke-linecap="round"/>
<path d="M98.8818 42.126L154.287 27.46" stroke="#838383" stroke-width="0.360179" stroke-linecap="round"/>
<path d="M95.7312 41.2571L151.136 26.5911" stroke="#838383" stroke-width="0.360179" stroke-linecap="round"/>
<path d="M93.1243 40.3877L148.529 25.7217" stroke="#838383" stroke-width="0.360179" stroke-linecap="round"/>
<path d="M88.8875 39.9531L144.292 25.2871" stroke="#838383" stroke-width="0.360179" stroke-linecap="round"/>
<path d="M85.7368 39.0842L141.142 24.4182" stroke="#838383" stroke-width="0.360179" stroke-linecap="round"/>
<path d="M83.1295 38.2153L138.534 23.5493" stroke="#838383" stroke-width="0.360179" stroke-linecap="round"/>
<path d="M79.7616 37.5632L135.166 22.8972" stroke="#838383" stroke-width="0.360179" stroke-linecap="round"/>
<path d="M76.6117 36.6941L132.017 22.0281" stroke="#838383" stroke-width="0.360179" stroke-linecap="round"/>
<path d="M74.0039 35.8252L129.409 21.1592" stroke="#838383" stroke-width="0.360179" stroke-linecap="round"/>
<path d="M70.8535 35.0647L125.172 20.7246" stroke="#838383" stroke-width="0.360179" stroke-linecap="round"/>
<path d="M66.6168 34.5217L122.022 19.8557" stroke="#838383" stroke-width="0.360179" stroke-linecap="round"/>
<path d="M64.0095 33.6523L119.414 18.9863" stroke="#838383" stroke-width="0.360179" stroke-linecap="round"/>
<path d="M61.0762 33.0007L116.481 18.3347" stroke="#838383" stroke-width="0.360179" stroke-linecap="round"/>
<path d="M57.9257 32.1316L113.331 17.4656" stroke="#838383" stroke-width="0.360179" stroke-linecap="round"/>
<path d="M55.3184 31.2622L110.723 16.5962" stroke="#838383" stroke-width="0.360179" stroke-linecap="round"/>
<path d="M53.1458 30.176L106.487 16.1619" stroke="#838383" stroke-width="0.360179" stroke-linecap="round"/>
<path d="M49.9952 29.4158L103.336 15.293" stroke="#838383" stroke-width="0.360179" stroke-linecap="round"/>
<path d="M46.8447 28.655L100.729 14.4236" stroke="#838383" stroke-width="0.360179" stroke-linecap="round"/>
<path d="M43.3685 27.7861L97.1438 13.772" stroke="#838383" stroke-width="0.360179" stroke-linecap="round"/>
<path d="M40.6525 26.917L94.2105 12.9028" stroke="#838383" stroke-width="0.360179" stroke-linecap="round"/>
<path d="M37.7195 26.1565L91.6034 12.0337" stroke="#838383" stroke-width="0.360179" stroke-linecap="round"/>
<path d="M34.243 25.6133L87.3665 11.5991" stroke="#838383" stroke-width="0.360179" stroke-linecap="round"/>
<path d="M31.201 24.7442L84.2159 10.73" stroke="#838383" stroke-width="0.360179" stroke-linecap="round"/>
<path d="M28.7023 24.0923L81.6085 9.86084" stroke="#838383" stroke-width="0.360179" stroke-linecap="round"/>
<path d="M26.4211 23.4406L78.0236 9.5351M24.4656 22.7888L75.525 9.10055M22.5101 22.2456L73.6781 8.44873" stroke="#838383" stroke-width="0.360179" stroke-linecap="round"/>
<path d="M19.9029 21.5937L70.6363 8.0141M17.9474 20.9419L67.2686 7.57956M15.9919 20.3987L65.0959 6.92773" stroke="#838383" stroke-width="0.360179" stroke-linecap="round"/>
<path d="M13.602 19.7468L62.5972 6.27583M11.6465 19.095L59.99 5.84128M9.69104 18.5518L58.2518 5.2981" stroke="#838383" stroke-width="0.360179" stroke-linecap="round"/>
<path d="M9.25635 17.574L103.336 41.4741" stroke="#838383" stroke-width="0.360179" stroke-linecap="round"/>
<path d="M13.8191 16.3789L107.899 40.279" stroke="#838383" stroke-width="0.360179" stroke-linecap="round"/>
<path d="M17.9474 15.2927L112.027 39.1929" stroke="#838383" stroke-width="0.360179" stroke-linecap="round"/>
<path d="M20.9893 14.2061L115.069 38.1062" stroke="#838383" stroke-width="0.360179" stroke-linecap="round"/>
<path d="M24.0311 13.3372L118.111 37.2373" stroke="#838383" stroke-width="0.360179" stroke-linecap="round"/>
<path d="M27.0726 12.468L121.152 36.3681" stroke="#838383" stroke-width="0.360179" stroke-linecap="round"/>
<path d="M30.1145 11.5989L124.194 35.499" stroke="#838383" stroke-width="0.360179" stroke-linecap="round"/>
<path d="M33.1562 10.7297L127.236 34.6299" stroke="#838383" stroke-width="0.360179" stroke-linecap="round"/>
<path d="M36.1982 9.8606L130.278 33.7607" stroke="#838383" stroke-width="0.360179" stroke-linecap="round"/>
<path d="M39.2397 8.9917L133.319 32.8918" stroke="#838383" stroke-width="0.360179" stroke-linecap="round"/>
<path d="M42.7166 8.12256L136.796 32.0227" stroke="#838383" stroke-width="0.360179" stroke-linecap="round"/>
<path d="M45.9757 7.4707L140.273 31.1536" stroke="#838383" stroke-width="0.360179" stroke-linecap="round"/>
<path d="M48.7999 6.60156L143.64 30.0671" stroke="#838383" stroke-width="0.360179" stroke-linecap="round"/>
<path d="M51.6245 5.73218L148.203 28.9805" stroke="#838383" stroke-width="0.360179" stroke-linecap="round"/>
<path d="M52.3849 4.86328L152.005 28.1116" stroke="#838383" stroke-width="0.360179" stroke-linecap="round"/>
<path d="M138.675 29.0086L103.743 38.4787C103.069 38.6452 102 38.7237 100.324 38.0977C96.9706 36.8457 93.1657 36.3278 96.2564 35.5639C97.0648 35.3641 118.178 29.6161 128.006 26.936C128.134 26.7745 128.109 26.4369 126.351 25.8402C124.342 25.1583 122.35 24.7224 120.869 24.2413C119.944 23.9405 119.251 24.1564 118.127 24.5011" stroke="#421DD6" stroke-width="0.720358" stroke-linecap="round"/>
<path d="M134.858 28.0018L102.563 36.9038C100.879 37.3201 100.085 36.338 100.987 36.115C101.795 35.9152 132.392 27.469 132.392 27.469C132.519 27.3075 132.238 26.7546 130.48 26.158C128.471 25.476 120.182 23.1966 118.701 22.7154C117.776 22.4147 116.258 22.8901 115.134 23.2348" stroke="#421DD6" stroke-width="0.720358" stroke-linecap="round"/>
<path d="M119.098 24.2115L84.1656 33.6816C83.492 33.8481 82.4227 33.9266 80.7462 33.3006C77.3932 32.0486 73.5883 31.5307 76.679 30.7667C77.4874 30.5669 98.6006 24.819 108.429 22.1389C108.556 21.9774 108.532 21.6397 106.774 21.0431C104.765 20.3612 102.773 19.9253 101.292 19.4441C100.367 19.1434 99.6735 19.3593 98.5495 19.704" stroke="#421DD6" stroke-width="0.720358" stroke-linecap="round"/>
<path d="M115.28 23.2047L82.9852 32.1067C81.3011 32.523 80.5072 31.5408 81.4091 31.3179C82.2174 31.1181 112.814 22.6718 112.814 22.6718C112.941 22.5103 112.66 21.9575 110.902 21.3608C108.893 20.6789 100.604 18.3995 99.1237 17.9183C98.1983 17.6176 96.6807 18.093 95.5567 18.4377" stroke="#421DD6" stroke-width="0.720358" stroke-linecap="round"/>
<path d="M99.9013 19.3077L64.9693 28.7778C64.2957 28.9443 63.2264 29.0228 61.5499 28.3968C58.1969 27.1448 54.392 26.6269 57.4828 25.8629C58.2911 25.6631 79.4043 19.9151 89.2327 17.2351C89.36 17.0736 89.3354 16.7359 87.5776 16.1393C85.5684 15.4574 83.5763 15.0215 82.0958 14.5403C81.1704 14.2396 80.4772 14.4555 79.3532 14.8002" stroke="#421DD6" stroke-width="0.720358" stroke-linecap="round"/>
<path d="M96.0843 18.3007L63.789 27.2027C62.1049 27.6189 61.311 26.6368 62.2129 26.4139C63.0213 26.2141 93.6176 17.7678 93.6176 17.7678C93.7449 17.6063 93.4637 17.0534 91.7059 16.4568C89.6968 15.7748 81.4081 13.4955 79.9275 13.0143C79.0021 12.7135 77.4845 13.1889 76.3605 13.5336" stroke="#421DD6" stroke-width="0.720358" stroke-linecap="round"/>
<path d="M80.3244 14.5111L45.3924 23.9812C44.7188 24.1477 43.6495 24.2262 41.973 23.6002C38.62 22.3482 34.8151 21.8302 37.9059 21.0663C38.7142 20.8665 59.8274 15.1185 69.6558 12.4384C69.7831 12.2769 69.7585 11.9393 68.0007 11.3427C65.9915 10.6607 63.9994 10.2249 62.5189 9.7437C61.5935 9.44293 60.9003 9.65887 59.7763 10.0036" stroke="#421DD6" stroke-width="0.720358" stroke-linecap="round"/>
<path d="M76.5074 13.504L44.2121 22.406C42.528 22.8223 41.7341 21.8402 42.636 21.6172C43.4444 21.4174 74.0407 12.9711 74.0407 12.9711C74.168 12.8097 73.8868 12.2568 72.129 11.6602C70.1199 10.9782 61.8312 8.69883 60.3506 8.21764C59.4252 7.91688 57.9076 8.39227 56.7836 8.73697" stroke="#421DD6" stroke-width="0.720358" stroke-linecap="round"/>
<path d="M61.1231 9.6706L26.191 19.1407C25.5174 19.3072 24.4482 19.3857 22.7717 18.7597C19.4187 17.5077 15.6137 16.9898 18.7045 16.2259C19.5129 16.0261 40.626 10.2781 50.4545 7.59798C50.5817 7.43648 50.5571 7.09886 48.7994 6.50224" stroke="#421DD6" stroke-width="0.720358" stroke-linecap="round"/>
<path d="M57.3058 8.66352L25.0105 17.5655C23.3264 17.9818 22.5324 16.9997 23.4344 16.7767C24.2427 16.5769 54.8391 8.13065 54.8391 8.13065C54.9663 7.96915 54.6852 7.41627 52.9274 6.81966" stroke="#421DD6" stroke-width="0.720358" stroke-linecap="round"/>
<path d="M99.3484 43.5385L4.69385 18.2546V15.2363L54.7755 1L158.397 24.5978V27.6161L99.3484 43.5385Z" fill="white" stroke="#838383" stroke-width="0.265276" stroke-linecap="round" stroke-linejoin="round"/>
<path d="M99.3484 40.5202L4.69385 15.2363L54.7755 1L158.397 24.5978L99.3484 40.5202Z" fill="white" stroke="#838383" stroke-width="0.265276" stroke-linecap="round" stroke-linejoin="round"/>
<path d="M99.3099 40.5437V43.4025" stroke="#838383" stroke-width="0.360179" stroke-linecap="round"/>
</svg>
