<svg width="497" height="320" viewBox="0 0 497 320" fill="none" xmlns="http://www.w3.org/2000/svg">
<path d="M2.64941 231.446L272.992 228.374M146.525 270.359L193.63 183.316M161.373 273.431L473.701 258.582M335.458 231.446L292.961 307.224" stroke="#7D7D7D" stroke-width="0.83905"/>
<path d="M193.886 39.9527V185.108L184.926 183.828V94.2261V37.6487L193.886 39.9527Z" fill="white" stroke="#7D7D7D" stroke-width="0.83905" stroke-linecap="round" stroke-linejoin="round"/>
<path d="M193.887 39.9531V185.109C196.124 184.922 197.308 184.512 199.263 183.061V94.9945V39.9531H193.887Z" fill="white" stroke="#7D7D7D" stroke-width="0.83905" stroke-linecap="round" stroke-linejoin="round"/>
<path d="M305.249 319L2.39355 238.102V231.446L158.814 184.853L494.182 261.398V268.055L305.249 319Z" stroke="#7D7D7D" stroke-width="0.83905"/>
<path d="M305.249 312.344L2.39355 231.446L158.814 184.853L494.182 261.398L305.249 312.344Z" stroke="#7D7D7D" stroke-width="0.83905"/>
<path d="M189.79 181.012V94.4821L184.67 93.7141L103.9 114.707L18.0098 136.723V228.374L189.79 181.012Z" fill="white" stroke="#7D7D7D" stroke-width="0.83905"/>
<path d="M332.898 132.883L167.006 175.38V264.727L332.898 219.926V132.883Z" fill="white"/>
<path d="M247.136 156.18L168.542 176.404M167.006 175.38L332.898 132.883V219.926L167.006 264.727V175.38Z" stroke="#7D7D7D" stroke-width="0.83905"/>
<path d="M153.438 124.691V269.335C156.51 270.871 158.046 271.127 161.374 271.127C164.036 271.127 168.286 269.335 168.286 269.335V124.691C168.286 124.691 163.934 125.971 160.35 126.227C157.482 126.432 154.547 125.289 153.438 124.691Z" fill="white" stroke="#7D7D7D" stroke-width="0.83905"/>
<path d="M166.75 124.947V269.847" stroke="#7D7D7D" stroke-width="0.83905"/>
<path d="M9.30566 86.5459V231.19C12.3777 232.726 13.9138 232.982 17.2419 232.982C19.9043 232.982 24.154 231.19 24.154 231.19V86.5459C24.154 86.5459 19.8019 87.8259 16.2178 88.0819C13.3506 88.2867 10.415 87.1432 9.30566 86.5459Z" fill="white" stroke="#7D7D7D" stroke-width="0.83905"/>
<path d="M22.6182 86.802V231.702" stroke="#7D7D7D" stroke-width="0.83905"/>
<path d="M489.062 80.9138C489.062 83.1667 488.038 84.4979 487.526 84.4979L313.698 129.811C307.297 131.859 300.498 130.79 297.938 130.107L21.1952 55.6091L3.16162 50.7051" stroke="#7D7D7D" stroke-width="0.83905"/>
<path d="M5.46582 51.2169L186.974 2.83168C188.169 2.57568 190.866 2.21727 192.095 2.83168C193.323 3.4461 387.684 55.1423 484.71 80.9137C486.417 81.255 489.574 82.2449 488.55 83.4737" stroke="#7D7D7D" stroke-width="0.83905"/>
<path d="M249.44 247.83L243.808 246.038L249.44 244.246L255.072 246.55L249.44 247.83Z" fill="white" stroke="#7D7D7D" stroke-width="0.83905" stroke-linecap="round" stroke-linejoin="round"/>
<path d="M247.136 155.924L244.832 155.412V93.9702L248.416 92.6902V246.294L247.136 245.782V155.924Z" fill="white" stroke="#7D7D7D" stroke-width="0.83905" stroke-linecap="round" stroke-linejoin="round"/>
<path d="M251.232 245.526L248.416 246.294V92.4342L251.232 91.4102V245.526Z" fill="white" stroke="#7D7D7D" stroke-width="0.83905" stroke-linecap="round" stroke-linejoin="round"/>
<path d="M104.54 207.893L98.9082 206.101L104.54 204.309L110.172 206.613L104.54 207.893Z" fill="white" stroke="#7D7D7D" stroke-width="0.83905" stroke-linecap="round" stroke-linejoin="round"/>
<path d="M102.748 115.987L100.444 115.475V56.5935L104.028 55.3135V206.357L102.748 205.845V115.987Z" fill="white" stroke="#7D7D7D" stroke-width="0.83905" stroke-linecap="round" stroke-linejoin="round"/>
<path d="M106.844 205.589L104.028 206.357V55.3136L106.844 54.2896V205.589Z" fill="white" stroke="#7D7D7D" stroke-width="0.83905" stroke-linecap="round" stroke-linejoin="round"/>
<path d="M182.878 267.287L177.246 265.495L182.878 263.703L188.51 266.007L182.878 267.287Z" fill="white" stroke="#7D7D7D" stroke-width="0.83905" stroke-linecap="round" stroke-linejoin="round"/>
<path d="M181.25 229.654C181.25 228.896 181.864 228.281 182.622 228.281C183.38 228.281 183.995 228.896 183.995 229.654V264.875C183.907 265.01 183.754 265.135 183.53 265.234C183.268 265.348 182.941 265.411 182.605 265.412C182.268 265.412 181.946 265.35 181.692 265.237C181.473 265.14 181.329 265.016 181.25 264.884V229.654Z" fill="white" stroke="#7D7D7D" stroke-width="0.83905" stroke-linecap="round" stroke-linejoin="round"/>
<path d="M180.318 231.446L172.638 229.398V206.357L180.318 208.661V231.446Z" fill="white" stroke="#7D7D7D" stroke-width="0.83905" stroke-linecap="round" stroke-linejoin="round"/>
<path d="M180.318 231.446L192.862 227.862V205.333L180.318 208.661V231.446Z" fill="white" stroke="#7D7D7D" stroke-width="0.83905" stroke-linecap="round" stroke-linejoin="round"/>
<path d="M172.638 206.357L186.462 203.029L192.862 205.333L180.318 208.661L172.638 206.357Z" fill="white" stroke="#7D7D7D" stroke-width="0.83905" stroke-linecap="round" stroke-linejoin="round"/>
<path d="M186.206 214.549V208.661L187.998 208.149V214.037L186.206 214.549Z" fill="white" stroke="#7D7D7D" stroke-width="0.83905" stroke-linecap="round" stroke-linejoin="round"/>
<path d="M182.878 212.245V209.941L184.67 209.429V211.733L182.878 212.245Z" fill="white" stroke="#7D7D7D" stroke-width="0.83905" stroke-linecap="round" stroke-linejoin="round"/>
<path d="M38.4901 229.654L32.8579 227.862L38.4901 226.07L44.1222 228.374L38.4901 229.654Z" fill="white" stroke="#7D7D7D" stroke-width="0.83905" stroke-linecap="round" stroke-linejoin="round"/>
<path d="M36.8619 192.021C36.8619 191.263 37.4764 190.648 38.2344 190.648C38.9925 190.648 39.6069 191.263 39.6069 192.021V227.242C39.519 227.377 39.3659 227.502 39.1418 227.601C38.8805 227.715 38.5537 227.778 38.2172 227.779C37.8804 227.779 37.5579 227.717 37.3042 227.604C37.0854 227.507 36.9412 227.383 36.8619 227.25V192.021Z" fill="white" stroke="#7D7D7D" stroke-width="0.83905" stroke-linecap="round" stroke-linejoin="round"/>
<path d="M35.9302 193.813L28.25 191.765V168.724L35.9302 171.028V193.813Z" fill="white" stroke="#7D7D7D" stroke-width="0.83905" stroke-linecap="round" stroke-linejoin="round"/>
<path d="M35.9302 193.813L48.4745 190.229V167.7L35.9302 171.028V193.813Z" fill="white" stroke="#7D7D7D" stroke-width="0.83905" stroke-linecap="round" stroke-linejoin="round"/>
<path d="M28.25 168.724L42.0744 165.396L48.4745 167.7L35.9302 171.028L28.25 168.724Z" fill="white" stroke="#7D7D7D" stroke-width="0.83905" stroke-linecap="round" stroke-linejoin="round"/>
<path d="M41.8184 176.916V171.028L43.6104 170.516V176.404L41.8184 176.916Z" fill="white" stroke="#7D7D7D" stroke-width="0.83905" stroke-linecap="round" stroke-linejoin="round"/>
<path d="M38.4902 174.612V172.308L40.2823 171.796V174.1L38.4902 174.612Z" fill="white" stroke="#7D7D7D" stroke-width="0.83905" stroke-linecap="round" stroke-linejoin="round"/>
<path d="M153.438 124.436C153.694 123.924 155.742 122.9 156.766 122.9" stroke="#7D7D7D" stroke-width="0.83905"/>
<line x1="159.233" y1="122.899" x2="159.233" y2="126.484" stroke="#7D7D7D" stroke-width="0.83905"/>
<path d="M9.30566 86.2901C9.56167 85.7781 11.6097 84.498 12.6337 84.498" stroke="#7D7D7D" stroke-width="0.83905"/>
<line x1="15.1012" y1="84.498" x2="15.1012" y2="88.0821" stroke="#7D7D7D" stroke-width="0.83905"/>
<line x1="20.4776" y1="85.522" x2="20.4776" y2="87.57" stroke="#7D7D7D" stroke-width="0.83905"/>
<path d="M297.569 163.606C297.825 163.094 299.873 161.813 300.897 161.813" stroke="#7D7D7D" stroke-width="0.83905"/>
<line x1="303.365" y1="161.812" x2="303.365" y2="165.396" stroke="#7D7D7D" stroke-width="0.83905"/>
<line x1="308.741" y1="162.836" x2="308.741" y2="164.884" stroke="#7D7D7D" stroke-width="0.83905"/>
<path d="M482.406 117.266V262.422L473.445 261.142V171.54V114.962L482.406 117.266Z" fill="white" stroke="#7D7D7D" stroke-width="0.83905" stroke-linecap="round" stroke-linejoin="round"/>
<path d="M482.405 117.267V262.423C484.642 262.236 485.827 261.826 487.781 260.375V172.308V114.707C486.101 116.203 485.221 117.011 482.405 117.267Z" fill="white" stroke="#7D7D7D" stroke-width="0.83905" stroke-linecap="round" stroke-linejoin="round"/>
<path d="M338.274 79.89V225.046L329.314 223.766V134.163V77.5859L338.274 79.89Z" fill="white" stroke="#7D7D7D" stroke-width="0.83905" stroke-linecap="round" stroke-linejoin="round"/>
<path d="M338.274 79.8901V225.046C340.512 224.859 341.696 224.449 343.651 222.998V134.932V79.8901H338.274Z" fill="white" stroke="#7D7D7D" stroke-width="0.83905" stroke-linecap="round" stroke-linejoin="round"/>
<path d="M494.438 113.171V112.751H494.383L494.329 112.766L494.438 113.171ZM317.026 160.788L316.917 160.383L316.907 160.385L316.898 160.388L317.026 160.788ZM492.902 81.6819L492.833 82.0957L492.902 81.6819ZM192.862 1.80786L192.701 2.19511L192.727 2.2059L192.754 2.21315L192.862 1.80786ZM184.926 1.80787L185.034 2.21334L185.061 2.20605L185.088 2.19512L184.926 1.80787ZM7.51374 48.9131L7.40608 48.5076L7.39728 48.5099L7.3886 48.5126L7.51374 48.9131ZM3.41763 50.1931L3.2925 49.7927L3.24102 49.8088L3.19528 49.8374L3.41763 50.1931ZM1.11357 54.5452L1.53165 54.5801L1.11357 54.5452ZM1.11357 64.2735H1.5331V64.2654L1.53279 64.2574L1.11357 64.2735ZM1.11357 76.3058H0.694047V76.3149L0.694443 76.324L1.11357 76.3058ZM7.25774 82.7059L7.2214 83.1239L7.25774 82.7059ZM10.0724 82.9216L10.186 82.5177L10.1404 82.5049L10.0932 82.5025L10.0724 82.9216ZM25.6902 87.3141L25.5766 87.7179L25.5812 87.7192L25.6902 87.3141ZM302.433 161.812L302.324 162.217L302.325 162.217L302.433 161.812ZM190.046 33.5527L190.154 33.1473L190.046 33.1185L189.938 33.1475L190.046 33.5527ZM64.8591 67.0896L64.7506 66.6843L63.2465 67.0873L64.7494 67.4945L64.8591 67.0896ZM432.741 98.0664L432.847 98.4722L434.385 98.0693L432.848 97.6609L432.741 98.0664ZM300.129 130.835L300.019 131.24L300.044 131.247L300.07 131.251L300.129 130.835ZM494.329 112.766L316.917 160.383L317.134 161.193L494.547 113.576L494.329 112.766ZM495.555 110.355C495.555 112.491 494.618 112.751 494.438 112.751V113.59C495.283 113.59 496.394 112.724 496.394 110.355H495.555ZM495.555 91.6662V110.355H496.394V91.6662H495.555ZM495.555 85.266V91.6662H496.394V85.266H495.555ZM492.833 82.0957C493.935 82.2794 494.605 82.8445 495.007 83.4704C495.418 84.1103 495.555 84.8227 495.555 85.266H496.394C496.394 84.6852 496.223 83.8104 495.713 83.0167C495.193 82.209 494.327 81.494 492.971 81.2681L492.833 82.0957ZM192.754 2.21315C241.907 15.3548 316.303 35.221 378.718 51.8529C409.925 60.1689 438.137 67.6763 458.701 73.1304C468.983 75.8574 477.353 78.0712 483.23 79.616C486.168 80.3884 488.483 80.9937 490.103 81.4123C491.705 81.8265 492.656 82.0661 492.833 82.0957L492.971 81.2681C492.841 81.2465 491.948 81.0226 490.313 80.6C488.695 80.1817 486.381 79.5768 483.443 78.8045C477.567 77.2599 469.198 75.0463 458.916 72.3194C438.353 66.8654 410.141 59.3581 378.934 51.0421C316.519 34.4103 242.124 14.5442 192.971 1.40257L192.754 2.21315ZM185.088 2.19512C188.035 0.966928 190.733 1.3751 192.701 2.19511L193.024 1.4206C190.896 0.533901 187.961 0.0887622 184.765 1.42061L185.088 2.19512ZM7.62139 49.3186L185.034 2.21334L184.819 1.40239L7.40608 48.5076L7.62139 49.3186ZM3.54276 50.5935L7.63887 49.3135L7.3886 48.5126L3.2925 49.7927L3.54276 50.5935ZM1.53165 54.5801C1.72439 52.2672 3.05804 50.9126 3.63998 50.5489L3.19528 49.8374C2.41186 50.327 0.912364 51.908 0.695496 54.5104L1.53165 54.5801ZM1.53279 64.2574C1.44729 62.0343 1.32932 57.008 1.53165 54.5801L0.695496 54.5104C0.488216 56.9977 0.609187 62.0752 0.694357 64.2896L1.53279 64.2574ZM1.5331 76.3058V64.2735H0.694047V76.3058H1.5331ZM7.29409 82.288C5.07001 82.0946 3.66277 81.0555 2.79192 79.8435C1.91034 78.6165 1.57242 77.201 1.5327 76.2876L0.694443 76.324C0.740068 77.3733 1.11897 78.953 2.11051 80.3331C3.11278 81.728 4.73496 82.9077 7.2214 83.1239L7.29409 82.288ZM10.0932 82.5025C9.62939 82.4795 8.76039 82.4155 7.29409 82.288L7.2214 83.1239C8.6878 83.2514 9.57065 83.3167 10.0516 83.3406L10.0932 82.5025ZM25.8038 86.9102L10.186 82.5177L9.95882 83.3254L25.5766 87.7179L25.8038 86.9102ZM302.542 161.407L25.7993 86.909L25.5812 87.7192L302.324 162.217L302.542 161.407ZM316.898 160.388C310.569 162.414 305.019 162.067 302.541 161.407L302.325 162.217C304.968 162.922 310.682 163.258 317.154 161.188L316.898 160.388ZM189.938 33.1475L64.7506 66.6843L64.9677 67.4948L190.155 33.958L189.938 33.1475ZM432.848 97.6609L190.154 33.1473L189.939 33.9582L432.633 98.4718L432.848 97.6609ZM311.541 130.716C311.928 130.571 313.495 130.118 316.057 129.409C318.606 128.703 322.111 127.751 326.349 126.61C334.825 124.328 346.226 121.295 358.747 117.98C383.788 111.349 413.305 103.592 432.847 98.4722L432.634 97.6605C413.092 102.781 383.574 110.538 358.532 117.169C346.011 120.484 334.608 123.518 326.131 125.8C321.893 126.94 318.385 127.894 315.833 128.6C313.296 129.303 311.678 129.768 311.246 129.93L311.541 130.716ZM300.07 131.251C301.284 131.424 303.301 131.605 305.432 131.588C307.553 131.57 309.832 131.357 311.541 130.716L311.246 129.93C309.678 130.518 307.52 130.732 305.425 130.749C303.34 130.765 301.364 130.588 300.188 130.42L300.07 131.251ZM64.7494 67.4945L300.019 131.24L300.239 130.43L64.9688 66.6847L64.7494 67.4945Z" fill="#7D7D7D"/>
<path d="M473.189 171.54L310.881 214.037V303.64L477.542 257.046V172.564L473.189 171.54Z" fill="white" stroke="#7D7D7D" stroke-width="0.83905"/>
<path d="M392.804 285.719L387.171 283.927L392.804 282.135L398.436 284.439L392.804 285.719Z" fill="white" stroke="#7D7D7D" stroke-width="0.83905" stroke-linecap="round" stroke-linejoin="round"/>
<path d="M391.267 194.325L388.963 193.813V141.587L392.547 140.307V284.695L391.267 284.183V194.325Z" fill="white" stroke="#7D7D7D" stroke-width="0.83905" stroke-linecap="round" stroke-linejoin="round"/>
<path d="M395.363 283.927L392.547 284.695V140.307L395.363 139.283V283.927Z" fill="white" stroke="#7D7D7D" stroke-width="0.83905" stroke-linecap="round" stroke-linejoin="round"/>
<path d="M297.569 163.86V308.504C300.641 310.04 302.177 310.296 305.506 310.296C308.168 310.296 312.418 308.504 312.418 308.504V163.86C312.418 163.86 308.066 165.14 304.482 165.396C301.614 165.601 298.679 164.458 297.569 163.86Z" fill="white" stroke="#7D7D7D" stroke-width="0.83905"/>
<path d="M310.882 164.116V309.015" stroke="#7D7D7D" stroke-width="0.83905"/>
<path d="M201.311 23.5686L51.8027 63.5056L58.2029 65.8097L196.19 29.2007L201.311 23.5686Z" stroke="#7D7D7D" stroke-width="0.83905"/>
<path d="M343.65 59.4097L196.703 102.931L203.103 105.235L338.53 65.0418L343.65 59.4097Z" stroke="#7D7D7D" stroke-width="0.83905"/>
<path fill-rule="evenodd" clip-rule="evenodd" d="M89.9833 43.9555C107.809 42.4275 122.064 46.2429 137.109 54.4025C151.579 62.251 171.027 80.6667 185.589 105.193L186.311 104.765C171.689 80.1383 152.14 61.6007 137.509 53.665C122.344 45.4402 107.927 41.5754 89.9117 43.1195C69.7186 44.8503 56.1438 56.7224 49.2819 62.7236C48.9945 62.9749 48.7189 63.2159 48.4551 63.4455L49.0058 64.0785C49.2659 63.8522 49.5371 63.6151 49.8193 63.3683L49.8199 63.3678C56.6766 57.3727 70.0698 45.6623 89.9833 43.9555ZM87.9307 46.0035C105.005 44.7293 120.032 48.0414 133.788 55.1738C147.529 62.2991 167.7 80.6695 182.261 105.193L182.983 104.764C168.359 80.1345 148.081 61.64 134.174 54.4289C120.28 47.225 105.098 43.8809 87.8683 45.1668C80.9157 45.6856 73.278 48.8997 66.5793 52.6759C59.8731 56.4563 54.0643 60.8252 50.7592 63.7011L51.3099 64.3341C54.5756 61.4925 60.3383 57.1572 66.9914 53.4068C73.652 49.6521 81.1613 46.5087 87.9307 46.0035Z" fill="#7D7D7D"/>
<path fill-rule="evenodd" clip-rule="evenodd" d="M62.5029 50.175C80.329 48.647 94.5839 52.4624 109.628 60.622C124.099 68.4705 143.546 86.8862 158.109 111.413L158.83 110.984C144.208 86.3578 124.66 67.8202 110.028 59.8845C94.8638 51.6597 80.4461 47.7948 62.4312 49.339C42.2382 51.0698 28.6633 62.9419 21.8014 68.9431C21.514 69.1944 21.2384 69.4354 20.9746 69.665L21.5254 70.298C21.7855 70.0717 22.0566 69.8346 22.3388 69.5878L22.3394 69.5873C29.1961 63.5922 42.5894 51.8818 62.5029 50.175ZM60.4502 52.2235C77.5249 50.9492 92.5516 54.2613 106.307 61.3938C120.049 68.519 140.22 86.8895 154.781 111.413L155.502 110.984C140.878 86.3545 120.6 67.86 106.693 60.6489C92.8 53.445 77.618 50.1009 60.3878 51.3867C53.4353 51.9056 45.7975 55.1197 39.0989 58.8958C32.3926 62.6763 26.5838 67.0452 23.2787 69.9211L23.8295 70.5541C27.0951 67.7125 32.8578 63.3772 39.5109 59.6268C46.1715 55.872 53.6808 52.7286 60.4502 52.2235Z" fill="#7D7D7D"/>
<path fill-rule="evenodd" clip-rule="evenodd" d="M121.896 35.3273C139.722 33.7994 153.977 37.6147 169.022 45.7744C183.492 53.6228 202.94 72.0385 217.502 96.5651L218.224 96.1368C203.602 71.5101 184.053 52.9725 169.422 45.0368C154.257 36.812 139.839 32.9472 121.825 34.4913C100.783 36.2949 84.2899 50.3924 77.0966 58.0995L77.2564 58.2486C77.1174 58.3007 77.0105 58.425 76.9881 58.5822C76.9319 58.975 76.9632 59.3771 77.2432 59.6376C77.5255 59.9002 77.9018 59.8724 78.1592 59.8114C78.6936 59.6849 79.3167 59.2779 79.709 58.9727C79.7319 58.9549 79.7529 58.9347 79.7717 58.9126C83.9543 53.9695 90.5696 48.8342 97.8572 44.8065C105.147 40.7776 113.065 37.8814 119.844 37.3756C136.918 36.1013 151.945 39.4134 165.701 46.5459C179.442 53.6711 199.613 72.0416 214.174 96.5649C214.292 96.7641 214.55 96.8298 214.749 96.7115C214.948 96.5932 215.014 96.3358 214.896 96.1365C200.272 71.5066 179.994 53.0121 166.087 45.801C152.193 38.5971 137.011 35.253 119.781 36.5388C112.838 37.057 104.8 40.0109 97.4513 44.0721C90.1175 48.1254 83.4269 53.306 79.16 58.3365C78.7884 58.6209 78.3044 58.9148 77.9659 58.995C77.8865 59.0138 77.8404 59.0151 77.8168 59.0134C77.8065 58.9776 77.7919 58.8882 77.8187 58.7009C77.8256 58.6526 77.8239 58.6051 77.815 58.5598C85.012 50.8835 101.266 37.0956 121.896 35.3273Z" fill="#7D7D7D"/>
<path fill-rule="evenodd" clip-rule="evenodd" d="M153.916 26.6232C171.742 25.0953 185.997 28.9106 201.042 37.0703C215.512 44.9187 234.96 63.3344 249.522 87.861L250.244 87.4327C235.622 62.806 216.073 44.2684 201.442 36.3327C186.277 28.1079 171.859 24.2431 153.845 25.7872C132.803 27.5907 116.31 41.6883 109.117 49.3954L109.276 49.5443C109.137 49.5964 109.031 49.7207 109.008 49.8779C108.952 50.2706 108.983 50.6727 109.263 50.9332C109.546 51.1958 109.922 51.168 110.179 51.1071C110.714 50.9806 111.337 50.5735 111.729 50.2684C111.752 50.2506 111.773 50.2304 111.792 50.2082C115.974 45.2651 122.59 40.1299 129.877 36.1021C137.167 32.0733 145.085 29.1771 151.864 28.6712C168.938 27.397 183.965 30.7091 197.721 37.8415C211.462 44.9668 231.633 63.3372 246.194 87.8606C246.312 88.0598 246.57 88.1254 246.769 88.0071C246.968 87.8888 247.034 87.6314 246.916 87.4322C232.292 62.8023 212.014 44.3078 198.107 37.0967C184.213 29.8927 169.031 26.5487 151.801 27.8345C144.858 28.3527 136.82 31.3065 129.471 35.3678C122.138 39.421 115.447 44.6017 111.18 49.6322C110.808 49.9165 110.324 50.2105 109.986 50.2906C109.906 50.3094 109.86 50.3108 109.837 50.309C109.827 50.2732 109.812 50.1838 109.839 49.9966C109.846 49.9483 109.844 49.9009 109.835 49.8557C117.032 42.1794 133.286 28.3915 153.916 26.6232Z" fill="#7D7D7D"/>
<path fill-rule="evenodd" clip-rule="evenodd" d="M183.903 18.859C201.173 17.3788 214.983 21.0751 229.558 28.9801C243.577 36.5837 262.418 54.4247 276.526 78.1859L277.225 77.7709C263.059 53.9128 244.121 35.9537 229.946 28.2656C215.254 20.2974 201.287 16.5532 183.834 18.0491C163.449 19.7964 147.47 33.454 140.502 40.9206L140.656 41.065C140.522 41.1155 140.418 41.236 140.397 41.3883C140.342 41.7688 140.372 42.1583 140.644 42.4107C140.917 42.6651 141.282 42.6382 141.531 42.5791C142.049 42.4566 142.652 42.0622 143.033 41.7666C143.055 41.7493 143.075 41.7298 143.093 41.7083C147.145 36.9194 153.554 31.9444 160.614 28.0424C167.677 24.1393 175.348 21.3334 181.915 20.8434C198.457 19.6089 213.015 22.8176 226.341 29.7275C239.653 36.6304 259.195 54.4276 273.302 78.1857C273.416 78.3787 273.666 78.4423 273.859 78.3277C274.052 78.2131 274.115 77.9637 274.001 77.7707C259.833 53.9094 240.188 35.992 226.715 29.0059C213.255 22.0268 198.547 18.787 181.854 20.0327C175.128 20.5347 167.34 23.3964 160.221 27.3309C153.116 31.2577 146.634 36.2767 142.501 41.1502C142.141 41.4257 141.672 41.7105 141.344 41.7881C141.267 41.8063 141.222 41.8076 141.199 41.806C141.189 41.7713 141.175 41.6847 141.201 41.5032C141.208 41.4565 141.206 41.4104 141.198 41.3666C148.17 33.9298 163.917 20.5722 183.903 18.859Z" fill="#7D7D7D"/>
<path fill-rule="evenodd" clip-rule="evenodd" d="M211.913 10.7191C229.182 9.23888 242.993 12.9352 257.567 20.8402C271.587 28.4438 290.427 46.2848 304.535 70.0461L305.234 69.6311C291.068 45.7729 272.13 27.8138 257.955 20.1257C243.264 12.1575 229.296 8.41331 211.843 9.90925C191.459 11.6565 175.48 25.3141 168.511 32.7807L168.666 32.9253C168.531 32.9757 168.428 33.0962 168.406 33.2486C168.351 33.6291 168.382 34.0187 168.653 34.271C168.926 34.5254 169.291 34.4985 169.54 34.4395C170.058 34.3169 170.662 33.9225 171.042 33.6269C171.064 33.6097 171.084 33.5901 171.103 33.5686C175.155 28.7798 181.564 23.8048 188.624 19.9027C195.686 15.9996 203.357 13.1938 209.924 12.7037C226.466 11.4692 241.024 14.678 254.35 21.5879C267.663 28.4908 287.205 46.288 301.311 70.0461C301.426 70.2391 301.675 70.3026 301.868 70.188C302.061 70.0734 302.125 69.8241 302.01 69.6311C287.842 45.7697 268.197 27.8523 254.724 20.8662C241.264 13.8871 226.556 10.6474 209.864 11.8931C203.137 12.3951 195.35 15.2568 188.231 19.1913C181.126 23.1181 174.644 28.1371 170.51 33.0106C170.15 33.286 169.681 33.5708 169.353 33.6485C169.276 33.6667 169.232 33.668 169.209 33.6663C169.199 33.6316 169.185 33.545 169.21 33.3636C169.217 33.3167 169.216 33.2706 169.207 33.2267C176.179 25.79 191.926 12.4323 211.913 10.7191Z" fill="#7D7D7D"/>
<path fill-rule="evenodd" clip-rule="evenodd" d="M240.576 3.58532C258.453 2.05296 272.75 5.87936 287.837 14.0625C302.35 21.9337 321.853 40.4025 336.458 64.9999L337.181 64.5703C322.517 39.8726 302.912 21.2815 288.238 13.3228C273.03 5.07432 258.571 1.19834 240.504 2.74692C219.402 4.55566 202.861 18.6939 195.647 26.4232L195.807 26.5729C195.668 26.6251 195.56 26.7499 195.538 26.9076C195.482 27.3015 195.513 27.7048 195.794 27.966C196.077 28.2294 196.454 28.2015 196.712 28.1404C197.248 28.0135 197.873 27.6053 198.267 27.2992C198.29 27.2814 198.311 27.2611 198.33 27.2389C202.524 22.2815 209.159 17.1315 216.467 13.0921C223.778 9.05164 231.719 6.14708 238.517 5.63975C255.641 4.36184 270.711 7.6835 284.506 14.8365C298.288 21.9824 318.517 40.4058 333.12 64.9999C333.239 65.1997 333.497 65.2655 333.697 65.1469C333.896 65.0283 333.962 64.7701 333.844 64.5703C319.177 39.8693 298.841 21.3214 284.894 14.0895C270.96 6.86479 255.735 3.51106 238.455 4.80061C231.491 5.32026 223.43 8.28265 216.06 12.3556C208.705 16.4206 201.995 21.6162 197.716 26.6612C197.343 26.9464 196.858 27.2412 196.519 27.3215C196.439 27.3404 196.393 27.3418 196.369 27.34C196.359 27.3041 196.344 27.2144 196.371 27.0266C196.378 26.9782 196.376 26.9304 196.367 26.885C203.585 19.1866 219.886 5.35874 240.576 3.58532Z" fill="#7D7D7D"/>
<path fill-rule="evenodd" clip-rule="evenodd" d="M234.868 80.8969C252.368 79.4129 266.361 83.1186 281.13 91.0435C295.334 98.666 314.425 116.552 328.72 140.373L329.44 139.941C315.084 116.019 295.892 98.0128 281.526 90.3042C266.638 82.315 252.483 78.561 234.797 80.0608C214.972 81.7421 201.644 93.2745 194.907 99.1037C194.625 99.3478 194.355 99.5819 194.096 99.8049L194.643 100.441C194.898 100.221 195.165 99.9908 195.442 99.7512L195.442 99.7505C202.173 93.9277 215.32 82.5546 234.868 80.8969ZM232.853 82.8867C249.615 81.6491 264.366 84.866 277.869 91.7932C291.358 98.7133 311.16 116.555 325.453 140.373L326.172 139.941C311.815 116.016 291.906 98.0514 278.252 91.0467C264.612 84.0491 249.707 80.8009 232.791 82.0499C225.965 82.5539 218.466 85.6761 211.89 89.344C205.306 93.0162 199.603 97.26 196.358 100.054L196.905 100.69C200.111 97.9299 205.768 93.7194 212.299 90.0768C218.837 86.4301 226.208 83.3773 232.853 82.8867Z" fill="#7D7D7D"/>
<path fill-rule="evenodd" clip-rule="evenodd" d="M209.266 89.0356C225.899 87.61 239.199 91.1697 253.238 98.7838C266.74 106.107 284.889 123.292 298.48 146.182L299.201 145.754C285.551 122.764 267.301 105.456 253.638 98.0462C239.479 90.3669 226.016 86.7578 209.195 88.1997C190.337 89.816 177.66 100.903 171.255 106.505C170.986 106.74 170.729 106.965 170.482 107.179L171.033 107.812C171.276 107.601 171.529 107.38 171.792 107.149L171.793 107.149C178.193 101.553 190.688 90.6281 209.266 89.0356ZM207.35 90.948C223.282 89.759 237.303 92.8495 250.138 99.5046C262.959 106.153 281.784 123.296 295.373 146.183L296.095 145.754C282.442 122.761 263.511 105.494 250.525 98.7598C237.552 92.0331 223.376 88.9107 207.287 90.1113C200.792 90.596 193.658 93.5985 187.404 97.1239C181.143 100.654 175.719 104.733 172.633 107.418L173.184 108.051C176.231 105.4 181.608 101.355 187.816 97.8548C194.032 94.3508 201.037 91.4191 207.35 90.948Z" fill="#7D7D7D"/>
<path fill-rule="evenodd" clip-rule="evenodd" d="M264.9 74.7349C282.436 73.2976 296.458 76.8871 311.255 84.5618C325.488 91.9436 344.613 109.263 358.934 132.329L359.647 131.886C345.262 108.719 326.033 91.2813 311.641 83.8169C296.726 76.0809 282.547 72.4466 264.831 73.8987C244.139 75.5948 227.916 88.8533 220.839 96.1051L220.985 96.2483C220.85 96.3014 220.747 96.4231 220.724 96.5768C220.668 96.9527 220.699 97.3467 220.984 97.6001C221.262 97.8481 221.629 97.821 221.88 97.7643C222.404 97.6456 223.017 97.2631 223.404 96.9754C223.427 96.9581 223.448 96.9385 223.467 96.9168C227.58 92.2694 234.085 87.4399 241.253 83.6514C248.422 79.8621 256.211 77.1374 262.881 76.6615C279.677 75.4628 294.459 78.5787 307.988 85.2874C321.504 91.9891 341.341 109.266 355.66 132.328C355.783 132.525 356.041 132.586 356.238 132.463C356.435 132.341 356.495 132.083 356.373 131.886C341.987 108.715 322.04 91.3184 308.361 84.5357C294.697 77.76 279.766 74.6153 262.821 75.8245C255.994 76.3117 248.089 79.0894 240.861 82.9096C233.649 86.7215 227.067 91.5943 222.869 96.3274C222.504 96.594 222.028 96.8704 221.695 96.946C221.618 96.9633 221.572 96.965 221.547 96.9636C221.539 96.928 221.531 96.85 221.554 96.7008C221.56 96.6577 221.56 96.6152 221.553 96.5743C228.635 89.3546 244.616 76.3976 264.9 74.7349Z" fill="#7D7D7D"/>
<path fill-rule="evenodd" clip-rule="evenodd" d="M295.864 66.0357C313.833 64.5838 328.201 68.2097 343.362 75.9612C357.945 83.4172 377.539 100.909 392.211 124.203L392.921 123.756C378.185 100.36 358.486 82.7512 343.744 75.2141C328.466 67.4025 313.942 63.7331 295.797 65.1993C274.604 66.9117 257.987 80.2985 250.736 87.622L250.884 87.7685C250.747 87.8209 250.642 87.9429 250.619 88.0974C250.561 88.4782 250.594 88.8757 250.884 89.13C251.165 89.3765 251.534 89.3501 251.789 89.2932C252.323 89.1741 252.949 88.7892 253.346 88.4986C253.369 88.4815 253.39 88.4621 253.41 88.4405C257.623 83.7465 264.289 78.8685 271.633 75.042C278.979 71.2149 286.961 68.4622 293.796 67.9814C311.007 66.7706 326.153 69.9179 340.016 76.694C353.864 83.4632 374.188 100.913 388.857 124.203C388.981 124.399 389.24 124.458 389.436 124.334C389.632 124.211 389.691 123.952 389.567 123.756C374.829 100.356 354.395 82.7888 340.384 75.9402C326.387 69.0986 311.094 65.9234 293.737 67.1444C286.746 67.6362 278.65 70.4404 271.246 74.2979C263.857 78.1471 257.116 83.0676 252.815 87.847C252.441 88.1165 251.952 88.3972 251.607 88.4743C251.518 88.494 251.468 88.4942 251.443 88.4919C251.434 88.4575 251.425 88.3789 251.449 88.2232C251.455 88.1795 251.455 88.1364 251.448 88.095C258.703 80.804 275.078 67.7152 295.864 66.0357Z" fill="#7D7D7D"/>
<path fill-rule="evenodd" clip-rule="evenodd" d="M325.771 57.3106C343.32 55.8782 357.354 59.4554 372.161 67.1032C386.405 74.4595 405.543 91.718 419.873 114.7L420.563 114.27C406.171 91.189 386.932 73.8168 372.534 66.3809C357.612 58.6741 343.427 55.0538 325.704 56.5004C305.005 58.1899 288.776 71.3972 281.695 78.6219L281.842 78.7659C281.709 78.8162 281.606 78.9352 281.583 79.086C281.527 79.4599 281.559 79.8476 281.839 80.096C282.113 80.3385 282.474 80.3127 282.723 80.2565C283.245 80.139 283.856 79.7594 284.243 79.4729C284.265 79.4562 284.286 79.4372 284.305 79.4162C288.42 74.7844 294.931 69.9716 302.104 66.1963C309.279 62.4204 317.074 59.7046 323.751 59.2302C340.56 58.0357 355.353 61.1408 368.892 67.8262C382.419 74.5049 402.269 91.7211 416.598 114.7C416.716 114.891 416.967 114.949 417.158 114.83C417.348 114.711 417.406 114.461 417.287 114.27C402.893 91.1857 382.937 73.854 369.252 67.0974C355.582 60.3475 340.645 57.2147 323.693 58.4194C316.865 58.9046 308.957 61.6713 301.726 65.477C294.51 69.2747 287.925 74.1293 283.726 78.8441C283.36 79.1102 282.882 79.3875 282.545 79.4635C282.456 79.4835 282.407 79.4832 282.383 79.4807C282.374 79.4477 282.363 79.3684 282.387 79.2066C282.394 79.1629 282.393 79.1197 282.386 79.0784C289.471 71.885 305.466 58.9679 325.771 57.3106Z" fill="#7D7D7D"/>
<path fill-rule="evenodd" clip-rule="evenodd" d="M384.516 40.9399C401.802 39.5096 415.623 43.0814 430.21 50.719C444.239 58.065 463.093 75.3016 477.211 98.257L477.927 97.8162C463.747 74.7589 444.789 57.4033 430.6 49.9735C415.895 42.2736 401.914 38.6559 384.447 40.1013C364.044 41.7897 348.05 54.9873 341.072 62.2046L341.218 62.3459C341.084 62.3998 340.981 62.5215 340.958 62.6749C340.903 63.0483 340.933 63.4409 341.215 63.6943C341.493 63.9438 341.859 63.9163 342.108 63.8596C342.627 63.741 343.232 63.3592 343.613 63.0729C343.636 63.0555 343.658 63.0357 343.677 63.0138C347.73 58.3891 354.143 53.583 361.209 49.8128C368.276 46.0419 375.953 43.3308 382.526 42.8572C399.083 41.6644 413.653 44.765 426.989 51.4412C440.312 58.1103 459.868 75.3046 473.984 98.2567C474.105 98.4546 474.364 98.5164 474.562 98.3947C474.76 98.273 474.822 98.0138 474.7 97.8159C460.518 74.7553 440.853 57.4401 427.366 50.6887C413.894 43.9445 399.172 40.8143 382.466 42.0179C375.733 42.503 367.939 45.2682 360.813 49.0704C353.702 52.8645 347.213 57.7144 343.074 62.4256C342.714 62.6907 342.247 62.9646 341.92 63.0393C341.851 63.055 341.808 63.0576 341.784 63.0569C341.776 63.0202 341.769 62.9428 341.791 62.7981C341.797 62.7553 341.797 62.713 341.791 62.6724C348.772 55.4869 364.524 42.5943 384.516 40.9399Z" fill="#7D7D7D"/>
<path d="M245.855 221.718L255.84 242.71V246.038C257.478 246.858 258.57 246.38 258.912 246.038V242.71C258.912 241.072 258.229 239.98 257.888 239.638L246.879 219.158L245.855 221.718Z" fill="white" stroke="#7D7D7D" stroke-width="0.83905"/>
<path d="M101.224 183.317L111.208 204.309V207.637C112.846 208.456 113.939 207.979 114.28 207.637V204.309C114.28 202.671 113.597 201.578 113.256 201.237L102.248 180.757L101.224 183.317Z" fill="white" stroke="#7D7D7D" stroke-width="0.83905"/>
<path d="M240.998 217.109H240.224C240.432 216.849 240.768 216.658 240.998 217.109H246.112C246.538 218.304 246.982 220.898 245.344 221.717C243.296 222.742 241.248 221.973 241.248 218.901C241.248 217.945 241.144 217.397 240.998 217.109Z" fill="white"/>
<path d="M254.304 150.036V224.79C254.389 230.848 253.126 243.683 247.392 246.55C240.224 250.134 238.432 249.878 235.872 247.318C233.311 244.758 228.959 238.87 231.519 226.582C233.568 216.751 238.176 216.171 240.224 217.109M240.224 217.109H246.112C246.538 218.304 246.982 220.898 245.344 221.717C243.296 222.742 241.248 221.973 241.248 218.901C241.248 216.444 240.565 216.683 240.224 217.109Z" stroke="#7D7D7D" stroke-width="2.51715"/>
<path d="M96.365 178.708H95.5909C95.7993 178.448 96.1352 178.257 96.365 178.708H101.479C101.906 179.903 102.349 182.497 100.711 183.317C98.6629 184.341 96.6149 183.573 96.6149 180.501C96.6149 179.544 96.5115 178.996 96.365 178.708Z" fill="white"/>
<path d="M109.671 110.355V186.389C109.757 192.447 108.494 205.282 102.759 208.149C95.5909 211.733 93.7988 211.477 91.2387 208.917C88.6787 206.357 84.3266 200.469 86.8866 188.181C88.9347 178.35 93.5428 177.77 95.5909 178.708M95.5909 178.708H101.479C101.906 179.903 102.349 182.497 100.711 183.317C98.6629 184.341 96.6149 183.573 96.6149 180.501C96.6149 178.043 95.9322 178.282 95.5909 178.708Z" stroke="#7D7D7D" stroke-width="2.09763"/>
<path d="M332.13 73.4897V78.0979M338.018 76.0498V79.3779" stroke="#7D7D7D" stroke-width="0.83905"/>
<path d="M186.974 34.8328V38.1609M193.374 35.8569V38.9289M196.959 37.1369V39.953M196.959 6.67212V30.7367L441.957 96.2744M184.158 5.39209V16.4004L97.372 40.63M32.8584 58.6414L97.372 40.63M97.372 40.63V28.6887" stroke="#7D7D7D" stroke-width="0.83905"/>
<path d="M340.578 46.0972V67.6017M390.755 194.837L312.673 215.317M395.619 193.557L477.798 172.308" stroke="#7D7D7D" stroke-width="0.83905"/>
<path d="M102.748 116.243L24.1543 136.724M106.844 115.475L117.853 112.659L189.535 94.2266" stroke="#7D7D7D" stroke-width="0.83905"/>
<path fill-rule="evenodd" clip-rule="evenodd" d="M2.64233 50.8738L300.129 130.836C302.519 131.177 308.117 131.552 311.394 130.324C313.282 129.615 367.544 115.689 420.66 102.057C448.307 94.9613 475.643 87.9455 495.121 82.9148C495.769 83.7057 495.974 84.6741 495.974 85.266V91.6662V110.355C495.974 112.607 494.95 113.171 494.438 113.171L317.026 160.788C310.625 162.836 304.993 162.495 302.433 161.812L25.6902 87.3141L10.0724 82.9216C9.60002 82.8981 8.72409 82.8335 7.25774 82.7059C2.54722 82.2963 1.19891 78.2685 1.11357 76.3058V64.2735C1.02824 62.0548 0.908767 57.0029 1.11357 54.5452C1.25584 52.8381 1.9828 51.6085 2.64233 50.8738Z" fill="white"/>
<path d="M2.64233 50.8738L2.75122 50.4686L2.50231 50.4017L2.33013 50.5935L2.64233 50.8738ZM300.129 130.836L300.02 131.241L300.045 131.247L300.07 131.251L300.129 130.836ZM311.394 130.324L311.246 129.931L311.394 130.324ZM420.66 102.057L420.556 101.65L420.66 102.057ZM495.121 82.9148L495.445 82.649L495.276 82.4416L495.016 82.5086L495.121 82.9148ZM494.438 113.171V112.751H494.383L494.329 112.766L494.438 113.171ZM317.026 160.788L316.917 160.383L316.907 160.385L316.898 160.388L317.026 160.788ZM302.433 161.812L302.324 162.217L302.325 162.217L302.433 161.812ZM25.6902 87.3141L25.5766 87.7179L25.5812 87.7192L25.6902 87.3141ZM10.0724 82.9216L10.186 82.5177L10.1404 82.5049L10.0932 82.5025L10.0724 82.9216ZM7.25774 82.7059L7.2214 83.1239L7.25774 82.7059ZM1.11357 76.3058H0.694047V76.3149L0.694443 76.324L1.11357 76.3058ZM1.11357 64.2735H1.5331V64.2654L1.53279 64.2574L1.11357 64.2735ZM1.11357 54.5452L0.695496 54.5104L1.11357 54.5452ZM2.53343 51.2789L300.02 131.241L300.238 130.43L2.75122 50.4686L2.53343 51.2789ZM300.07 131.251C301.284 131.424 303.301 131.605 305.432 131.588C307.553 131.571 309.832 131.357 311.541 130.716L311.246 129.931C309.678 130.519 307.52 130.732 305.425 130.749C303.34 130.766 301.364 130.588 300.189 130.42L300.07 131.251ZM311.541 130.716C311.752 130.637 312.778 130.349 314.561 129.87C316.328 129.395 318.809 128.74 321.9 127.931C328.082 126.313 336.701 124.08 346.922 121.443C367.362 116.169 394.207 109.279 420.764 102.463L420.556 101.65C393.998 108.466 367.153 115.356 346.712 120.63C336.491 123.267 327.871 125.501 321.688 127.119C318.596 127.928 316.113 128.584 314.343 129.06C312.59 129.531 311.507 129.833 311.246 129.931L311.541 130.716ZM420.764 102.463C448.411 95.3676 475.747 88.3518 495.226 83.321L495.016 82.5086C475.538 87.5392 448.203 94.5549 420.556 101.65L420.764 102.463ZM494.796 83.1807C495.371 83.8815 495.555 84.7495 495.555 85.266H496.394C496.394 84.5986 496.167 83.5299 495.445 82.649L494.796 83.1807ZM495.555 85.266V91.6662H496.394V85.266H495.555ZM495.555 91.6662V110.355H496.394V91.6662H495.555ZM495.555 110.355C495.555 112.491 494.618 112.751 494.438 112.751V113.59C495.283 113.59 496.394 112.724 496.394 110.355H495.555ZM494.329 112.766L316.917 160.383L317.134 161.193L494.547 113.576L494.329 112.766ZM316.898 160.388C310.569 162.414 305.019 162.067 302.541 161.407L302.325 162.217C304.968 162.922 310.682 163.258 317.154 161.188L316.898 160.388ZM302.542 161.407L25.7993 86.909L25.5812 87.7192L302.324 162.217L302.542 161.407ZM25.8038 86.9102L10.186 82.5177L9.95882 83.3254L25.5766 87.7179L25.8038 86.9102ZM10.0932 82.5025C9.62939 82.4795 8.76039 82.4155 7.29409 82.288L7.2214 83.1239C8.6878 83.2514 9.57065 83.3167 10.0516 83.3406L10.0932 82.5025ZM7.29409 82.288C5.07001 82.0946 3.66277 81.0555 2.79192 79.8435C1.91034 78.6165 1.57242 77.201 1.5327 76.2876L0.694443 76.324C0.740068 77.3733 1.11897 78.9531 2.11051 80.3331C3.11278 81.728 4.73496 82.9077 7.2214 83.1239L7.29409 82.288ZM1.5331 76.3058V64.2735H0.694047V76.3058H1.5331ZM1.53279 64.2574C1.44729 62.0343 1.32932 57.008 1.53165 54.5801L0.695496 54.5104C0.488216 56.9977 0.609187 62.0752 0.694357 64.2896L1.53279 64.2574ZM1.53165 54.5801C1.66518 52.9777 2.34629 51.8316 2.95452 51.154L2.33013 50.5935C1.61931 51.3854 0.846492 52.6984 0.695496 54.5104L1.53165 54.5801Z" fill="#7D7D7D"/>
<path d="M495.462 87.0583L489.318 88.5943C432.314 103.955 317.333 134.983 313.442 136.212C309.55 137.44 303.97 136.724 301.665 136.212L6.2339 56.5935L1.11377 55.3135" stroke="#7D7D7D" stroke-width="0.83905"/>
<path d="M495.462 109.587L489.318 111.123C432.314 126.484 317.333 157.512 313.442 158.74C309.55 159.969 303.97 159.252 301.665 158.74L6.2339 79.1223L1.11377 77.8423" stroke="#7D7D7D" stroke-width="0.83905"/>
</svg>
