<svg width="37" height="50" viewBox="0 0 37 50" fill="none" xmlns="http://www.w3.org/2000/svg">
<path d="M27.75 0H0.75V22.1154H5.51262C7.55799 22.1154 9.42781 23.35 10.3425 25.3045L13.3949 31.8266C13.9572 33.0283 14.25 34.3533 14.25 35.6967V50H36.75V9.61538C36.75 4.30495 32.7206 0 27.75 0Z" fill="#421DD6"/>
<path d="M8.85 50L8.85 45.1923H0.75V50H8.85Z" fill="#421DD6"/>
<path d="M0.75 33.6538H11.55L8.24625 26.5946C7.78889 25.6173 6.85398 25 5.8313 25H0.75V33.6538Z" fill="#421DD6"/>
<path d="M7.49999 37.9808H10.2L10.3574 37.9905C11.0288 38.0738 11.55 38.6834 11.55 39.4231C11.55 40.2196 10.9456 40.8654 10.2 40.8654H7.49999L7.34255 40.8557C6.67115 40.7724 6.14999 40.1627 6.14999 39.4231C6.14999 38.6265 6.75441 37.9808 7.49999 37.9808Z" fill="#421DD6"/>
</svg>
